<svg id="Layer_1" data-name="Layer 1" xmlns="http://www.w3.org/2000/svg" xmlns:xlink="http://www.w3.org/1999/xlink" viewBox="0 0 400 400"><defs><style>.cls-1{fill:none;}.cls-2{isolation:isolate;opacity:0.8;fill:url(#radial-gradient);}.cls-3{fill:url(#linear-gradient);}.cls-4{fill:url(#linear-gradient-2);}.cls-5{fill:url(#linear-gradient-3);}.cls-6{fill:url(#linear-gradient-4);}.cls-7{fill:url(#linear-gradient-5);}.cls-8{fill:url(#linear-gradient-6);}.cls-9{fill:url(#linear-gradient-7);}.cls-10{clip-path:url(#clip-path);}.cls-11{fill:url(#linear-gradient-8);}.cls-12{fill:url(#linear-gradient-9);}.cls-13{fill:url(#linear-gradient-10);}.cls-14{fill:url(#linear-gradient-11);}.cls-15{fill:url(#linear-gradient-12);}.cls-16{fill:url(#linear-gradient-13);}.cls-17{fill:url(#linear-gradient-14);}.cls-18{fill:url(#linear-gradient-15);}.cls-19{fill:url(#linear-gradient-16);}.cls-20{fill:url(#linear-gradient-17);}.cls-21{fill:url(#linear-gradient-18);}.cls-22{fill:url(#linear-gradient-19);}.cls-23{fill:url(#linear-gradient-20);}.cls-24{fill:url(#linear-gradient-21);}.cls-25{fill:url(#linear-gradient-22);}.cls-26{fill:url(#linear-gradient-23);}.cls-27{fill:url(#linear-gradient-24);}.cls-28{fill:url(#linear-gradient-25);}.cls-29{fill:url(#linear-gradient-26);}.cls-30{fill:url(#linear-gradient-27);}.cls-31{fill:url(#linear-gradient-28);}.cls-32{fill:url(#linear-gradient-29);}.cls-33{fill:url(#linear-gradient-30);}.cls-34{fill:url(#linear-gradient-31);}.cls-35{fill:#d9b13b;}.cls-36{fill:url(#linear-gradient-32);}.cls-37{fill:url(#linear-gradient-33);}.cls-38{fill:url(#linear-gradient-34);}.cls-39{fill:url(#linear-gradient-35);}.cls-40{fill:url(#linear-gradient-36);}.cls-41{fill:url(#linear-gradient-37);}.cls-42{fill:#dad4ca;stroke:#e2e246;stroke-miterlimit:10;stroke-width:0.86px;}.cls-43{fill:#dedede;}.cls-44{fill:#767a7b;}.cls-45{fill:#37b380;}.cls-46{fill:url(#linear-gradient-38);}.cls-47{fill:url(#linear-gradient-39);}.cls-48{fill:#fff;}.cls-49{fill:url(#linear-gradient-40);}.cls-50{fill:url(#linear-gradient-41);}.cls-51{fill:url(#linear-gradient-42);}.cls-52{fill:url(#linear-gradient-43);}.cls-53{fill:url(#linear-gradient-44);}.cls-54{fill:url(#linear-gradient-45);}.cls-55{fill:url(#linear-gradient-46);}.cls-56{fill:url(#linear-gradient-47);}.cls-57{fill:url(#linear-gradient-48);}.cls-58{fill:url(#linear-gradient-49);}.cls-59{fill:url(#linear-gradient-50);}.cls-60{fill:url(#linear-gradient-51);}.cls-61{fill:url(#linear-gradient-52);}.cls-62{fill:url(#linear-gradient-53);}.cls-63{fill:url(#linear-gradient-54);}.cls-64{fill:url(#linear-gradient-55);}.cls-65{fill:url(#linear-gradient-56);}.cls-66{fill:url(#linear-gradient-57);}.cls-67{fill:url(#linear-gradient-58);}.cls-68{fill:url(#linear-gradient-59);}.cls-69{fill:url(#linear-gradient-60);}.cls-70{fill:url(#linear-gradient-61);}.cls-71{fill:url(#linear-gradient-62);}.cls-72{fill:#7bc388;}.cls-73{fill:url(#linear-gradient-63);}.cls-74{fill:url(#linear-gradient-64);}.cls-75{fill:url(#linear-gradient-65);}.cls-76{fill:url(#linear-gradient-66);}.cls-77{fill:url(#linear-gradient-67);}.cls-78{fill:url(#linear-gradient-68);}.cls-79{fill:url(#linear-gradient-69);}.cls-80{fill:url(#linear-gradient-70);}.cls-81{fill:url(#linear-gradient-71);}.cls-82{fill:#e2e246;}.cls-83{fill:url(#linear-gradient-72);}.cls-84{fill:url(#linear-gradient-73);}.cls-85{fill:url(#linear-gradient-74);}.cls-86{fill:url(#linear-gradient-75);}.cls-87{fill:url(#linear-gradient-76);}.cls-88{fill:#c8a250;}.cls-89{fill:#9a763a;}.cls-90{fill:url(#linear-gradient-77);}.cls-91{fill:url(#linear-gradient-78);}.cls-92{fill:url(#linear-gradient-79);}.cls-93{fill:url(#linear-gradient-80);}.cls-94{fill:url(#linear-gradient-81);}.cls-95{fill:url(#linear-gradient-82);}.cls-96{fill:url(#linear-gradient-83);}.cls-97{fill:url(#linear-gradient-84);}.cls-98{fill:url(#linear-gradient-85);}.cls-99{fill:url(#linear-gradient-86);}.cls-100{fill:url(#linear-gradient-87);}.cls-101{fill:url(#linear-gradient-88);}.cls-102{fill:url(#linear-gradient-89);}.cls-103{fill:url(#linear-gradient-90);}.cls-104{fill:#293130;}.cls-105{fill:url(#linear-gradient-91);}.cls-106{fill:url(#linear-gradient-92);}.cls-107{fill:#1d2121;}.cls-108{fill:url(#linear-gradient-93);}.cls-109{fill:url(#linear-gradient-94);}.cls-110{fill:url(#linear-gradient-95);}.cls-111{fill:url(#linear-gradient-96);}.cls-112{fill:url(#linear-gradient-97);}.cls-113{fill:url(#linear-gradient-98);}.cls-114{fill:url(#linear-gradient-99);}.cls-115{fill:url(#linear-gradient-100);}.cls-116{fill:url(#linear-gradient-101);}.cls-117{fill:url(#linear-gradient-102);}.cls-118{fill:url(#linear-gradient-103);}.cls-119{fill:url(#linear-gradient-104);}.cls-120{fill:url(#linear-gradient-105);}.cls-121{fill:url(#linear-gradient-106);}.cls-122{fill:url(#linear-gradient-107);}.cls-123{fill:url(#linear-gradient-108);}.cls-124{fill:url(#linear-gradient-109);}.cls-125{fill:url(#linear-gradient-110);}.cls-126{fill:url(#linear-gradient-111);}.cls-127{fill:url(#linear-gradient-112);}.cls-128{fill:url(#linear-gradient-113);}.cls-129{fill:url(#linear-gradient-114);}.cls-130{fill:url(#linear-gradient-115);}.cls-131{fill:url(#linear-gradient-116);}.cls-132{fill:url(#linear-gradient-117);}</style><radialGradient id="radial-gradient" cx="-251.24" cy="-94.92" r="97.25" gradientTransform="matrix(0.01, 1, 0.64, 0, 258.48, 588.76)" gradientUnits="userSpaceOnUse"><stop offset="0" stop-color="#989898"/><stop offset="1" stop-color="#fff"/></radialGradient><linearGradient id="linear-gradient" x1="12.36" y1="706.47" x2="197.04" y2="706.47" gradientTransform="matrix(1, 0, 0, -1, 83.18, 911.16)" gradientUnits="userSpaceOnUse"><stop offset="0" stop-color="#fff"/><stop offset="1" stop-color="#c9cbcb"/></linearGradient><linearGradient id="linear-gradient-2" x1="12.36" y1="696.44" x2="162.58" y2="696.44" gradientTransform="matrix(1, 0, 0, -1, 83.18, 911.16)" gradientUnits="userSpaceOnUse"><stop offset="0" stop-color="#1b2030"/><stop offset="1" stop-color="#3a3f4f"/></linearGradient><linearGradient id="linear-gradient-3" x1="14.33" y1="696.46" x2="160.6" y2="696.46" xlink:href="#linear-gradient-2"/><linearGradient id="linear-gradient-4" x1="14.33" y1="696.47" x2="160.59" y2="696.47" gradientTransform="matrix(1, 0, 0, -1, 83.18, 911.16)" gradientUnits="userSpaceOnUse"><stop offset="0" stop-color="#3a3f4f"/><stop offset="1" stop-color="#1b2030"/></linearGradient><linearGradient id="linear-gradient-5" x1="-616.46" y1="-1104.28" x2="-529.26" y2="-1066.53" gradientTransform="matrix(0.87, 0.5, 0, -1.15, 689.4, -646.57)" xlink:href="#linear-gradient-2"/><linearGradient id="linear-gradient-6" x1="-3826.2" y1="-1112.89" x2="-3772.71" y2="-1089.73" gradientTransform="matrix(0.87, 0.5, -0.5, -1.44, 2917.35, 640.73)" xlink:href="#linear-gradient-2"/><linearGradient id="linear-gradient-7" x1="-3824.41" y1="-1112.48" x2="-3774.78" y2="-1090.98" gradientTransform="matrix(0.87, 0.5, -0.5, -1.44, 2917.35, 640.73)" xlink:href="#linear-gradient-4"/><clipPath id="clip-path"><path class="cls-1" d="M232.28,367.65a16,16,0,0,1-7.9-2.42L118.89,304.32c-11.79-6.8-21.37-25.2-21.37-41V79.36c0-8.1,2.64-14.26,7.09-16.58h.3l.35-.3a9.19,9.19,0,0,1,2.06-.6,10.24,10.24,0,0,1,1.66-.14,16.19,16.19,0,0,1,7.91,2.42l105.52,60.91c11.79,6.8,21.37,25.2,21.37,41V350c0,6.29-1.57,11.44-4.42,14.5a10,10,0,0,1-1.92,1.63,9.42,9.42,0,0,1-5.16,1.48Z"/></clipPath><linearGradient id="linear-gradient-8" x1="25.13" y1="642.49" x2="81.42" y2="642.49" xlink:href="#linear-gradient-2"/><linearGradient id="linear-gradient-9" x1="25.13" y1="833.75" x2="81.42" y2="833.75" xlink:href="#linear-gradient-2"/><linearGradient id="linear-gradient-10" x1="25.13" y1="738.11" x2="81.42" y2="738.11" xlink:href="#linear-gradient-2"/><linearGradient id="linear-gradient-11" x1="-693.06" y1="-1158.63" x2="-666.28" y2="-1158.63" gradientTransform="matrix(0.87, 0.5, 0, -1.15, 705.66, -714.76)" xlink:href="#linear-gradient-2"/><linearGradient id="linear-gradient-12" x1="-686.89" y1="-1158.63" x2="-672.43" y2="-1158.63" gradientTransform="matrix(0.87, 0.5, 0, -1.15, 705.66, -714.76)" gradientUnits="userSpaceOnUse"><stop offset="0" stop-color="#3a3f4f"/><stop offset="0.06" stop-color="#343949"/><stop offset="0.29" stop-color="#262b3b"/><stop offset="0.56" stop-color="#1e2333"/><stop offset="1" stop-color="#1b2030"/></linearGradient><linearGradient id="linear-gradient-13" x1="-693.06" y1="-1075.47" x2="-666.28" y2="-1075.47" gradientTransform="matrix(0.87, 0.5, 0, -1.15, 705.66, -714.76)" xlink:href="#linear-gradient-2"/><linearGradient id="linear-gradient-14" x1="26.56" y1="731.62" x2="40.54" y2="723.55" gradientTransform="matrix(0.86, 0.5, 0.5, -0.86, -279.43, 794.77)" xlink:href="#linear-gradient-12"/><linearGradient id="linear-gradient-15" x1="-693.06" y1="-992.31" x2="-666.28" y2="-992.31" gradientTransform="matrix(0.87, 0.5, 0, -1.15, 705.66, -714.76)" xlink:href="#linear-gradient-2"/><linearGradient id="linear-gradient-16" x1="-686.89" y1="-992.31" x2="-672.43" y2="-992.31" xlink:href="#linear-gradient-12"/><linearGradient id="linear-gradient-17" x1="96.92" y1="641.92" x2="111.06" y2="641.92" xlink:href="#linear-gradient-2"/><linearGradient id="linear-gradient-18" x1="120.39" y1="628.36" x2="134.55" y2="628.36" xlink:href="#linear-gradient-2"/><linearGradient id="linear-gradient-19" x1="-607.93" y1="-1118.19" x2="-597.28" y2="-1118.19" gradientTransform="matrix(0.87, 0.5, 0, -1.15, 705.66, -714.76)" xlink:href="#linear-gradient-2"/><linearGradient id="linear-gradient-20" x1="-605.48" y1="-1118.21" x2="-599.73" y2="-1118.21" xlink:href="#linear-gradient-12"/><linearGradient id="linear-gradient-21" x1="-580.83" y1="-1118.26" x2="-570.18" y2="-1118.26" gradientTransform="matrix(0.87, 0.5, 0, -1.15, 705.66, -714.76)" xlink:href="#linear-gradient-2"/><linearGradient id="linear-gradient-22" x1="-578.38" y1="-1118.26" x2="-572.63" y2="-1118.26" xlink:href="#linear-gradient-12"/><linearGradient id="linear-gradient-23" x1="132.98" y1="580.23" x2="189.26" y2="580.23" xlink:href="#linear-gradient-2"/><linearGradient id="linear-gradient-24" x1="132.96" y1="675.86" x2="189.26" y2="675.86" xlink:href="#linear-gradient-2"/><linearGradient id="linear-gradient-25" x1="132.98" y1="771.48" x2="189.26" y2="771.48" xlink:href="#linear-gradient-2"/><linearGradient id="linear-gradient-26" x1="-568.53" y1="-1158.88" x2="-541.75" y2="-1158.88" gradientTransform="matrix(0.87, 0.5, 0, -1.15, 705.66, -714.76)" xlink:href="#linear-gradient-2"/><linearGradient id="linear-gradient-27" x1="-562.36" y1="-1158.88" x2="-547.9" y2="-1158.88" xlink:href="#linear-gradient-12"/><linearGradient id="linear-gradient-28" x1="-568.53" y1="-1075.72" x2="-541.75" y2="-1075.72" gradientTransform="matrix(0.87, 0.5, 0, -1.15, 705.66, -714.76)" xlink:href="#linear-gradient-2"/><linearGradient id="linear-gradient-29" x1="-562.36" y1="-1075.72" x2="-547.9" y2="-1075.72" xlink:href="#linear-gradient-12"/><linearGradient id="linear-gradient-30" x1="-568.53" y1="-992.56" x2="-541.75" y2="-992.56" gradientTransform="matrix(0.87, 0.5, 0, -1.15, 705.66, -714.76)" xlink:href="#linear-gradient-2"/><linearGradient id="linear-gradient-31" x1="-562.36" y1="-992.56" x2="-547.9" y2="-992.56" xlink:href="#linear-gradient-12"/><linearGradient id="linear-gradient-32" x1="-573.11" y1="-775.68" x2="-589.97" y2="-804.88" gradientTransform="matrix(0.87, 0.5, 0, -1.15, 654.69, -472.64)" xlink:href="#linear-gradient"/><linearGradient id="linear-gradient-33" x1="51.33" y1="641.64" x2="56.14" y2="641.64" gradientTransform="matrix(0.86, 0.5, 0.5, -0.86, -233.3, 796.34)" xlink:href="#linear-gradient"/><linearGradient id="linear-gradient-34" x1="110.28" y1="607.6" x2="115.09" y2="607.6" gradientTransform="matrix(0.86, 0.5, 0.5, -0.86, -208.06, 771.23)" xlink:href="#linear-gradient"/><linearGradient id="linear-gradient-35" x1="169.23" y1="573.55" x2="174.04" y2="573.55" gradientTransform="matrix(0.86, 0.5, 0.5, -0.86, -182.81, 746.14)" xlink:href="#linear-gradient"/><linearGradient id="linear-gradient-36" x1="169.29" y1="656.81" x2="174.1" y2="656.81" gradientTransform="matrix(0.86, 0.5, 0.5, -0.86, -224.83, 734.73)" xlink:href="#linear-gradient"/><linearGradient id="linear-gradient-37" x1="57.94" y1="728.75" x2="62.75" y2="728.75" gradientTransform="matrix(0.86, 0.5, 0.5, -0.86, -281.56, 781.58)" xlink:href="#linear-gradient"/><linearGradient id="linear-gradient-38" x1="-540.85" y1="-792.5" x2="-523.45" y2="-792.5" gradientTransform="matrix(0.87, 0.5, 0, -1.15, 654.69, -472.64)" xlink:href="#linear-gradient"/><linearGradient id="linear-gradient-39" x1="-542.02" y1="-793.49" x2="-524.62" y2="-793.49" gradientTransform="matrix(0.87, 0.5, 0, -1.15, 654.69, -472.64)" xlink:href="#linear-gradient"/><linearGradient id="linear-gradient-40" x1="-505.21" y1="-819.47" x2="-483.11" y2="-819.47" gradientTransform="matrix(0.87, 0.5, 0, -1.15, 654.69, -472.64)" xlink:href="#linear-gradient"/><linearGradient id="linear-gradient-41" x1="-506.52" y1="-820.55" x2="-484.42" y2="-820.55" gradientTransform="matrix(0.87, 0.5, 0, -1.15, 654.69, -472.64)" xlink:href="#linear-gradient"/><linearGradient id="linear-gradient-42" x1="-543.88" y1="-823.94" x2="-533.37" y2="-823.94" gradientTransform="matrix(0.87, 0.5, 0, -1.15, 654.69, -472.64)" gradientUnits="userSpaceOnUse"><stop offset="0" stop-color="#2b2e31"/><stop offset="0.52" stop-color="#37393c"/><stop offset="1" stop-color="#464849"/></linearGradient><linearGradient id="linear-gradient-43" x1="-543.88" y1="19666.84" x2="-533.37" y2="19666.84" gradientTransform="matrix(0.87, 0.5, 0, 0.4, 654.69, -7402.66)" xlink:href="#linear-gradient-42"/><linearGradient id="linear-gradient-44" x1="-543.88" y1="19717.66" x2="-533.37" y2="19717.66" gradientTransform="matrix(0.87, 0.5, 0, 0.4, 654.69, -7402.66)" xlink:href="#linear-gradient-42"/><linearGradient id="linear-gradient-45" x1="-488.48" y1="-789.03" x2="-456.76" y2="-789.03" xlink:href="#linear-gradient-42"/><linearGradient id="linear-gradient-46" x1="-489.91" y1="-790.26" x2="-458.2" y2="-790.26" xlink:href="#linear-gradient-42"/><linearGradient id="linear-gradient-47" x1="190.04" y1="261.5" x2="197.81" y2="261.5" gradientTransform="matrix(1, 0, 0, -1, 0, 422)" xlink:href="#linear-gradient"/><linearGradient id="linear-gradient-48" x1="208.63" y1="244.42" x2="209.14" y2="244.42" gradientTransform="matrix(1, 0, 0, -1, 0, 422)" xlink:href="#linear-gradient-2"/><linearGradient id="linear-gradient-49" x1="204.67" y1="247.83" x2="209.14" y2="247.83" gradientTransform="matrix(1, 0, 0, -1, 0, 422)" xlink:href="#linear-gradient-2"/><linearGradient id="linear-gradient-50" x1="-519.34" y1="-788.45" x2="-514.77" y2="-788.45" gradientTransform="matrix(0.87, 0.5, 0, -1.15, 654.69, -472.64)" xlink:href="#linear-gradient-2"/><linearGradient id="linear-gradient-51" x1="182.94" y1="259.25" x2="183.45" y2="259.25" gradientTransform="matrix(1, 0, 0, -1, 0, 422)" xlink:href="#linear-gradient-2"/><linearGradient id="linear-gradient-52" x1="178.98" y1="262.67" x2="183.45" y2="262.67" gradientTransform="matrix(1, 0, 0, -1, 0, 422)" xlink:href="#linear-gradient-2"/><linearGradient id="linear-gradient-53" x1="-549" y1="-788.39" x2="-544.43" y2="-788.39" gradientTransform="matrix(0.87, 0.5, 0, -1.15, 654.69, -472.64)" xlink:href="#linear-gradient-2"/><linearGradient id="linear-gradient-54" x1="-483.28" y1="-897.32" x2="-479.74" y2="-897.32" gradientTransform="matrix(0.5, 0.87, 0.58, -1, 1002.06, -148.92)" xlink:href="#linear-gradient"/><linearGradient id="linear-gradient-55" x1="9030.97" y1="10451.21" x2="9034.5" y2="10451.21" gradientTransform="matrix(-0.5, -0.87, -0.58, 1, 10777.16, -2296.68)" xlink:href="#linear-gradient"/><linearGradient id="linear-gradient-56" x1="9026.1" y1="10451.23" x2="9029.63" y2="10451.23" gradientTransform="matrix(-0.5, -0.87, -0.58, 1, 10778.97, -2298.49)" xlink:href="#linear-gradient"/><linearGradient id="linear-gradient-57" x1="9013.6" y1="10444.43" x2="9017.13" y2="10444.43" gradientTransform="matrix(-0.5, -0.87, -0.58, 0.99, 10716.29, -2286.83)" xlink:href="#linear-gradient"/><linearGradient id="linear-gradient-58" x1="9016.36" y1="10451.26" x2="9019.9" y2="10451.26" gradientTransform="matrix(-0.5, -0.87, -0.58, 1, 10782.58, -2302.07)" xlink:href="#linear-gradient"/><linearGradient id="linear-gradient-59" x1="9011.49" y1="10451.29" x2="9015.03" y2="10451.29" gradientTransform="matrix(-0.5, -0.87, -0.58, 1, 10784.39, -2303.87)" xlink:href="#linear-gradient"/><linearGradient id="linear-gradient-60" x1="9006.62" y1="10451.29" x2="9010.15" y2="10451.29" gradientTransform="matrix(-0.5, -0.87, -0.58, 1, 10786.19, -2305.66)" xlink:href="#linear-gradient"/><linearGradient id="linear-gradient-61" x1="9001.75" y1="10451.31" x2="9005.28" y2="10451.31" gradientTransform="matrix(-0.5, -0.87, -0.58, 1, 10788, -2307.46)" xlink:href="#linear-gradient"/><linearGradient id="linear-gradient-62" x1="8996.88" y1="10451.33" x2="9000.41" y2="10451.33" gradientTransform="matrix(-0.5, -0.87, -0.58, 1, 10789.8, -2309.26)" xlink:href="#linear-gradient"/><linearGradient id="linear-gradient-63" x1="-551.35" y1="-897.09" x2="-547.82" y2="-897.09" gradientTransform="matrix(0.5, 0.87, 0.58, -1, 976.84, -123.81)" xlink:href="#linear-gradient"/><linearGradient id="linear-gradient-64" x1="9091.39" y1="10444.25" x2="9094.92" y2="10444.25" gradientTransform="matrix(-0.5, -0.87, -0.58, 0.99, 10687.69, -2258.77)" xlink:href="#linear-gradient"/><linearGradient id="linear-gradient-65" x1="9094.17" y1="10451" x2="9097.71" y2="10451" gradientTransform="matrix(-0.5, -0.87, -0.58, 1, 10753.74, -2273.38)" xlink:href="#linear-gradient"/><linearGradient id="linear-gradient-66" x1="9089.3" y1="10451.01" x2="9092.84" y2="10451.01" gradientTransform="matrix(-0.5, -0.87, -0.58, 1, 10755.55, -2275.18)" xlink:href="#linear-gradient"/><linearGradient id="linear-gradient-67" x1="9084.43" y1="10451.03" x2="9087.97" y2="10451.03" gradientTransform="matrix(-0.5, -0.87, -0.58, 1, 10757.35, -2276.98)" xlink:href="#linear-gradient"/><linearGradient id="linear-gradient-68" x1="9079.57" y1="10451.05" x2="9083.1" y2="10451.05" gradientTransform="matrix(-0.5, -0.87, -0.58, 1, 10759.16, -2278.77)" xlink:href="#linear-gradient"/><linearGradient id="linear-gradient-69" x1="9074.7" y1="10451.06" x2="9078.23" y2="10451.06" gradientTransform="matrix(-0.5, -0.87, -0.58, 1, 10760.97, -2280.56)" xlink:href="#linear-gradient"/><linearGradient id="linear-gradient-70" x1="9069.82" y1="10451.08" x2="9073.36" y2="10451.08" gradientTransform="matrix(-0.5, -0.87, -0.58, 1, 10762.77, -2282.37)" xlink:href="#linear-gradient"/><linearGradient id="linear-gradient-71" x1="9064.95" y1="10451.09" x2="9068.49" y2="10451.09" gradientTransform="matrix(-0.5, -0.87, -0.58, 1, 10764.57, -2284.15)" xlink:href="#linear-gradient"/><linearGradient id="linear-gradient-72" x1="-544.78" y1="-824.71" x2="-534.28" y2="-824.71" xlink:href="#linear-gradient-42"/><linearGradient id="linear-gradient-73" x1="-544.78" y1="19669.07" x2="-534.28" y2="19669.07" gradientTransform="matrix(0.87, 0.5, 0, 0.4, 654.69, -7402.66)" xlink:href="#linear-gradient-42"/><linearGradient id="linear-gradient-74" x1="-544.78" y1="19719.89" x2="-534.28" y2="19719.89" gradientTransform="matrix(0.87, 0.5, 0, 0.4, 654.69, -7402.66)" xlink:href="#linear-gradient-42"/><linearGradient id="linear-gradient-75" x1="182.64" y1="225.93" x2="192.51" y2="225.93" gradientTransform="matrix(1, 0, 0, -1, 0, 422)" xlink:href="#linear-gradient-42"/><linearGradient id="linear-gradient-76" x1="182.64" y1="215.12" x2="192.51" y2="215.12" gradientTransform="matrix(1, 0, 0, -1, 0, 422)" xlink:href="#linear-gradient-42"/><linearGradient id="linear-gradient-77" x1="182.64" y1="205.61" x2="192.51" y2="205.61" gradientTransform="matrix(1, 0, 0, -1, 0, 422)" xlink:href="#linear-gradient-42"/><linearGradient id="linear-gradient-78" x1="230.16" y1="222.29" x2="258.87" y2="222.29" gradientTransform="matrix(1, 0, 0, -1, 0, 422)" xlink:href="#linear-gradient-42"/><linearGradient id="linear-gradient-79" x1="226.7" y1="172.62" x2="226.7" y2="224.36" gradientTransform="matrix(1, 0, 0, -1, 0, 422)" gradientUnits="userSpaceOnUse"><stop offset="0" stop-color="#37b380"/><stop offset="1" stop-color="#7bc388"/></linearGradient><linearGradient id="linear-gradient-80" x1="137.58" y1="274.09" x2="157.32" y2="274.09" xlink:href="#linear-gradient-79"/><linearGradient id="linear-gradient-81" x1="-599.14" y1="-818.83" x2="-576.51" y2="-818.83" xlink:href="#linear-gradient-42"/><linearGradient id="linear-gradient-82" x1="135.56" y1="245.96" x2="156.05" y2="245.96" gradientTransform="matrix(1, 0, 0, -1, 0, 422)" xlink:href="#linear-gradient-42"/><linearGradient id="linear-gradient-83" x1="-476.36" y1="-881.54" x2="-473.11" y2="-881.54" gradientTransform="matrix(0.87, 0.5, 0, -1.15, 666.19, -522.97)" xlink:href="#linear-gradient-42"/><linearGradient id="linear-gradient-84" x1="-476.43" y1="-954" x2="-473.18" y2="-954" gradientTransform="matrix(0.87, 0.5, 0, -1.15, 666.19, -522.97)" xlink:href="#linear-gradient-42"/><linearGradient id="linear-gradient-85" x1="-612.4" y1="-881.28" x2="-609.15" y2="-881.28" gradientTransform="matrix(0.87, 0.5, 0, -1.15, 666.19, -522.97)" xlink:href="#linear-gradient-42"/><linearGradient id="linear-gradient-86" x1="-612.47" y1="-953.74" x2="-609.22" y2="-953.74" gradientTransform="matrix(0.87, 0.5, 0, -1.15, 666.19, -522.97)" xlink:href="#linear-gradient-42"/><linearGradient id="linear-gradient-87" x1="-544.4" y1="-953.76" x2="-541.15" y2="-953.76" gradientTransform="matrix(0.87, 0.5, 0, -1.15, 666.19, -522.97)" xlink:href="#linear-gradient-42"/><linearGradient id="linear-gradient-88" x1="195.21" y1="210.62" x2="196.39" y2="210.62" gradientTransform="matrix(1, 0, 0, -1, 0, 422)" xlink:href="#linear-gradient"/><linearGradient id="linear-gradient-89" x1="-547.62" y1="-872.42" x2="-529.87" y2="-872.42" gradientTransform="matrix(0.87, 0.5, 0, -1.15, 670.92, -530.27)" xlink:href="#linear-gradient"/><linearGradient id="linear-gradient-90" x1="-547.62" y1="-881.31" x2="-529.87" y2="-881.31" gradientTransform="matrix(0.87, 0.5, 0, -1.15, 670.92, -530.27)" xlink:href="#linear-gradient"/><linearGradient id="linear-gradient-91" x1="-548.98" y1="-882.49" x2="-531.23" y2="-882.49" gradientTransform="matrix(0.87, 0.5, 0, -1.15, 670.92, -530.27)" xlink:href="#linear-gradient"/><linearGradient id="linear-gradient-92" x1="207.42" y1="207.28" x2="214.94" y2="202.94" gradientTransform="matrix(1, 0, 0, -1, 0, 422)" xlink:href="#linear-gradient"/><linearGradient id="linear-gradient-93" x1="130.06" y1="190.6" x2="156.05" y2="190.6" gradientTransform="matrix(1, 0, 0, -1, 0, 422)" xlink:href="#linear-gradient-2"/><linearGradient id="linear-gradient-94" x1="125.46" y1="184.41" x2="130.06" y2="184.41" gradientTransform="matrix(1, 0, 0, -1, 0, 422)" xlink:href="#linear-gradient-2"/><linearGradient id="linear-gradient-95" x1="156.05" y1="179.3" x2="227.61" y2="179.3" gradientTransform="matrix(1, 0, 0, -1, 0, 422)" xlink:href="#linear-gradient-2"/><linearGradient id="linear-gradient-96" x1="154.42" y1="178.31" x2="226.16" y2="178.31" gradientTransform="matrix(1, 0, 0, -1, 0, 422)" xlink:href="#linear-gradient-4"/><linearGradient id="linear-gradient-97" x1="114.78" y1="640.31" x2="140.94" y2="640.31" xlink:href="#linear-gradient"/><linearGradient id="linear-gradient-98" x1="122.91" y1="640.31" x2="132.82" y2="640.31" gradientTransform="matrix(0.5, 0.86, 0.86, -0.5, -406.29, 483.62)" xlink:href="#linear-gradient"/><linearGradient id="linear-gradient-99" x1="206.42" y1="144.97" x2="211.03" y2="144.97" gradientTransform="matrix(1, 0, 0, -1, 0, 422)" xlink:href="#linear-gradient-2"/><linearGradient id="linear-gradient-100" x1="165.51" y1="171.43" x2="170.12" y2="171.43" gradientTransform="matrix(1, 0, 0, -1, 0, 422)" xlink:href="#linear-gradient-2"/><linearGradient id="linear-gradient-101" x1="163.74" y1="171.2" x2="168.35" y2="171.2" gradientTransform="matrix(1, 0, 0, -1, 0, 422)" xlink:href="#linear-gradient-2"/><linearGradient id="linear-gradient-102" x1="85.17" y1="666.27" x2="111.16" y2="666.27" xlink:href="#linear-gradient-2"/><linearGradient id="linear-gradient-103" x1="124.62" y1="626.79" x2="124.62" y2="639.73" xlink:href="#linear-gradient"/><linearGradient id="linear-gradient-104" x1="124.05" y1="633.15" x2="125.58" y2="633.15" xlink:href="#linear-gradient"/><linearGradient id="linear-gradient-105" x1="43.77" y1="667" x2="43.77" y2="679.93" xlink:href="#linear-gradient"/><linearGradient id="linear-gradient-106" x1="43.19" y1="673.39" x2="44.73" y2="673.39" xlink:href="#linear-gradient"/><linearGradient id="linear-gradient-107" x1="164.3" y1="207.56" x2="144.62" y2="196.2" gradientTransform="matrix(1, 0, 0, -1, 0, 422)" xlink:href="#linear-gradient-2"/><linearGradient id="linear-gradient-108" x1="42.28" y1="674.35" x2="147.58" y2="674.35" xlink:href="#linear-gradient-2"/><linearGradient id="linear-gradient-109" x1="211.03" y1="149.31" x2="230.76" y2="149.31" gradientTransform="matrix(1, 0, 0, -1, 0, 422)" xlink:href="#linear-gradient-2"/><linearGradient id="linear-gradient-110" x1="212.91" y1="141.08" x2="228.89" y2="141.08" gradientTransform="matrix(1, 0, 0, -1, 0, 422)" xlink:href="#linear-gradient-4"/><linearGradient id="linear-gradient-111" x1="212.91" y1="157.04" x2="228.89" y2="157.04" gradientTransform="matrix(1, 0, 0, -1, 0, 422)" xlink:href="#linear-gradient-4"/><linearGradient id="linear-gradient-112" x1="225.95" y1="155.48" x2="228.89" y2="155.48" gradientTransform="matrix(1, 0, 0, -1, 0, 422)" xlink:href="#linear-gradient-4"/><linearGradient id="linear-gradient-113" x1="225.95" y1="150.68" x2="228.89" y2="150.68" gradientTransform="matrix(1, 0, 0, -1, 0, 422)" xlink:href="#linear-gradient-4"/><linearGradient id="linear-gradient-114" x1="212.91" y1="141.38" x2="227.85" y2="141.38" gradientTransform="matrix(1, 0, 0, -1, 0, 422)" xlink:href="#linear-gradient-2"/><linearGradient id="linear-gradient-115" x1="212.91" y1="157.64" x2="227.85" y2="157.64" gradientTransform="matrix(1, 0, 0, -1, 0, 422)" xlink:href="#linear-gradient-2"/><linearGradient id="linear-gradient-116" x1="225.95" y1="155.78" x2="227.85" y2="155.78" gradientTransform="matrix(1, 0, 0, -1, 0, 422)" xlink:href="#linear-gradient-2"/><linearGradient id="linear-gradient-117" x1="225.95" y1="150.97" x2="227.85" y2="150.97" gradientTransform="matrix(1, 0, 0, -1, 0, 422)" xlink:href="#linear-gradient-2"/></defs><g id="Layer_2" data-name="Layer 2"><g id="Layer_1-2" data-name="Layer 1-2"><ellipse class="cls-2" cx="196.65" cy="337.85" rx="61.03" ry="105.7" transform="translate(-142.27 532.67) rotate(-89.69)"/><path class="cls-3" d="M257.83,103.35,152.35,42.43c-5.12-2.94-9.83-3.36-13.59-1.71h0l-2.06,1.21L103.83,61h0c-5,2.56-8.29,9-8.29,18.38v184c0,16.48,10,35.59,22.36,42.72l105.49,60.91c5.83,3.36,11.14,3.44,15.11.89l.08-.06,33.57-19.52.15-.06c4.85-2.67,7.92-9.06,7.92-18.19V146.07C280.19,129.6,270.18,110.47,257.83,103.35Z"/><path class="cls-4" d="M232.28,369.62a17.94,17.94,0,0,1-8.89-2.68L117.9,306c-12.36-7.12-22.36-26.28-22.36-42.72V79.36c0-8.94,3-15.62,8.16-18.31l.42-.22h.08l.3-.13A11.61,11.61,0,0,1,107,60a12.17,12.17,0,0,1,2-.16,18,18,0,0,1,8.93,2.68l105.45,60.86c12.33,7.11,22.37,26.28,22.37,42.72V350c0,6.79-1.76,12.42-5,15.85a12.39,12.39,0,0,1-2.28,1.94A11.39,11.39,0,0,1,232.28,369.62Z"/><path class="cls-5" d="M232.28,367.65a16,16,0,0,1-7.9-2.42L118.89,304.32c-11.79-6.8-21.38-25.2-21.38-41V79.36c0-8.1,2.65-14.26,7.1-16.58h.3l.35-.3a9.19,9.19,0,0,1,2.06-.6,10.24,10.24,0,0,1,1.66-.14,16.16,16.16,0,0,1,7.93,2.42l105.5,60.91c11.78,6.8,21.37,25.2,21.37,41V350c0,6.29-1.57,11.44-4.43,14.5a9.63,9.63,0,0,1-1.91,1.63,9.42,9.42,0,0,1-5.16,1.48Z"/><path class="cls-6" d="M243.77,336v14c0,6.28-1.56,11.43-4.42,14.5a9.31,9.31,0,0,1-7.08,3.1,16,16,0,0,1-7.88-2.41l-105.5-60.92c-11.78-6.8-21.38-25.2-21.38-41V79.36c0-8.1,2.65-14.24,7.09-16.58h.3l.36-.29a8.52,8.52,0,0,1,2.09-.62,11.6,11.6,0,0,1,1.66-.13,16,16,0,0,1,7.9,2.41l16.17,9.34V242.28c0,16.49,10,35.61,22.36,42.72Z"/><path class="cls-7" d="M226.83,310v16.2l-35.22,20.08-29.91-28L150,304.68l35.58-20.41a1.69,1.69,0,0,1,1.64.18L224.51,306A5.1,5.1,0,0,1,226.83,310Z"/><path class="cls-8" d="M189.45,326.14l-37.61-21.72c-1.2-.68-2.17,0-2.17,1.64v16l42,24.22v-16A5.22,5.22,0,0,0,189.45,326.14Z"/><path class="cls-9" d="M151.4,323.09V306.9c0-.43.26-.63.58-.44L189.34,328a1.39,1.39,0,0,1,.59,1.12v16.19Z"/><g class="cls-10"><path class="cls-11" d="M164.6,265.54c0-7.34-5.19-16.29-11.59-20-3.21-1.86-6.13-2.06-8.24-.83h0L108.31,265.2l16.49,28.2L161.14,273C163.27,271.83,164.6,269.24,164.6,265.54Z"/><path class="cls-12" d="M164.6,74.27c0-7.35-5.19-16.28-11.59-20-3.21-1.86-6.13-2.06-8.24-.82h0L108.31,73.93l16.49,28.2,36.35-20.4.08,0h0C163.32,80.48,164.6,77.91,164.6,74.27Z"/><path class="cls-13" d="M164.6,169.9c0-7.34-5.19-16.28-11.59-20-3.33-1.92-6.33-2.06-8.45-.69l-36.25,20.36,16.49,28.2,36.45-20.45h0C163.32,176.12,164.6,173.56,164.6,169.9Z"/><path class="cls-14" d="M116.73,265.9c-6.4-3.69-11.61-.74-11.61,6.6s5.21,16.3,11.61,20,11.59.74,11.59-6.61S123.13,269.6,116.73,265.9Z"/><path class="cls-15" d="M116.73,272c-3.44-2-6.26-.41-6.26,3.56a13.79,13.79,0,0,0,6.26,10.8c3.46,2,6.26.41,6.26-3.57A13.73,13.73,0,0,0,116.73,272Z"/><path class="cls-16" d="M116.73,170.27c-6.4-3.69-11.61-.74-11.61,6.6s5.21,16.29,11.61,20,11.59.74,11.59-6.6S123.13,174,116.73,170.27Z"/><ellipse class="cls-17" cx="116.73" cy="183.57" rx="5.1" ry="8.82" transform="translate(-76.69 84) rotate(-30.31)"/><path class="cls-18" d="M116.73,74.64c-6.4-3.7-11.61-.75-11.61,6.59s5.21,16.3,11.61,20,11.59.73,11.59-6.61S123.13,78.33,116.73,74.64Z"/><path class="cls-19" d="M116.73,80.75c-3.44-2-6.26-.4-6.26,3.57a13.79,13.79,0,0,0,6.26,10.8c3.46,2,6.26.4,6.26-3.58A13.77,13.77,0,0,0,116.73,80.75Z"/><path class="cls-20" d="M194.24,270.34a10.17,10.17,0,0,0-4.6-7.95,3.27,3.27,0,0,0-3.27-.32h0l-6.27,3.44,6.56,11.21,6.22-3.39A3.25,3.25,0,0,0,194.24,270.34Z"/><path class="cls-21" d="M217.73,283.9a10.19,10.19,0,0,0-4.61-7.95,3.23,3.23,0,0,0-3.27-.32h0l-6.28,3.43,6.56,11.21,6.23-3.38A3.29,3.29,0,0,0,217.73,283.9Z"/><path class="cls-22" d="M183.46,265.76c-2.54-1.47-4.61-.3-4.61,2.62a10.14,10.14,0,0,0,4.61,7.95c2.55,1.47,4.61.29,4.61-2.63A10.12,10.12,0,0,0,183.46,265.76Z"/><path class="cls-23" d="M183.46,268.21c-1.37-.79-2.48-.16-2.48,1.42a5.5,5.5,0,0,0,2.48,4.29c1.38.79,2.49.16,2.49-1.42A5.5,5.5,0,0,0,183.46,268.21Z"/><path class="cls-24" d="M206.93,279.33c-2.54-1.47-4.61-.3-4.61,2.62a10.17,10.17,0,0,0,4.61,7.95c2.55,1.47,4.61.3,4.61-2.62A10.13,10.13,0,0,0,206.93,279.33Z"/><path class="cls-25" d="M206.93,281.76c-1.37-.8-2.49-.16-2.49,1.42a5.51,5.51,0,0,0,2.49,4.29c1.37.8,2.49.16,2.49-1.42A5.48,5.48,0,0,0,206.93,281.76Z"/><path class="cls-26" d="M272.44,327.81c0-7.35-5.18-16.29-11.58-20-3.22-1.86-6.13-2.06-8.24-.82h0l-36.46,20.47,16.48,28.16,36.16-20.28C271,334.23,272.44,331.62,272.44,327.81Z"/><path class="cls-27" d="M272.44,232.17c0-7.34-5.18-16.29-11.58-20-3.25-1.89-6.18-2.07-8.31-.77l-36.41,20.43L232.63,260,269,239.57h0C271.16,238.39,272.44,235.82,272.44,232.17Z"/><path class="cls-28" d="M272.44,136.54c0-7.35-5.18-16.29-11.58-20-3.22-1.87-6.13-2.07-8.24-.82h0L216.16,136.2l16.48,28.2,36.18-20.3C271.05,143,272.44,140.34,272.44,136.54Z"/><path class="cls-29" d="M224.58,328.17c-6.4-3.7-11.6-.75-11.6,6.59s5.2,16.31,11.6,20,11.58.74,11.58-6.61S231,331.87,224.58,328.17Z"/><path class="cls-30" d="M224.58,334.28c-3.44-2-6.26-.4-6.26,3.58a13.77,13.77,0,0,0,6.26,10.79c3.46,2,6.26.4,6.26-3.57A13.78,13.78,0,0,0,224.58,334.28Z"/><path class="cls-31" d="M224.58,232.54c-6.4-3.7-11.6-.75-11.6,6.59s5.2,16.3,11.6,20,11.58.75,11.58-6.6S231,236.22,224.58,232.54Z"/><path class="cls-32" d="M224.58,238.65c-3.44-2-6.26-.4-6.26,3.57A13.77,13.77,0,0,0,224.58,253c3.46,2,6.26.41,6.26-3.56A13.78,13.78,0,0,0,224.58,238.65Z"/><path class="cls-33" d="M224.58,136.9c-6.4-3.69-11.6-.75-11.6,6.6s5.2,16.3,11.6,20,11.58.74,11.58-6.6S231,140.6,224.58,136.9Z"/><path class="cls-34" d="M224.58,143c-3.44-2-6.26-.41-6.26,3.56a13.79,13.79,0,0,0,6.26,10.8c3.46,2,6.26.41,6.26-3.57A13.76,13.76,0,0,0,224.58,143Z"/><path class="cls-35" d="M196.15,247.64V267l64.76,37.38v-74.3l-64.76-37.38v37.7l5.26,3v2.67l-1.32-.76v-1.18l-3.94-2.27v4.77l3.94,2.28v-1.15l1.32.77v2.66l-5.26-3v1.62l5.26,3v2.66l-1.32-.76V243.6l-3.94-2.27v4.76l3.94,2.28v-1.14l1.32.76v2.66Zm3,9.91a4.63,4.63,0,0,1-2.09-3.62c0-1.32.94-1.86,2.09-1.19a4.63,4.63,0,0,1,2.11,3.62c0,1.33-.94,1.84-2.11,1.19Z"/><path class="cls-35" d="M261,237.05V198.18L131,123.09V272.33L261,347.42V271.68l-10.57-6.1v-5.32l2.66,1.54v2.3l7.91,4.57v-9.62l-7.91-4.57v2.29l-2.66-1.53v-5.35L261,256v-3.26l-10.57-6.1v-5.35l2.66,1.53v2.29l7.91,4.57V240.1l-7.91-4.57v2.3l-2.66-1.53v-5.36ZM255,217.12a9.3,9.3,0,0,1,4.21,7.27c0,2.67-1.89,3.75-4.21,2.41a9.27,9.27,0,0,1-4.22-7.28c0-2.66,1.89-3.73,4.22-2.39Z"/><polygon class="cls-36" points="156.85 168.67 137.58 157.54 137.58 127.43 156.85 138.56 156.85 168.67"/><ellipse class="cls-37" cx="136.91" cy="269.53" rx="1.96" ry="3.39" transform="translate(-117.31 105.94) rotate(-30.31)"/><ellipse class="cls-38" cx="195.87" cy="303.56" rx="1.96" ry="3.39" transform="translate(-126.43 140.35) rotate(-30.31)"/><ellipse class="cls-39" cx="254.82" cy="337.61" rx="1.96" ry="3.39" transform="translate(-135.55 174.75) rotate(-30.31)"/><ellipse class="cls-40" cx="254.88" cy="254.36" rx="1.96" ry="3.39" transform="matrix(0.86, -0.5, 0.5, 0.86, -93.53, 163.4)"/><ellipse class="cls-41" cx="136.14" cy="186.02" rx="1.95" ry="3.37" transform="matrix(0.86, -0.5, 0.5, 0.86, -75.05, 93.63)"/><ellipse class="cls-42" cx="137.01" cy="259.64" rx="1.38" ry="2.4" transform="translate(-112.31 104.64) rotate(-30.31)"/><polygon class="cls-43" points="140.73 162.84 140.73 167.15 139.62 166.51 139.62 162.21 140.73 162.84"/><polygon class="cls-44" points="140.73 164.31 140.73 165.69 139.62 165.05 139.62 163.67 140.73 164.31"/><polygon class="cls-43" points="144.88 165.24 144.88 169.55 143.78 168.91 143.78 164.61 144.88 165.24"/><polygon class="cls-44" points="144.88 166.7 144.88 168.08 143.78 167.44 143.78 166.07 144.88 166.7"/><polygon class="cls-43" points="149.03 167.64 149.03 171.94 147.94 171.31 147.94 167 149.03 167.64"/><polygon class="cls-44" points="149.03 169.11 149.03 170.48 147.94 169.84 147.94 168.47 149.03 169.11"/><polygon class="cls-43" points="153.19 170.03 153.19 174.34 152.09 173.7 152.09 169.4 153.19 170.03"/><polygon class="cls-44" points="153.19 171.5 153.19 172.88 152.09 172.24 152.09 170.87 153.19 171.5"/><polygon class="cls-43" points="140.73 177.58 140.73 181.88 139.62 181.25 139.62 176.94 140.73 177.58"/><polygon class="cls-44" points="140.73 179.04 140.73 180.42 139.62 179.78 139.62 178.41 140.73 179.04"/><polygon class="cls-43" points="144.88 179.97 144.88 184.28 143.78 183.64 143.78 179.34 144.88 179.97"/><polygon class="cls-44" points="144.88 181.44 144.88 182.82 143.78 182.18 143.78 180.81 144.88 181.44"/><polygon class="cls-43" points="149.03 182.37 149.03 186.68 147.94 186.04 147.94 181.74 149.03 182.37"/><polygon class="cls-44" points="149.03 183.84 149.03 185.22 147.94 184.58 147.94 183.2 149.03 183.84"/><polygon class="cls-43" points="153.19 184.77 153.19 189.08 152.09 188.44 152.09 184.14 153.19 184.77"/><polygon class="cls-44" points="153.19 186.24 153.19 187.61 152.09 186.97 152.09 185.6 153.19 186.24"/><polygon class="cls-45" points="154.1 141.05 137.58 131.52 137.58 130.36 154.1 139.88 154.1 141.05"/><polygon class="cls-45" points="201.22 163.26 201.22 186.82 197.57 184.73 189.8 180.26 186.15 178.17 186.15 154.61 201.22 163.26"/><polygon class="cls-46" points="201.11 186.72 186.04 178.02 186.04 160.73 201.11 169.43 201.11 186.72"/><polygon class="cls-47" points="200.1 187.28 185.03 178.58 185.03 161.29 200.1 169.99 200.1 187.28"/><path class="cls-48" d="M153.49,165.07l-12.72-7.34a4.23,4.23,0,0,1-1.92-3.3V139.82c0-1.21.86-1.7,1.92-1.09l12.72,7.35a4.23,4.23,0,0,1,1.92,3.3V164C155.41,165.2,154.55,165.69,153.49,165.07Z"/><polygon class="cls-45" points="216.04 237.33 216.04 197.93 236.91 209.98 236.91 249.38 216.04 237.33"/><polygon class="cls-45" points="216.5 237.04 216.5 197.64 237.37 209.69 237.37 249.09 216.5 237.04"/><polygon class="cls-49" points="216.91 236.83 216.91 199.43 236.04 210.47 236.04 247.87 216.91 236.83"/><path class="cls-48" d="M218.64,233.64v-29c0-1.21.85-1.69,1.91-1.08l11.86,6.87a4.16,4.16,0,0,1,1.9,3.28v29c0,1.21-.85,1.69-1.9,1.09l-11.86-6.87A4.17,4.17,0,0,1,218.64,233.64Z"/><polygon class="cls-50" points="215.78 237.41 215.78 200.02 234.91 211.07 234.91 248.46 215.78 237.41"/><path class="cls-48" d="M217.51,234.22v-29c0-1.2.85-1.69,1.9-1.09L231.28,211a4.22,4.22,0,0,1,1.9,3.29v29c0,1.21-.85,1.7-1.9,1.09l-11.87-6.87A4.22,4.22,0,0,1,217.51,234.22Z"/><polygon class="cls-51" points="192.51 214.49 183.42 209.25 183.42 198.82 192.51 204.07 192.51 214.49"/><polygon class="cls-52" points="192.51 196.65 183.42 191.4 183.42 195.05 192.51 200.29 192.51 196.65"/><polygon class="cls-53" points="192.51 216.97 183.42 211.72 183.42 215.37 192.51 220.62 192.51 216.97"/><polygon class="cls-54" points="258.87 214.94 231.4 199.09 231.4 183.79 258.87 199.64 258.87 214.94"/><polygon class="cls-55" points="257.62 215.64 230.16 199.79 230.16 184.49 257.62 200.34 257.62 215.64"/><polygon class="cls-56" points="197.81 161.32 197.81 164.17 190.04 159.7 190.04 156.84 197.81 161.32"/><polygon class="cls-57" points="208.63 180 209.14 179.71 209.14 175.17 208.63 175.45 208.63 180"/><polygon class="cls-58" points="204.67 173.17 208.63 175.45 209.14 175.17 205.18 172.88 204.67 173.17"/><polygon class="cls-59" points="208.63 180 204.67 177.71 204.67 173.17 208.63 175.45 208.63 180"/><polygon class="cls-60" points="182.94 165.16 183.45 164.88 183.45 160.33 182.94 160.62 182.94 165.16"/><polygon class="cls-61" points="178.99 158.34 182.94 160.62 183.45 160.33 179.49 158.05 178.99 158.34"/><polygon class="cls-62" points="182.94 165.16 178.99 162.88 178.99 158.34 182.94 160.62 182.94 165.16"/><polygon class="cls-45" points="240.53 330.62 201.97 308.36 201.97 299.32 240.53 321.58 240.53 330.62"/><ellipse class="cls-63" cx="238.11" cy="324.71" rx="1.24" ry="2.16" transform="translate(-131.33 164.56) rotate(-30.31)"/><ellipse class="cls-64" cx="204.38" cy="305.23" rx="1.24" ry="2.16" transform="translate(-126.11 144.87) rotate(-30.31)"/><ellipse class="cls-65" cx="208.6" cy="307.67" rx="1.24" ry="2.16" transform="matrix(0.86, -0.5, 0.5, 0.86, -126.76, 147.33)"/><ellipse class="cls-66" cx="211.15" cy="309.77" rx="1.24" ry="2.15" transform="translate(-127.09 148.1) rotate(-30.17)"/><ellipse class="cls-67" cx="217.03" cy="312.53" rx="1.24" ry="2.16" transform="matrix(0.86, -0.5, 0.5, 0.86, -128.06, 152.25)"/><ellipse class="cls-68" cx="221.24" cy="314.97" rx="1.24" ry="2.16" transform="translate(-128.72 154.71) rotate(-30.31)"/><ellipse class="cls-69" cx="225.46" cy="317.4" rx="1.24" ry="2.16" transform="translate(-129.37 157.17) rotate(-30.31)"/><ellipse class="cls-70" cx="229.68" cy="319.85" rx="1.24" ry="2.16" transform="translate(-130.02 159.63) rotate(-30.31)"/><ellipse class="cls-71" cx="233.89" cy="322.28" rx="1.24" ry="2.16" transform="translate(-130.67 162.09) rotate(-30.31)"/><polygon class="cls-45" points="243.75 317.66 240.53 321.58 240.53 330.62 243.75 330.85 246.16 329.45 246.16 316.27 243.75 317.66"/><polygon class="cls-72" points="240.53 321.58 243.75 317.66 205.2 295.42 201.97 299.32 240.53 321.58"/><polygon class="cls-72" points="207.6 294.03 205.2 295.42 243.75 317.66 246.16 316.27 207.6 294.03"/><polygon class="cls-45" points="181.57 296.58 143.02 274.32 143.02 265.29 181.57 287.54 181.57 296.58"/><ellipse class="cls-73" cx="179.16" cy="290.68" rx="1.24" ry="2.16" transform="translate(-122.21 130.15) rotate(-30.31)"/><ellipse class="cls-74" cx="144.17" cy="270.68" rx="1.24" ry="2.15" transform="translate(-116.52 109.14) rotate(-30.17)"/><ellipse class="cls-75" cx="149.64" cy="273.63" rx="1.24" ry="2.16" transform="translate(-117.64 112.92) rotate(-30.31)"/><ellipse class="cls-76" cx="153.87" cy="276.07" rx="1.24" ry="2.16" transform="translate(-118.29 115.39) rotate(-30.31)"/><ellipse class="cls-77" cx="158.08" cy="278.5" rx="1.24" ry="2.16" transform="translate(-118.94 117.85) rotate(-30.31)"/><ellipse class="cls-78" cx="162.3" cy="280.94" rx="1.24" ry="2.16" transform="translate(-119.6 120.31) rotate(-30.31)"/><ellipse class="cls-79" cx="166.52" cy="283.37" rx="1.24" ry="2.16" transform="translate(-120.25 122.77) rotate(-30.31)"/><ellipse class="cls-80" cx="170.74" cy="285.81" rx="1.24" ry="2.16" transform="translate(-120.9 125.23) rotate(-30.31)"/><ellipse class="cls-81" cx="174.95" cy="288.24" rx="1.24" ry="2.16" transform="translate(-121.56 127.7) rotate(-30.31)"/><polygon class="cls-45" points="184.8 283.63 181.57 287.54 181.57 296.58 184.8 296.82 187.21 295.42 187.21 282.23 184.8 283.63"/><polygon class="cls-72" points="181.57 287.54 184.8 283.63 146.25 261.38 143.02 265.29 181.57 287.54"/><polygon class="cls-72" points="148.66 260 146.25 261.38 184.8 283.63 187.21 282.23 148.66 260"/><polygon class="cls-82" points="215.78 200.02 216.91 199.43 236.04 210.47 236.04 247.87 234.91 248.46 234.91 211.07 215.78 200.02"/><polygon class="cls-82" points="200.1 187.28 200.1 169.99 185.03 161.29 186.15 160.73 201.22 169.43 201.22 186.72 200.1 187.28"/><polygon class="cls-83" points="191.73 214.94 182.64 209.69 182.64 199.26 191.73 204.5 191.73 214.94"/><polygon class="cls-84" points="191.73 197.09 182.64 191.84 182.64 195.49 191.73 200.73 191.73 197.09"/><polygon class="cls-85" points="191.73 217.42 182.64 212.17 182.64 215.81 191.73 221.06 191.73 217.42"/><polygon class="cls-86" points="182.64 191.84 183.42 191.4 192.51 196.65 192.51 200.29 191.73 200.73 191.73 197.09 182.64 191.84"/><polygon class="cls-87" points="182.64 199.26 183.42 198.82 192.51 204.07 192.51 214.49 191.73 214.94 191.73 204.5 182.64 199.26"/><polygon class="cls-88" points="248.28 227.19 244.73 225.13 244.73 214.7 248.28 216.76 248.28 227.19"/><polygon class="cls-89" points="244.73 214.7 246.5 213.69 250.06 215.76 250.06 226.19 248.28 227.19 248.28 216.76 244.73 214.7"/><polygon class="cls-90" points="182.64 212.17 191.73 217.42 191.73 221.06 192.51 220.62 192.51 216.97 183.42 211.72 182.64 212.17"/><polygon class="cls-91" points="230.16 184.49 231.4 183.79 258.87 199.64 258.87 214.94 257.62 215.64 257.62 200.34 230.16 184.49"/><polygon class="cls-92" points="236.91 249.38 237.37 249.09 237.37 209.69 216.5 197.64 216.04 197.93 236.91 209.98 236.91 249.38"/><polygon class="cls-93" points="156.85 168.67 157.32 168.4 157.32 138.28 138.04 127.16 137.58 127.43 156.85 138.56 156.85 168.67"/><polygon class="cls-94" points="155.16 187.41 135.56 176.09 135.56 165.18 155.16 176.49 155.16 187.41"/><polygon class="cls-95" points="135.56 165.18 136.45 164.68 156.05 175.99 156.05 186.91 155.16 187.41 155.16 176.49 135.56 165.18"/><polygon class="cls-96" points="256.19 254.97 254.96 254.26 254.96 252.85 254.61 252.65 254.61 254.06 253.38 253.35 253.38 253.75 254.61 254.46 254.61 255.88 254.96 256.07 254.96 254.66 256.19 255.37 256.19 254.97"/><polygon class="cls-97" points="256.13 338.27 254.9 337.55 254.9 336.14 254.55 335.94 254.55 337.35 253.32 336.64 253.32 337.04 254.55 337.75 254.55 339.17 254.9 339.37 254.9 337.95 256.13 338.67 256.13 338.27"/><polygon class="cls-98" points="138.38 186.96 137.15 186.25 137.15 184.84 136.8 184.64 136.8 186.05 135.56 185.34 135.56 185.74 136.8 186.45 136.8 187.87 137.15 188.07 137.15 186.65 138.38 187.36 138.38 186.96"/><polygon class="cls-99" points="138.32 270.26 137.09 269.55 137.09 268.13 136.74 267.93 136.74 269.35 135.51 268.63 135.51 269.03 136.74 269.75 136.74 271.16 137.09 271.36 137.09 269.94 138.32 270.66 138.32 270.26"/><polygon class="cls-100" points="197.26 304.17 196.04 303.45 196.04 302.04 195.69 301.84 195.69 303.25 194.46 302.54 194.46 302.94 195.69 303.65 195.69 305.07 196.04 305.27 196.04 303.85 197.26 304.57 197.26 304.17"/><polygon class="cls-101" points="195.21 202.91 196.39 202.22 196.39 219.87 195.21 220.54 195.21 202.91"/><path class="cls-102" d="M196.39,198.32v3.9l15.37,8.88v-3.91Zm2.65,4.29a2,2,0,0,1-.93-1.56c0-.57.41-.8.9-.52a2,2,0,0,1,.9,1.56C199.94,202.66,199.54,202.89,199,202.61Zm3.36,1.94a2,2,0,0,1-.9-1.56c0-.57.4-.8.9-.51a2,2,0,0,1,.9,1.55c0,.59-.38.8-.9.52Zm3.36,1.93a2,2,0,0,1-.9-1.55c0-.57.4-.8.9-.51a2,2,0,0,1,.9,1.55c0,.58-.4.8-.9.51Zm3.36,2a2,2,0,0,1-.9-1.56c0-.57.4-.81.9-.52a2,2,0,0,1,.9,1.56c0,.57-.4.83-.92.52Z"/><path class="cls-103" d="M208.83,209.43l-1.07-1.76-7.37-4.25-1.06.53-2.94-1.7v17.64L208.72,227l1.65-.68,1.37.8v-16Zm-9.14,9.24a2.52,2.52,0,0,1-1.15-2c0-.73.51-1,1.15-.65a2.49,2.49,0,0,1,1.15,2c0,.71-.51,1-1.15.63Zm3.13,1.81a2.51,2.51,0,0,1-1.16-2c0-.72.52-1,1.16-.68a2.55,2.55,0,0,1,1.15,2c0,.73-.52,1-1.15.63Zm3.12,1.8a2.52,2.52,0,0,1-1.15-2c0-.73.51-1,1.15-.69a2.59,2.59,0,0,1,1.16,2c0,.73-.52,1-1.16.66Zm2-2.71-7.42-4.29a1.74,1.74,0,0,1-.8-1.37c0-.51.36-.69.8-.45l7.42,4.28a1.77,1.77,0,0,1,.81,1.37c0,.48-.37.69-.81.43Z"/><path class="cls-104" d="M211.3,209.82v15.53L208.72,227c0,.34-.14.57-.36.63h0a.74.74,0,0,1-.54-.12h0l-9.94-5.69a2.28,2.28,0,0,1-1-1.77V201.48a.77.77,0,0,1,.23-.61l.11-.06h0a.72.72,0,0,1,.68.1l12.4,7.15a2.34,2.34,0,0,1,1,1.49v0A.83.83,0,0,1,211.3,209.82Z"/><path class="cls-104" d="M211.28,209.6v0a2.31,2.31,0,0,0-1-1.49l-12.4-7.16a.75.75,0,0,0-.68-.1h0l-.07,0-1.14.64h0a.69.69,0,0,0-.32.69v18.54a2.24,2.24,0,0,0,1,1.76l9.9,5.72a.77.77,0,0,0,.69.06l1.13-.65a.68.68,0,0,0,.3-.62l2.58-1.63Z"/><path class="cls-104" d="M210.12,210.5V226l-2.35,1.48-.23.15a.69.69,0,0,1-.22.56.15.15,0,0,1-.09.06.68.68,0,0,1-.63-.08l-9.9-5.71a2.24,2.24,0,0,1-1-1.76V202.18c0-.64.45-.9,1-.59l.16.1,12.24,7.05A2.27,2.27,0,0,1,210.12,210.5Z"/><path class="cls-105" d="M207.65,210.12l-1.07-1.77-7.36-4.25-1.08.53-2.93-1.7v17.64l12.33,7.12,1.64-.69,1.38.81v-16Zm-9.14,9.23a2.56,2.56,0,0,1-1.16-2c0-.73.52-1,1.16-.68a2.52,2.52,0,0,1,1.15,2c0,.72-.51,1-1.15.65Zm3.12,1.81a2.52,2.52,0,0,1-1.15-2c0-.72.52-1,1.15-.65a2.56,2.56,0,0,1,1.16,2c0,.7-.52,1-1.16.61Zm3.13,1.8a2.52,2.52,0,0,1-1.15-2c0-.73.52-1,1.15-.69a2.55,2.55,0,0,1,1.15,2c0,.72-.51,1-1.15.65Zm2-2.71L199.31,216a1.74,1.74,0,0,1-.8-1.37c0-.51.36-.69.8-.45l7.42,4.28a1.77,1.77,0,0,1,.81,1.37c0,.47-.36.68-.81.43Z"/><polygon class="cls-106" points="210.59 209.23 211.76 208.56 211.76 224.55 210.59 225.22 210.59 209.23"/><polygon class="cls-107" points="156.05 236.89 151.45 234.23 151.45 208.26 156.05 210.92 156.05 236.89"/><polygon class="cls-108" points="130.06 251.89 156.05 236.88 156.05 210.91 130.06 225.92 130.06 251.89"/><polygon class="cls-109" points="130.06 225.92 125.46 223.28 125.46 249.25 130.06 251.89 130.06 225.92"/><polygon class="cls-110" points="227.62 274.46 156.05 233.18 156.05 210.94 227.62 252.23 227.62 274.46"/><polygon class="cls-111" points="226.16 275.5 154.59 234.21 154.42 211.88 226.16 253.26 226.16 275.5"/><polygon class="cls-107" points="194.45 275.49 189.56 272.66 189.56 267.05 194.45 269.88 194.45 275.49"/><path class="cls-48" d="M206.42,246.92c-2.31-1.07-5.4-.75-8.76,1.19-7.23,4.17-13.09,14.28-13.09,22.56,0,4,1.37,6.91,3.65,8.29L137,249.64c-2.06-1.47-3.33-4.23-3.33-8.07,0-8.28,5.85-18.39,13.05-22.55,3.64-2.11,6.94-2.29,9.31-.9Z"/><path class="cls-45" d="M220.37,255l-19.05,31.56-12.79-7.36-.31-.19c-2.26-1.37-3.65-4.25-3.65-8.29,0-8.28,5.86-18.39,13.09-22.56,3.36-1.94,6.45-2.26,8.76-1.19h0l.88.5.06,0Z"/><path class="cls-112" d="M224.12,263.3c0,8.29-5.85,18.39-13.05,22.56-3.37,1.94-6.43,2.26-8.76,1.21a5.74,5.74,0,0,1-1-.58c-2.06-1.45-3.34-4.24-3.34-8.08,0-8.29,5.85-18.4,13-22.57,3.55-2.06,6.77-2.28,9.12-1S224.12,259.09,224.12,263.3Z"/><ellipse class="cls-113" cx="211.03" cy="270.85" rx="6.99" ry="4.03" transform="translate(-129.3 316.35) rotate(-59.69)"/><polygon class="cls-107" points="230.76 280.02 226.16 277.36 226.16 251.4 230.76 254.06 230.76 280.02"/><polygon class="cls-114" points="211.03 265.36 211.03 291.34 206.42 288.68 206.42 262.72 211.03 265.36"/><polygon class="cls-115" points="170.12 248.88 165.51 246.22 165.51 252.25 170.12 254.91 170.12 248.88"/><polygon class="cls-116" points="168.35 249.9 163.74 247.25 163.74 251.69 168.35 254.34 168.35 249.9"/><path class="cls-117" d="M170.12,248.88l-1.77,1v4.44l1.77.57,1.49-.86A45.14,45.14,0,0,1,183,242.3a69,69,0,0,1,11.34-5.82v-1.6Z"/><path class="cls-118" d="M208.76,271.65v12.72l-.37-.21a9,9,0,0,1-1.53-5.5,19.58,19.58,0,0,1,1.55-7.23Z"/><path class="cls-119" d="M208.76,271.65v12.72a9,9,0,0,1-1.53-5.5A19.71,19.71,0,0,1,208.76,271.65Z"/><path class="cls-120" d="M127.91,231.41v12.73l-.38-.22a9.06,9.06,0,0,1-1.54-5.49,20.08,20.08,0,0,1,1.54-7.25Z"/><path class="cls-121" d="M127.91,231.41v12.73a9,9,0,0,1-1.54-5.5A20,20,0,0,1,127.91,231.41Z"/><polygon class="cls-122" points="141.89 219.12 141.89 221.08 167.03 221.13 167.03 219.16 141.89 219.12"/><path class="cls-123" d="M227.65,252.23h0l-71.6-41.29h0l-4.6-2.65-26,15,4.6,2.65,12-6.94-.2.14,25.14,0,22.67,13.05-25.94,15,4.61,2.65,26-15L212,245.06l.08,14.42-5.59,3.21,4.61,2.64,19.71-11.25Zm-3.08.1-.12-.07Z"/><polygon class="cls-124" points="211.03 291.33 230.76 280.01 230.76 254.05 211.03 265.37 211.03 291.33"/><polygon class="cls-125" points="228.89 273.94 228.89 276.66 227.13 279.69 212.91 287.9 212.91 283.17 227.85 274.55 228.89 273.94"/><polygon class="cls-126" points="228.89 259.5 228.89 262.2 212.91 271.43 212.91 266.7 227.13 258.49 227.85 258.9 228.89 259.5"/><polygon class="cls-127" points="228.89 264.32 228.89 267.02 225.94 268.71 225.94 266.02 227.85 264.92 228.89 264.32"/><polygon class="cls-128" points="228.89 269.13 228.89 271.83 225.94 273.52 225.94 270.83 227.85 269.74 228.89 269.13"/><polygon class="cls-129" points="227.85 274.55 227.85 276.06 226.1 279.08 212.91 286.7 212.91 283.17 227.85 274.55"/><polygon class="cls-130" points="227.85 258.9 227.85 261.6 212.91 270.23 212.91 266.7 227.13 258.49 227.85 258.9"/><polygon class="cls-131" points="227.85 264.92 227.85 266.41 225.94 267.51 225.94 266.02 227.85 264.92"/><polygon class="cls-132" points="227.85 269.74 227.85 271.21 225.94 272.32 225.94 270.83 227.85 269.74"/></g></g></g></svg>