<svg id="Layer_1" data-name="Layer 1" xmlns="http://www.w3.org/2000/svg" xmlns:xlink="http://www.w3.org/1999/xlink" viewBox="0 0 400 400"><defs><style>.cls-1{fill:none;}.cls-2{isolation:isolate;opacity:0.8;fill:url(#radial-gradient);}.cls-3{fill:url(#linear-gradient);}.cls-4{fill:url(#linear-gradient-2);}.cls-5{fill:url(#linear-gradient-3);}.cls-6{fill:url(#linear-gradient-4);}.cls-7{fill:url(#linear-gradient-5);}.cls-8{fill:url(#linear-gradient-6);}.cls-9{fill:url(#linear-gradient-7);}.cls-10{clip-path:url(#clip-path);}.cls-11{fill:url(#linear-gradient-8);}.cls-12{fill:url(#linear-gradient-9);}.cls-13{fill:url(#linear-gradient-10);}.cls-14{fill:url(#linear-gradient-11);}.cls-15{fill:url(#linear-gradient-12);}.cls-16{fill:url(#linear-gradient-13);}.cls-17{fill:url(#linear-gradient-14);}.cls-18{fill:url(#linear-gradient-15);}.cls-19{fill:url(#linear-gradient-16);}.cls-20{fill:url(#linear-gradient-17);}.cls-21{fill:url(#linear-gradient-18);}.cls-22{fill:url(#linear-gradient-19);}.cls-23{fill:url(#linear-gradient-20);}.cls-24{fill:url(#linear-gradient-21);}.cls-25{fill:url(#linear-gradient-22);}.cls-26{fill:url(#linear-gradient-23);}.cls-27{fill:url(#linear-gradient-24);}.cls-28{fill:url(#linear-gradient-25);}.cls-29{fill:url(#linear-gradient-26);}.cls-30{fill:url(#linear-gradient-27);}.cls-31{fill:url(#linear-gradient-28);}.cls-32{fill:url(#linear-gradient-29);}.cls-33{fill:url(#linear-gradient-30);}.cls-34{fill:url(#linear-gradient-31);}.cls-35{fill:#deb525;}.cls-36{fill:url(#linear-gradient-32);}.cls-37{fill:url(#linear-gradient-33);}.cls-38{fill:url(#linear-gradient-34);}.cls-39{fill:url(#linear-gradient-35);}.cls-40{fill:url(#linear-gradient-36);}.cls-41{fill:url(#linear-gradient-37);}.cls-42{fill:#e1dad1;stroke:#e6e016;stroke-miterlimit:9.95;stroke-width:1.91px;}.cls-43{fill:#e5e4e4;}.cls-44{fill:gray;}.cls-45{fill:#30ab74;}.cls-46{fill:url(#linear-gradient-38);}.cls-47{fill:url(#linear-gradient-39);}.cls-48{fill:#fff;}.cls-49{fill:url(#linear-gradient-40);}.cls-50{fill:url(#linear-gradient-41);}.cls-51{fill:url(#linear-gradient-42);}.cls-52{fill:url(#linear-gradient-43);}.cls-53{fill:url(#linear-gradient-44);}.cls-54{fill:url(#linear-gradient-45);}.cls-55{fill:url(#linear-gradient-46);}.cls-56{fill:url(#linear-gradient-47);}.cls-57{fill:url(#linear-gradient-48);}.cls-58{fill:url(#linear-gradient-49);}.cls-59{fill:url(#linear-gradient-50);}.cls-60{fill:url(#linear-gradient-51);}.cls-61{fill:url(#linear-gradient-52);}.cls-62{fill:url(#linear-gradient-53);}.cls-63{fill:url(#linear-gradient-54);}.cls-64{fill:url(#linear-gradient-55);}.cls-65{fill:url(#linear-gradient-56);}.cls-66{fill:url(#linear-gradient-57);}.cls-67{fill:url(#linear-gradient-58);}.cls-68{fill:url(#linear-gradient-59);}.cls-69{fill:url(#linear-gradient-60);}.cls-70{fill:url(#linear-gradient-61);}.cls-71{fill:url(#linear-gradient-62);}.cls-72{fill:url(#linear-gradient-63);}.cls-73{fill:url(#linear-gradient-64);}.cls-74{fill:url(#linear-gradient-65);}.cls-75{fill:#81bf7e;}.cls-76{fill:url(#linear-gradient-66);}.cls-77{fill:url(#linear-gradient-67);}.cls-78{fill:url(#linear-gradient-68);}.cls-79{fill:url(#linear-gradient-69);}.cls-80{fill:url(#linear-gradient-70);}.cls-81{fill:url(#linear-gradient-71);}.cls-82{fill:url(#linear-gradient-72);}.cls-83{fill:url(#linear-gradient-73);}.cls-84{fill:url(#linear-gradient-74);}.cls-85{fill:#e6e016;}.cls-86{fill:url(#linear-gradient-75);}.cls-87{fill:url(#linear-gradient-76);}.cls-88{fill:url(#linear-gradient-77);}.cls-89{fill:url(#linear-gradient-78);}.cls-90{fill:url(#linear-gradient-79);}.cls-91{fill:#d0a83e;}.cls-92{fill:#a37c2c;}.cls-93{fill:url(#linear-gradient-80);}.cls-94{fill:url(#linear-gradient-81);}.cls-95{fill:url(#linear-gradient-82);}.cls-96{fill:url(#linear-gradient-83);}.cls-97{fill:url(#linear-gradient-84);}.cls-98{fill:url(#linear-gradient-85);}.cls-99{fill:url(#linear-gradient-86);}.cls-100{fill:url(#linear-gradient-87);}.cls-101{fill:url(#linear-gradient-88);}.cls-102{fill:url(#linear-gradient-89);}.cls-103{fill:url(#linear-gradient-90);}.cls-104{fill:url(#linear-gradient-91);}.cls-105{fill:url(#linear-gradient-92);}.cls-106{fill:url(#linear-gradient-93);}.cls-107{fill:#313533;}.cls-108{fill:url(#linear-gradient-94);}.cls-109{fill:url(#linear-gradient-95);}.cls-110{fill:#262724;}.cls-111{fill:url(#linear-gradient-96);}.cls-112{fill:url(#linear-gradient-97);}.cls-113{fill:url(#linear-gradient-98);}.cls-114{fill:url(#linear-gradient-99);}.cls-115{fill:url(#linear-gradient-100);}.cls-116{fill:url(#linear-gradient-101);}.cls-117{fill:url(#linear-gradient-102);}.cls-118{fill:url(#linear-gradient-103);}.cls-119{fill:url(#linear-gradient-104);}.cls-120{fill:url(#linear-gradient-105);}.cls-121{fill:#1c8654;}.cls-122{fill:url(#linear-gradient-106);}.cls-123{fill:url(#linear-gradient-107);}.cls-124{fill:url(#linear-gradient-108);}.cls-125{fill:url(#linear-gradient-109);}.cls-126{fill:url(#linear-gradient-110);}.cls-127{fill:url(#linear-gradient-111);}.cls-128{fill:url(#linear-gradient-112);}.cls-129{fill:url(#linear-gradient-113);}.cls-130{fill:url(#linear-gradient-114);}.cls-131{fill:url(#linear-gradient-115);}.cls-132{fill:url(#linear-gradient-116);}.cls-133{fill:url(#linear-gradient-117);}.cls-134{fill:url(#linear-gradient-118);}.cls-135{fill:url(#linear-gradient-119);}.cls-136{fill:url(#linear-gradient-121);}.cls-137{fill:url(#linear-gradient-122);}.cls-138{fill:url(#linear-gradient-123);}.cls-139{fill:url(#linear-gradient-124);}.cls-140{fill:url(#linear-gradient-125);}.cls-141{fill:url(#linear-gradient-126);}.cls-142{fill:url(#linear-gradient-127);}.cls-143{fill:url(#linear-gradient-128);}.cls-144{fill:url(#linear-gradient-129);}.cls-145{fill:url(#linear-gradient-130);}.cls-146{fill:url(#linear-gradient-131);}.cls-147{fill:url(#linear-gradient-132);}.cls-148{fill:url(#linear-gradient-133);}.cls-149{fill:url(#linear-gradient-134);}.cls-150{fill:url(#linear-gradient-135);}.cls-151{fill:url(#linear-gradient-136);}.cls-152{fill:url(#linear-gradient-137);}.cls-153{fill:url(#linear-gradient-138);}.cls-154{fill:url(#linear-gradient-139);}.cls-155{fill:url(#linear-gradient-140);}.cls-156{fill:url(#linear-gradient-141);}.cls-157{fill:url(#linear-gradient-142);}.cls-158{fill:url(#linear-gradient-143);}.cls-159{fill:url(#linear-gradient-144);}.cls-160{fill:url(#linear-gradient-145);}.cls-161{fill:url(#linear-gradient-146);}.cls-162{fill:url(#linear-gradient-147);}.cls-163{fill:url(#linear-gradient-148);}.cls-164{fill:url(#linear-gradient-149);}.cls-165{fill:url(#linear-gradient-150);}.cls-166{fill:url(#linear-gradient-151);}.cls-167{fill:url(#linear-gradient-152);}.cls-168{fill:url(#linear-gradient-153);}</style><radialGradient id="radial-gradient" cx="-260.09" cy="-135.78" r="118.47" gradientTransform="matrix(0.01, 1, 0.64, 0, 275.91, 585.06)" gradientUnits="userSpaceOnUse"><stop offset="0" stop-color="#969696"/><stop offset="1" stop-color="#fff"/></radialGradient><linearGradient id="linear-gradient" x1="-403.31" y1="-648.18" x2="-188.06" y2="-648.18" gradientTransform="matrix(0.56, 0.88, -0.81, 0.51, -155.34, 812.65)" gradientUnits="userSpaceOnUse"><stop offset="0" stop-color="#4e4f65"/><stop offset="1" stop-color="#2d3045"/></linearGradient><linearGradient id="linear-gradient-2" x1="-403.52" y1="-657.16" x2="-222.29" y2="-657.16" gradientTransform="matrix(0.56, 0.88, -0.81, 0.51, -155.34, 812.65)" gradientUnits="userSpaceOnUse"><stop offset="0" stop-color="#252532"/><stop offset="1" stop-color="#3f4151"/></linearGradient><linearGradient id="linear-gradient-3" x1="-401.45" y1="-657.18" x2="-224.35" y2="-657.18" xlink:href="#linear-gradient-2"/><linearGradient id="linear-gradient-4" x1="-401.45" y1="-657.17" x2="-224.36" y2="-657.17" gradientTransform="matrix(0.56, 0.88, -0.81, 0.51, -155.34, 812.65)" gradientUnits="userSpaceOnUse"><stop offset="0" stop-color="#3f4151"/><stop offset="1" stop-color="#252532"/></linearGradient><linearGradient id="linear-gradient-5" x1="-613.21" y1="-1112.96" x2="-524.18" y2="-1074.41" gradientTransform="matrix(0.89, 0.51, -0.93, 0.59, -206.97, 1109.02)" xlink:href="#linear-gradient-2"/><linearGradient id="linear-gradient-6" x1="-3409.13" y1="-1116.18" x2="-3355.46" y2="-1092.94" gradientTransform="matrix(0.89, 0.51, -1.45, 0.3, 1707.44, 2204.35)" xlink:href="#linear-gradient-2"/><linearGradient id="linear-gradient-7" x1="-3407.26" y1="-1115.73" x2="-3357.47" y2="-1094.17" gradientTransform="matrix(0.89, 0.51, -1.45, 0.3, 1707.44, 2204.35)" xlink:href="#linear-gradient-4"/><clipPath id="clip-path"><path class="cls-1" d="M378.32,186.72a21.38,21.38,0,0,0-7.27-5.81L247.91,116.27c-13.74-7.23-36.37-7.28-50.51-.11L33.29,199.48c-7.22,3.63-11,8.76-10.17,13.7l.2.26v.45a9.66,9.66,0,0,0,.82,2.09,11.51,11.51,0,0,0,1,1.52,21.35,21.35,0,0,0,7.28,5.82L155.48,288c13.75,7.23,36.38,7.28,50.52.11l164.11-83.31c5.61-2.86,9.19-6.57,10.07-10.44a8.87,8.87,0,0,0,.2-2.41,9.84,9.84,0,0,0-2.05-5.19Z"/></clipPath><linearGradient id="linear-gradient-8" x1="-373.21" y1="-710.44" x2="-314.49" y2="-710.44" xlink:href="#linear-gradient-2"/><linearGradient id="linear-gradient-9" x1="-390.56" y1="-511.45" x2="-331.88" y2="-511.45" xlink:href="#linear-gradient-2"/><linearGradient id="linear-gradient-10" x1="-381.92" y1="-610.96" x2="-323.24" y2="-610.96" xlink:href="#linear-gradient-2"/><linearGradient id="linear-gradient-11" x1="-695.81" y1="-1163.05" x2="-666.4" y2="-1163.05" gradientTransform="matrix(0.89, 0.51, -0.93, 0.59, -253.08, 1158.33)" xlink:href="#linear-gradient-2"/><linearGradient id="linear-gradient-12" x1="-689.04" y1="-1163.04" x2="-673.16" y2="-1163.04" gradientTransform="matrix(0.89, 0.51, -0.93, 0.59, -253.08, 1158.33)" gradientUnits="userSpaceOnUse"><stop offset="0" stop-color="#3f4151"/><stop offset="0.06" stop-color="#3a3c4b"/><stop offset="0.29" stop-color="#2e2f3d"/><stop offset="0.56" stop-color="#272735"/><stop offset="1" stop-color="#252532"/></linearGradient><linearGradient id="linear-gradient-13" x1="-705.83" y1="-1080.93" x2="-676.42" y2="-1080.93" gradientTransform="matrix(0.89, 0.51, -0.93, 0.59, -253.08, 1158.33)" xlink:href="#linear-gradient-2"/><linearGradient id="linear-gradient-14" x1="-373.59" y1="-628.83" x2="-357.71" y2="-637.99" gradientTransform="matrix(-0.82, 0.64, -0.59, -0.75, -534.53, -72.47)" xlink:href="#linear-gradient-12"/><linearGradient id="linear-gradient-15" x1="-715.85" y1="-998.81" x2="-686.44" y2="-998.81" gradientTransform="matrix(0.89, 0.51, -0.93, 0.59, -253.08, 1158.33)" xlink:href="#linear-gradient-2"/><linearGradient id="linear-gradient-16" x1="-709.08" y1="-998.81" x2="-693.2" y2="-998.81" xlink:href="#linear-gradient-12"/><linearGradient id="linear-gradient-17" x1="-353.19" y1="-627.34" x2="-202.73" y2="-627.34" gradientTransform="matrix(0.56, 0.88, -0.81, 0.51, -155.34, 812.65)" gradientUnits="userSpaceOnUse"><stop offset="0" stop-color="#fff"/><stop offset="1" stop-color="#d3d2d2"/></linearGradient><linearGradient id="linear-gradient-18" x1="-209.85" y1="-707.41" x2="-202.73" y2="-707.41" xlink:href="#linear-gradient-17"/><linearGradient id="linear-gradient-19" x1="-221.02" y1="-665.85" x2="-209.37" y2="-665.85" xlink:href="#linear-gradient-17"/><linearGradient id="linear-gradient-20" x1="-210.96" y1="-661.46" x2="-209.63" y2="-661.46" xlink:href="#linear-gradient-17"/><linearGradient id="linear-gradient-21" x1="-221.49" y1="-659.66" x2="-220.54" y2="-659.66" xlink:href="#linear-gradient-17"/><linearGradient id="linear-gradient-22" x1="-218.68" y1="-659.89" x2="-217.99" y2="-659.89" xlink:href="#linear-gradient-17"/><linearGradient id="linear-gradient-23" x1="-222.39" y1="-649.27" x2="-221.44" y2="-649.27" xlink:href="#linear-gradient-17"/><linearGradient id="linear-gradient-24" x1="-211.51" y1="-651.94" x2="-210.74" y2="-651.94" xlink:href="#linear-gradient-17"/><linearGradient id="linear-gradient-25" x1="-212.62" y1="-642.42" x2="-211.3" y2="-642.42" xlink:href="#linear-gradient-17"/><linearGradient id="linear-gradient-26" x1="-223.15" y1="-640.63" x2="-222.19" y2="-640.63" xlink:href="#linear-gradient-17"/><linearGradient id="linear-gradient-27" x1="-224.05" y1="-630.23" x2="-223.1" y2="-630.23" xlink:href="#linear-gradient-17"/><linearGradient id="linear-gradient-28" x1="-216.3" y1="-615" x2="-212.41" y2="-615" xlink:href="#linear-gradient-17"/><linearGradient id="linear-gradient-29" x1="-353.68" y1="-552.44" x2="-215.82" y2="-552.44" xlink:href="#linear-gradient-17"/><linearGradient id="linear-gradient-30" x1="-223.58" y1="-633.8" x2="-220.29" y2="-633.8" xlink:href="#linear-gradient-17"/><linearGradient id="linear-gradient-31" x1="-221.93" y1="-652.84" x2="-218.63" y2="-652.84" xlink:href="#linear-gradient-17"/><linearGradient id="linear-gradient-32" x1="-448.81" y1="-840.85" x2="-464.29" y2="-867.66" gradientTransform="matrix(0.89, 0.51, -0.93, 0.59, -85.62, 989.22)" xlink:href="#linear-gradient-17"/><linearGradient id="linear-gradient-33" x1="-342.94" y1="-534.16" x2="-337.84" y2="-534.16" gradientTransform="matrix(-0.82, 0.64, -0.59, -0.75, -521.22, 59.08)" xlink:href="#linear-gradient-17"/><linearGradient id="linear-gradient-34" x1="-280.67" y1="-573.7" x2="-275.58" y2="-573.7" gradientTransform="matrix(-0.82, 0.64, -0.59, -0.75, -426.82, 24.32)" xlink:href="#linear-gradient-17"/><linearGradient id="linear-gradient-35" x1="-218.4" y1="-613.25" x2="-213.31" y2="-613.25" gradientTransform="matrix(-0.82, 0.64, -0.59, -0.75, -332.44, -10.45)" xlink:href="#linear-gradient-17"/><linearGradient id="linear-gradient-36" x1="-211.25" y1="-695.68" x2="-206.14" y2="-695.68" gradientTransform="matrix(-0.82, 0.64, -0.59, -0.75, -304.77, -112.62)" xlink:href="#linear-gradient-17"/><linearGradient id="linear-gradient-37" x1="-335.78" y1="-616.59" x2="-330.68" y2="-616.59" gradientTransform="matrix(-0.82, 0.64, -0.59, -0.75, -493.56, -43.09)" xlink:href="#linear-gradient-17"/><linearGradient id="linear-gradient-38" x1="-528.46" y1="-854.17" x2="-508.32" y2="-854.17" gradientTransform="matrix(0.89, 0.51, -0.93, 0.59, -85.62, 989.22)" xlink:href="#linear-gradient-17"/><linearGradient id="linear-gradient-39" x1="-529.69" y1="-855.11" x2="-509.57" y2="-855.11" gradientTransform="matrix(0.89, 0.51, -0.93, 0.59, -85.62, 989.22)" xlink:href="#linear-gradient-17"/><linearGradient id="linear-gradient-40" x1="-583.15" y1="-828.18" x2="-556.02" y2="-828.18" gradientTransform="matrix(0.89, 0.51, -0.93, 0.59, -85.62, 989.22)" xlink:href="#linear-gradient-17"/><linearGradient id="linear-gradient-41" x1="-565.25" y1="-809.56" x2="-572.22" y2="-842.2" gradientTransform="matrix(0.89, 0.51, -0.93, 0.59, -85.62, 989.22)" xlink:href="#linear-gradient-17"/><linearGradient id="linear-gradient-42" x1="-550.95" y1="-828.39" x2="-538.8" y2="-828.39" gradientTransform="matrix(0.89, 0.51, -0.93, 0.59, -85.62, 989.22)" gradientUnits="userSpaceOnUse"><stop offset="0" stop-color="#333"/><stop offset="0.51" stop-color="#3f3e3e"/><stop offset="1" stop-color="#4f4e4e"/></linearGradient><linearGradient id="linear-gradient-43" x1="-549.77" y1="16506.09" x2="-538.31" y2="16506.09" gradientTransform="matrix(0.89, 0.51, 0.33, -0.21, -4781.84, 3965.57)" xlink:href="#linear-gradient-42"/><linearGradient id="linear-gradient-44" x1="-547.72" y1="16553.55" x2="-536.26" y2="16553.55" gradientTransform="matrix(0.89, 0.51, 0.33, -0.21, -4781.84, 3965.57)" xlink:href="#linear-gradient-42"/><linearGradient id="linear-gradient-45" x1="-594.95" y1="-855.34" x2="-559.9" y2="-855.34" xlink:href="#linear-gradient-42"/><linearGradient id="linear-gradient-46" x1="-596.32" y1="-856.45" x2="-561.29" y2="-856.45" xlink:href="#linear-gradient-42"/><linearGradient id="linear-gradient-47" x1="-276.25" y1="-701.19" x2="-267.79" y2="-701.19" xlink:href="#linear-gradient-17"/><linearGradient id="linear-gradient-48" x1="-222.68" y1="-646.81" x2="-211.03" y2="-646.81" xlink:href="#linear-gradient-17"/><linearGradient id="linear-gradient-49" x1="-220.98" y1="-634.99" x2="-212.13" y2="-634.99" xlink:href="#linear-gradient-17"/><linearGradient id="linear-gradient-50" x1="-219.32" y1="-654.04" x2="-210.47" y2="-654.04" xlink:href="#linear-gradient-17"/><linearGradient id="linear-gradient-51" x1="-257.58" y1="-698.92" x2="-256.7" y2="-698.92" xlink:href="#linear-gradient-2"/><linearGradient id="linear-gradient-52" x1="-261.77" y1="-695.32" x2="-257.1" y2="-695.32" xlink:href="#linear-gradient-2"/><linearGradient id="linear-gradient-53" x1="-505.18" y1="-856.18" x2="-499.89" y2="-856.18" gradientTransform="matrix(0.89, 0.51, -0.93, 0.59, -85.62, 989.22)" xlink:href="#linear-gradient-2"/><linearGradient id="linear-gradient-54" x1="-284.72" y1="-681.92" x2="-283.84" y2="-681.92" xlink:href="#linear-gradient-2"/><linearGradient id="linear-gradient-55" x1="-288.9" y1="-678.33" x2="-284.23" y2="-678.33" xlink:href="#linear-gradient-2"/><linearGradient id="linear-gradient-56" x1="-536.51" y1="-854.94" x2="-531.22" y2="-854.94" gradientTransform="matrix(0.89, 0.51, -0.93, 0.59, -85.62, 989.22)" xlink:href="#linear-gradient-2"/><linearGradient id="linear-gradient-57" x1="-482.59" y1="-768.19" x2="-478.84" y2="-768.19" gradientTransform="matrix(-0.42, 0.93, -0.68, -0.87, -530.42, 78.17)" xlink:href="#linear-gradient-17"/><linearGradient id="linear-gradient-58" x1="3188.64" y1="8896.63" x2="3192.39" y2="8896.63" gradientTransform="matrix(0.42, -0.93, 0.68, 0.87, -7243.25, -4472.75)" xlink:href="#linear-gradient-17"/><linearGradient id="linear-gradient-59" x1="3183.5" y1="8896.87" x2="3187.24" y2="8896.87" gradientTransform="matrix(0.42, -0.93, 0.68, 0.87, -7236.49, -4475.24)" xlink:href="#linear-gradient-17"/><linearGradient id="linear-gradient-60" x1="3178.35" y1="8897.1" x2="3182.11" y2="8897.1" gradientTransform="matrix(0.42, -0.93, 0.68, 0.87, -7229.73, -4477.72)" xlink:href="#linear-gradient-17"/><linearGradient id="linear-gradient-61" x1="3173.21" y1="8897.34" x2="3176.96" y2="8897.34" gradientTransform="matrix(0.42, -0.93, 0.68, 0.87, -7222.99, -4480.22)" xlink:href="#linear-gradient-17"/><linearGradient id="linear-gradient-62" x1="3168.07" y1="8897.57" x2="3171.81" y2="8897.57" gradientTransform="matrix(0.42, -0.93, 0.68, 0.87, -7216.23, -4482.7)" xlink:href="#linear-gradient-17"/><linearGradient id="linear-gradient-63" x1="3162.92" y1="8897.81" x2="3166.68" y2="8897.81" gradientTransform="matrix(0.42, -0.93, 0.68, 0.87, -7209.49, -4485.19)" xlink:href="#linear-gradient-17"/><linearGradient id="linear-gradient-64" x1="3157.78" y1="8898.04" x2="3161.53" y2="8898.04" gradientTransform="matrix(0.42, -0.93, 0.68, 0.87, -7202.72, -4487.67)" xlink:href="#linear-gradient-17"/><linearGradient id="linear-gradient-65" x1="3152.64" y1="8898.28" x2="3156.39" y2="8898.28" gradientTransform="matrix(0.42, -0.93, 0.68, 0.87, -7195.98, -4490.16)" xlink:href="#linear-gradient-17"/><linearGradient id="linear-gradient-66" x1="-554.49" y1="-764.9" x2="-550.75" y2="-764.9" gradientTransform="matrix(-0.42, 0.93, -0.68, -0.87, -624.81, 112.95)" xlink:href="#linear-gradient-17"/><linearGradient id="linear-gradient-67" x1="3260.54" y1="8893.34" x2="3264.29" y2="8893.34" gradientTransform="matrix(0.42, -0.93, 0.68, 0.87, -7337.64, -4437.98)" xlink:href="#linear-gradient-17"/><linearGradient id="linear-gradient-68" x1="3255.4" y1="8893.58" x2="3259.14" y2="8893.58" gradientTransform="matrix(0.42, -0.93, 0.68, 0.87, -7330.88, -4440.47)" xlink:href="#linear-gradient-17"/><linearGradient id="linear-gradient-69" x1="3250.25" y1="8893.82" x2="3254.01" y2="8893.82" gradientTransform="matrix(0.42, -0.93, 0.68, 0.87, -7324.13, -4442.97)" xlink:href="#linear-gradient-17"/><linearGradient id="linear-gradient-70" x1="3245.11" y1="8894.05" x2="3248.86" y2="8894.05" gradientTransform="matrix(0.42, -0.93, 0.68, 0.87, -7317.38, -4445.44)" xlink:href="#linear-gradient-17"/><linearGradient id="linear-gradient-71" x1="3239.96" y1="8894.29" x2="3243.72" y2="8894.29" gradientTransform="matrix(0.42, -0.93, 0.68, 0.87, -7310.62, -4447.94)" xlink:href="#linear-gradient-17"/><linearGradient id="linear-gradient-72" x1="3234.83" y1="8894.52" x2="3238.57" y2="8894.52" gradientTransform="matrix(0.42, -0.93, 0.68, 0.87, -7303.87, -4450.42)" xlink:href="#linear-gradient-17"/><linearGradient id="linear-gradient-73" x1="3229.68" y1="8894.76" x2="3233.42" y2="8894.76" gradientTransform="matrix(0.42, -0.93, 0.68, 0.87, -7297.13, -4452.91)" xlink:href="#linear-gradient-17"/><linearGradient id="linear-gradient-74" x1="3224.53" y1="8894.99" x2="3228.29" y2="8894.99" gradientTransform="matrix(0.42, -0.93, 0.68, 0.87, -7290.37, -4455.39)" xlink:href="#linear-gradient-17"/><linearGradient id="linear-gradient-75" x1="-551.82" y1="-829.1" x2="-539.67" y2="-829.1" xlink:href="#linear-gradient-42"/><linearGradient id="linear-gradient-76" x1="-550.64" y1="16508.07" x2="-539.18" y2="16508.07" gradientTransform="matrix(0.89, 0.51, 0.33, -0.21, -4781.84, 3965.57)" xlink:href="#linear-gradient-42"/><linearGradient id="linear-gradient-77" x1="-548.58" y1="16555.53" x2="-537.12" y2="16555.53" gradientTransform="matrix(0.89, 0.51, 0.33, -0.21, -4781.84, 3965.57)" xlink:href="#linear-gradient-42"/><linearGradient id="linear-gradient-78" x1="-302.81" y1="-634.03" x2="-292.13" y2="-634.03" gradientTransform="matrix(0.56, 0.88, -0.81, 0.51, -155.34, 812.65)" xlink:href="#linear-gradient-42"/><linearGradient id="linear-gradient-79" x1="-302.15" y1="-644.9" x2="-290.89" y2="-644.9" gradientTransform="matrix(0.56, 0.88, -0.81, 0.51, -155.34, 812.65)" xlink:href="#linear-gradient-42"/><linearGradient id="linear-gradient-80" x1="-301.03" y1="-654.47" x2="-290.36" y2="-654.47" gradientTransform="matrix(0.56, 0.88, -0.81, 0.51, -155.34, 812.65)" xlink:href="#linear-gradient-42"/><linearGradient id="linear-gradient-81" x1="-340.7" y1="-659.84" x2="-309.2" y2="-659.84" gradientTransform="matrix(0.56, 0.88, -0.81, 0.51, -155.34, 812.65)" xlink:href="#linear-gradient-42"/><linearGradient id="linear-gradient-82" x1="-317.31" y1="-660.02" x2="-317.31" y2="-606.21" gradientTransform="matrix(0.56, 0.88, -0.81, 0.51, -155.34, 812.65)" gradientUnits="userSpaceOnUse"><stop offset="0" stop-color="#30ab74"/><stop offset="1" stop-color="#81bf7e"/></linearGradient><linearGradient id="linear-gradient-83" x1="-233.22" y1="-719.58" x2="-209.78" y2="-719.58" xlink:href="#linear-gradient-82"/><linearGradient id="linear-gradient-84" x1="-475.33" y1="-835.01" x2="-450.32" y2="-835.01" xlink:href="#linear-gradient-42"/><linearGradient id="linear-gradient-85" x1="-235.9" y1="-692.89" x2="-213.39" y2="-692.89" gradientTransform="matrix(0.56, 0.88, -0.81, 0.51, -155.34, 812.65)" xlink:href="#linear-gradient-42"/><linearGradient id="linear-gradient-86" x1="-466.19" y1="-868.94" x2="-462.73" y2="-868.94" gradientTransform="matrix(0.89, 0.51, -0.93, 0.59, -119.92, 1025.17)" xlink:href="#linear-gradient-42"/><linearGradient id="linear-gradient-87" x1="-474.47" y1="-801.19" x2="-471" y2="-801.19" gradientTransform="matrix(0.89, 0.51, -0.93, 0.59, -119.92, 1025.17)" xlink:href="#linear-gradient-42"/><linearGradient id="linear-gradient-88" x1="-609.88" y1="-863.29" x2="-606.41" y2="-863.29" gradientTransform="matrix(0.89, 0.51, -0.93, 0.59, -119.92, 1025.17)" xlink:href="#linear-gradient-42"/><linearGradient id="linear-gradient-89" x1="-618.16" y1="-795.55" x2="-614.68" y2="-795.55" gradientTransform="matrix(0.89, 0.51, -0.93, 0.59, -119.92, 1025.17)" xlink:href="#linear-gradient-42"/><linearGradient id="linear-gradient-90" x1="-546.28" y1="-798.27" x2="-542.8" y2="-798.27" gradientTransform="matrix(0.89, 0.51, -0.93, 0.59, -119.92, 1025.17)" xlink:href="#linear-gradient-42"/><linearGradient id="linear-gradient-91" x1="-289.19" y1="-650.1" x2="-286.52" y2="-650.1" xlink:href="#linear-gradient-17"/><linearGradient id="linear-gradient-92" x1="-554.67" y1="-878.08" x2="-535.53" y2="-878.08" gradientTransform="matrix(0.89, 0.51, -0.93, 0.59, -123.2, 1033.09)" xlink:href="#linear-gradient-17"/><linearGradient id="linear-gradient-93" x1="-554.28" y1="-886.57" x2="-533.91" y2="-886.57" gradientTransform="matrix(0.89, 0.51, -0.93, 0.59, -123.2, 1033.09)" xlink:href="#linear-gradient-17"/><linearGradient id="linear-gradient-94" x1="-555.58" y1="-887.62" x2="-535.21" y2="-887.62" gradientTransform="matrix(0.89, 0.51, -0.93, 0.59, -123.2, 1033.09)" xlink:href="#linear-gradient-17"/><linearGradient id="linear-gradient-95" x1="-275.64" y1="-654.72" x2="-267.02" y2="-659.7" xlink:href="#linear-gradient-17"/><linearGradient id="linear-gradient-96" x1="-364.25" y1="-572.69" x2="-331" y2="-572.69" xlink:href="#linear-gradient-2"/><linearGradient id="linear-gradient-97" x1="-370.21" y1="-578.78" x2="-361.46" y2="-578.78" xlink:href="#linear-gradient-2"/><linearGradient id="linear-gradient-98" x1="-333.79" y1="-591.49" x2="-238.72" y2="-591.49" xlink:href="#linear-gradient-2"/><linearGradient id="linear-gradient-99" x1="-335.71" y1="-592.55" x2="-240.42" y2="-592.55" xlink:href="#linear-gradient-4"/><linearGradient id="linear-gradient-100" x1="-314.44" y1="-615.14" x2="-281.38" y2="-615.14" xlink:href="#linear-gradient-2"/><linearGradient id="linear-gradient-101" x1="-316.18" y1="-622.46" x2="-307.82" y2="-622.46" xlink:href="#linear-gradient-2"/><linearGradient id="linear-gradient-102" x1="-318.09" y1="-625.43" x2="-311.64" y2="-625.43" xlink:href="#linear-gradient-2"/><linearGradient id="linear-gradient-103" x1="-318.09" y1="-621.17" x2="-310.21" y2="-621.17" xlink:href="#linear-gradient-2"/><linearGradient id="linear-gradient-104" x1="-312.09" y1="-621.1" x2="-281.18" y2="-621.1" xlink:href="#linear-gradient-2"/><linearGradient id="linear-gradient-105" x1="-327.28" y1="-613.73" x2="-304.83" y2="-574.84" gradientTransform="matrix(0.56, 0.88, -0.81, 0.51, -155.34, 812.65)" gradientUnits="userSpaceOnUse"><stop offset="0" stop-color="#979797"/><stop offset="0.08" stop-color="#ababab"/><stop offset="0.23" stop-color="#c8c8c8"/><stop offset="0.39" stop-color="#dfdfde"/><stop offset="0.56" stop-color="#efefef"/><stop offset="0.75" stop-color="#f9f9f8"/><stop offset="1" stop-color="#fcfcfb"/></linearGradient><linearGradient id="linear-gradient-106" x1="-265.87" y1="-645.94" x2="-253.84" y2="-612.91" xlink:href="#linear-gradient-105"/><linearGradient id="linear-gradient-107" x1="-264.06" y1="-641.01" x2="-255.63" y2="-617.84" xlink:href="#linear-gradient-105"/><linearGradient id="linear-gradient-108" x1="-261.6" y1="-623.97" x2="-249.93" y2="-623.97" gradientTransform="matrix(-0.51, 0.91, -0.84, -0.47, -446.22, 203.19)" xlink:href="#linear-gradient-17"/><linearGradient id="linear-gradient-109" x1="-266.07" y1="-635.5" x2="-257.31" y2="-635.5" xlink:href="#linear-gradient-2"/><linearGradient id="linear-gradient-110" x1="-318.32" y1="-598.79" x2="-311.7" y2="-598.79" xlink:href="#linear-gradient-2"/><linearGradient id="linear-gradient-111" x1="-316.59" y1="-597.88" x2="-309.97" y2="-597.88" xlink:href="#linear-gradient-2"/><linearGradient id="linear-gradient-112" x1="-320.4" y1="-598.9" x2="-313.95" y2="-598.9" xlink:href="#linear-gradient-2"/><linearGradient id="linear-gradient-113" x1="-314.43" y1="-593.21" x2="-283.67" y2="-593.21" xlink:href="#linear-gradient-2"/><linearGradient id="linear-gradient-114" x1="-262.29" y1="-645.98" x2="-262.29" y2="-629.98" xlink:href="#linear-gradient-17"/><linearGradient id="linear-gradient-115" x1="-262.03" y1="-645.98" x2="-262.03" y2="-630.27" xlink:href="#linear-gradient-105"/><linearGradient id="linear-gradient-116" x1="-366.4" y1="-587.67" x2="-366.4" y2="-571.67" xlink:href="#linear-gradient-17"/><linearGradient id="linear-gradient-117" x1="-366.15" y1="-587.67" x2="-366.15" y2="-571.98" xlink:href="#linear-gradient-105"/><linearGradient id="linear-gradient-118" x1="-323.66" y1="-553.59" x2="-346.63" y2="-566.85" xlink:href="#linear-gradient-2"/><linearGradient id="linear-gradient-119" x1="-370.11" y1="-583.17" x2="-236.81" y2="-583.17" xlink:href="#linear-gradient-2"/><linearGradient id="linear-gradient-121" x1="-242.21" y1="-638.59" x2="-242.04" y2="-638.59" xlink:href="#linear-gradient-2"/><linearGradient id="linear-gradient-122" x1="-260.1" y1="-631.36" x2="-234.19" y2="-631.36" xlink:href="#linear-gradient-2"/><linearGradient id="linear-gradient-123" x1="-255.87" y1="-641.52" x2="-236.85" y2="-641.52" xlink:href="#linear-gradient-4"/><linearGradient id="linear-gradient-124" x1="-257.64" y1="-621.75" x2="-238.4" y2="-621.75" xlink:href="#linear-gradient-4"/><linearGradient id="linear-gradient-125" x1="-241.63" y1="-624.4" x2="-237.9" y2="-624.4" xlink:href="#linear-gradient-4"/><linearGradient id="linear-gradient-126" x1="-241.11" y1="-630.33" x2="-237.38" y2="-630.33" xlink:href="#linear-gradient-4"/><linearGradient id="linear-gradient-127" x1="-255.87" y1="-641.1" x2="-238.2" y2="-641.1" xlink:href="#linear-gradient-2"/><linearGradient id="linear-gradient-128" x1="-257.64" y1="-621" x2="-239.75" y2="-621" xlink:href="#linear-gradient-2"/><linearGradient id="linear-gradient-129" x1="-241.63" y1="-623.98" x2="-239.23" y2="-623.98" xlink:href="#linear-gradient-2"/><linearGradient id="linear-gradient-130" x1="-241.11" y1="-629.91" x2="-238.72" y2="-629.91" xlink:href="#linear-gradient-2"/><linearGradient id="linear-gradient-131" x1="-298.46" y1="-715.27" x2="-283.27" y2="-715.27" xlink:href="#linear-gradient-2"/><linearGradient id="linear-gradient-132" x1="-272.79" y1="-731.35" x2="-257.59" y2="-731.35" xlink:href="#linear-gradient-2"/><linearGradient id="linear-gradient-133" x1="-607.59" y1="-1126.3" x2="-595.9" y2="-1126.3" gradientTransform="matrix(0.89, 0.51, -0.93, 0.59, -253.08, 1158.33)" xlink:href="#linear-gradient-2"/><linearGradient id="linear-gradient-134" x1="-604.9" y1="-1126.29" x2="-598.59" y2="-1126.29" xlink:href="#linear-gradient-12"/><linearGradient id="linear-gradient-135" x1="-577.96" y1="-1127.46" x2="-566.27" y2="-1127.46" gradientTransform="matrix(0.89, 0.51, -0.93, 0.59, -253.08, 1158.33)" xlink:href="#linear-gradient-2"/><linearGradient id="linear-gradient-136" x1="-575.27" y1="-1127.46" x2="-568.96" y2="-1127.46" xlink:href="#linear-gradient-12"/><linearGradient id="linear-gradient-137" x1="-255.31" y1="-784.3" x2="-196.58" y2="-784.3" xlink:href="#linear-gradient-2"/><linearGradient id="linear-gradient-138" x1="-263.99" y1="-684.78" x2="-205.25" y2="-684.78" xlink:href="#linear-gradient-2"/><linearGradient id="linear-gradient-139" x1="-272.67" y1="-585.29" x2="-213.95" y2="-585.29" xlink:href="#linear-gradient-2"/><linearGradient id="linear-gradient-140" x1="-559.67" y1="-1168.41" x2="-530.26" y2="-1168.41" gradientTransform="matrix(0.89, 0.51, -0.93, 0.59, -253.08, 1158.33)" xlink:href="#linear-gradient-2"/><linearGradient id="linear-gradient-141" x1="-552.89" y1="-1168.4" x2="-537.02" y2="-1168.4" xlink:href="#linear-gradient-12"/><linearGradient id="linear-gradient-142" x1="-569.69" y1="-1086.3" x2="-540.28" y2="-1086.3" gradientTransform="matrix(0.89, 0.51, -0.93, 0.59, -253.08, 1158.33)" xlink:href="#linear-gradient-2"/><linearGradient id="linear-gradient-143" x1="-562.91" y1="-1086.29" x2="-547.03" y2="-1086.29" xlink:href="#linear-gradient-12"/><linearGradient id="linear-gradient-144" x1="-579.71" y1="-1004.18" x2="-550.3" y2="-1004.18" gradientTransform="matrix(0.89, 0.51, -0.93, 0.59, -253.08, 1158.33)" xlink:href="#linear-gradient-2"/><linearGradient id="linear-gradient-145" x1="-572.92" y1="-1004.17" x2="-557.06" y2="-1004.17" xlink:href="#linear-gradient-12"/><linearGradient id="linear-gradient-146" x1="-403.25" y1="-657.75" x2="-220.24" y2="-657.75" xlink:href="#linear-gradient-4"/><linearGradient id="linear-gradient-147" x1="-272.49" y1="-595.04" x2="-258.24" y2="-595.04" xlink:href="#linear-gradient-2"/><linearGradient id="linear-gradient-148" x1="-408.87" y1="-659.87" x2="-226.17" y2="-659.87" xlink:href="#linear-gradient-2"/><linearGradient id="linear-gradient-149" x1="-238.26" y1="-790.31" x2="-224.01" y2="-790.31" xlink:href="#linear-gradient-2"/><linearGradient id="linear-gradient-150" x1="-377.18" y1="-724.67" x2="-362.93" y2="-724.67" xlink:href="#linear-gradient-2"/><linearGradient id="linear-gradient-151" x1="-386.18" y1="-621.44" x2="-371.93" y2="-621.44" xlink:href="#linear-gradient-2"/><linearGradient id="linear-gradient-152" x1="-378.96" y1="-506.97" x2="-364.71" y2="-506.97" xlink:href="#linear-gradient-2"/><linearGradient id="linear-gradient-153" x1="-263.49" y1="-698.24" x2="-249.24" y2="-698.24" xlink:href="#linear-gradient-2"/></defs><g id="Layer_2" data-name="Layer 2"><g id="Layer_1-2" data-name="Layer 1-2"><ellipse class="cls-2" cx="187.8" cy="325.44" rx="74.34" ry="128.77" transform="translate(-138.65 511.47) rotate(-89.69)"/><path class="cls-3" d="M159.18,328.78l-123-64.65c-6-3.13-9.46-7-10.43-11.1h0l-.28-2.37L21,213.32h0c-1-5.57,2.64-11.33,11-15.56l164.11-83.33c14.69-7.46,38.28-7.38,52.69.2l123.1,64.64c6.8,3.57,10.34,8.18,10.64,12.82a.14.14,0,0,1,0,.09l4.47,38.2v.12c.77,5.46-2.92,11-11.06,15.16L211.87,329C197.18,336.44,173.58,336.35,159.18,328.78Z"/><path class="cls-4" d="M380.08,185.83a23.84,23.84,0,0,0-8.19-6.56L248.8,114.63c-14.42-7.58-38-7.65-52.69-.2L32,197.75c-8,4-12,9.67-11,15.46l.09.47h0l.09.32a11.66,11.66,0,0,0,1,2.53,16.39,16.39,0,0,0,1.15,1.82,24.08,24.08,0,0,0,8.19,6.56l123.1,64.64c14.38,7.56,38,7.65,52.69.2l164.12-83.32c6.05-3.07,9.93-7.15,10.91-11.51a9.9,9.9,0,0,0,.23-2.87A11.6,11.6,0,0,0,380.08,185.83Z"/><path class="cls-5" d="M378.32,186.72a21.38,21.38,0,0,0-7.27-5.81L247.91,116.27c-13.74-7.23-36.37-7.28-50.51-.11L33.29,199.48c-7.23,3.63-11,8.76-10.17,13.7l.2.26v.45a9.66,9.66,0,0,0,.82,2.09,11.51,11.51,0,0,0,1,1.52,21.35,21.35,0,0,0,7.28,5.82L155.48,288c13.75,7.22,36.38,7.28,50.52.11l164.11-83.32c5.61-2.85,9.19-6.56,10.06-10.43a8.87,8.87,0,0,0,.21-2.41,9.76,9.76,0,0,0-2.05-5.19Z"/><path class="cls-6" d="M357.6,211.1l12.5-6.37c5.6-2.84,9.19-6.55,10-10.44a7.7,7.7,0,0,0,.22-2.39,9.72,9.72,0,0,0-2.06-5.2,21.14,21.14,0,0,0-7.27-5.8L247.91,116.27c-13.74-7.22-36.37-7.27-50.51-.12L33.29,199.47c-7.23,3.63-11,8.76-10.17,13.71l.19.26v.44a8.72,8.72,0,0,0,.82,2.11,12.51,12.51,0,0,0,1,1.51,21.42,21.42,0,0,0,7.28,5.81l18.85,9.91,150.59-76.45c14.7-7.47,38.3-7.37,52.7.21Z"/><path class="cls-7" d="M323.35,208.06l14.47-7.34-5-39.89-44.51-13.48-19.75-4.06,5,40.36a2.11,2.11,0,0,0,1.23,1.36l43.49,22.83A6.23,6.23,0,0,0,323.35,208.06Z"/><path class="cls-8" d="M313.37,168.07l-43.88-23c-1.4-.73-1.39-1.91,0-2.64l14.3-7.27,48.95,25.71-14.3,7.27A6.18,6.18,0,0,1,313.37,168.07Z"/><path class="cls-9" d="M285.84,136.15,271.4,143.5c-.39.19-.4.51,0,.71L315,167.07a1.66,1.66,0,0,0,1.38,0l14.42-7.27Z"/><g class="cls-10"><path class="cls-11" d="M243.11,173.79c-6.54,3.33-17.91,2.85-25.38-1.07-3.74-2-5.81-4.44-6.09-6.83h0l-5.46-41.15,35.91,1.65,5.45,41C247.86,169.8,246.42,172.12,243.11,173.79Z"/><path class="cls-12" d="M72.51,260.43c-6.56,3.33-17.92,2.84-25.38-1.08-3.75-2-5.81-4.44-6.09-6.82h0l-5.51-41.16L71.44,213l5.45,41v.1h0C77.17,256.5,75.72,258.78,72.51,260.43Z"/><path class="cls-13" d="M157.79,217.09c-6.55,3.33-17.91,2.85-25.38-1.07-3.89-2.05-6-4.62-6.1-7.1L120.85,168l35.91,1.65,5.51,41.12h0C162.54,213.17,161.05,215.46,157.79,217.09Z"/><path class="cls-14" d="M237.62,132.85c6.56-3.33,5.81-9.19-1.65-13.12s-18.87-4.41-25.4-1.08-5.8,9.2,1.67,13.13S231.07,136.15,237.62,132.85Z"/><path class="cls-15" d="M231.4,129.59c3.55-1.82,3.15-5-.91-7.09s-10.17-2.38-13.71-.58-3.14,5,.91,7.09S227.86,131.39,231.4,129.59Z"/><path class="cls-16" d="M152.3,176.17c6.56-3.32,5.81-9.2-1.65-13.12s-18.86-4.42-25.4-1.09-5.8,9.22,1.67,13.13S145.75,179.5,152.3,176.17Z"/><ellipse class="cls-17" cx="138.79" cy="169.08" rx="4.96" ry="9.75" transform="translate(-43.58 289.88) rotate(-84.14)"/><path class="cls-18" d="M67,219.49c6.56-3.33,5.81-9.2-1.65-13.12s-18.86-4.42-25.4-1.09-5.8,9.21,1.66,13.13S60.43,222.82,67,219.49Z"/><path class="cls-19" d="M60.76,216.23c3.55-1.82,3.15-5-.91-7.1s-10.17-2.38-13.71-.58-3.14,5,.91,7.09S57.22,218,60.76,216.23Z"/><path class="cls-20" d="M227.76,296.08l4.61-2.34,3,1.57-2,1,8.92,4.68,8.25-4.19-8.91-4.68-2,1-3-1.58,4.62-2.34,11.91,6.26L256,294l-11.92-6.25,4.61-2.34,3,1.57-2,1,8.91,4.69,8.27-4.19L258,283.83l-2,1-3-1.57,4.62-2.35,11.92,6.26L334.85,254l-146.66-77L59.55,242.34l146.64,77,33.5-17Zm-9.66,5.23c2.3-1.17,6.3-1,8.92.38s2.89,3.44.59,4.6-6.3,1-8.92-.37S215.79,302.47,218.1,301.31Z"/><polygon class="cls-21" points="334.74 253.49 334.81 254.04 269.53 287.18 269.46 286.62 334.74 253.49"/><polygon class="cls-22" points="257.55 280.37 257.62 280.92 269.53 287.18 269.46 286.62 257.55 280.37"/><polygon class="cls-23" points="266.83 287.96 266.9 288.51 258.64 292.71 258.57 292.15 266.83 287.96"/><polygon class="cls-24" points="252.93 282.7 253 283.27 257.62 280.92 257.55 280.37 252.93 282.7"/><polygon class="cls-25" points="255.93 284.29 255.99 284.84 257.98 283.83 257.91 283.28 255.93 284.29"/><polygon class="cls-26" points="248.7 285.45 248.62 284.9 244.01 287.23 244.09 287.79 248.7 285.45"/><polygon class="cls-27" points="255.94 293.49 256.01 294.04 253.2 295.47 253.13 294.92 255.94 293.49"/><polygon class="cls-28" points="250.5 296.25 250.56 296.81 242.31 301 242.24 300.45 250.5 296.25"/><polygon class="cls-29" points="236.68 291.55 236.6 290.99 241.21 288.65 241.28 289.21 236.68 291.55"/><polygon class="cls-30" points="232.3 293.18 232.37 293.74 227.76 296.08 227.69 295.52 232.3 293.18"/><polygon class="cls-31" points="239.6 301.78 239.68 302.34 206.17 319.34 206.1 318.79 239.6 301.78"/><polygon class="cls-32" points="59.48 241.78 59.55 242.34 206.17 319.34 206.1 318.79 59.48 241.78"/><polygon class="cls-33" points="232.3 293.18 235.3 294.75 235.37 295.31 232.37 293.74 232.3 293.18"/><polygon class="cls-34" points="248.62 284.9 251.63 286.47 251.69 287.02 248.7 285.45 248.62 284.9"/><path class="cls-35" d="M227.69,295.52l4.61-2.34,3,1.57-2,1,8.92,4.69,8.26-4.2-8.92-4.68-2,1-3-1.57,4.61-2.35,11.92,6.27,2.81-1.44L244,287.22l4.61-2.33,3,1.57-2,1,8.91,4.68,8.27-4.19-8.92-4.68-2,1-3-1.58,4.62-2.34,11.91,6.25,65.28-33.14-146.63-77L59.48,241.78l146.62,77,33.5-17ZM218,300.76c2.3-1.17,6.31-1,8.93.39s2.89,3.43.59,4.6-6.31,1-8.93-.37S215.72,301.92,218,300.76Z"/><polygon class="cls-36" points="327.26 249.56 305.52 238.14 279.57 251.32 301.31 262.73 327.26 249.56"/><ellipse class="cls-37" cx="72.56" cy="242.23" rx="1.84" ry="3.62" transform="translate(-175.81 289.68) rotate(-84.14)"/><ellipse class="cls-38" cx="139.02" cy="277.14" rx="1.84" ry="3.62" transform="translate(-150.86 387.13) rotate(-84.14)"/><ellipse class="cls-39" cx="205.47" cy="312.04" rx="1.84" ry="3.62" transform="translate(-125.91 484.58) rotate(-84.14)"/><ellipse class="cls-40" cx="275.91" cy="276.28" rx="1.84" ry="3.62" transform="translate(-27.1 522.54) rotate(-84.14)"/><ellipse class="cls-41" cx="142.99" cy="206.46" rx="1.84" ry="3.62" transform="translate(-77 327.63) rotate(-84.14)"/><ellipse class="cls-42" cx="211.81" cy="308.61" rx="1.29" ry="2.54" transform="translate(-116.52 488.33) rotate(-84.23)"/><polygon class="cls-43" points="265.52 263.07 269.22 261.18 267.99 260.53 264.27 262.42 265.52 263.07"/><polygon class="cls-44" points="266.78 262.43 267.97 261.82 266.72 261.17 265.54 261.77 266.78 262.43"/><polygon class="cls-43" points="270.19 265.53 273.9 263.64 272.67 262.99 268.96 264.87 270.19 265.53"/><polygon class="cls-44" points="271.46 264.88 272.64 264.28 271.4 263.63 270.21 264.23 271.46 264.88"/><polygon class="cls-43" points="274.88 267.98 278.59 266.1 277.35 265.44 273.64 267.33 274.88 267.98"/><polygon class="cls-44" points="276.14 267.34 277.32 266.74 276.09 266.09 274.9 266.69 276.14 267.34"/><polygon class="cls-43" points="279.56 270.44 283.27 268.55 282.03 267.91 278.32 269.79 279.56 270.44"/><polygon class="cls-44" points="280.83 269.8 282.01 269.2 280.76 268.55 279.58 269.14 280.83 269.8"/><polygon class="cls-43" points="278.22 256.61 281.93 254.73 280.68 254.09 276.97 255.97 278.22 256.61"/><polygon class="cls-44" points="279.48 255.98 280.66 255.38 279.43 254.72 278.23 255.32 279.48 255.98"/><polygon class="cls-43" points="282.9 259.08 286.61 257.19 285.36 256.54 281.65 258.42 282.9 259.08"/><polygon class="cls-44" points="284.16 258.43 285.35 257.83 284.11 257.18 282.92 257.79 284.16 258.43"/><polygon class="cls-43" points="287.58 261.53 291.29 259.65 290.05 259 286.34 260.88 287.58 261.53"/><polygon class="cls-44" points="288.85 260.9 290.03 260.3 288.78 259.64 287.6 260.24 288.85 260.9"/><polygon class="cls-43" points="292.27 264 295.98 262.11 294.73 261.46 291.02 263.34 292.27 264"/><polygon class="cls-44" points="293.52 263.35 294.71 262.75 293.47 262.1 292.28 262.7 293.52 263.35"/><polygon class="cls-45" points="324.82 250.79 306.21 241 305.2 241.52 323.82 251.3 324.82 250.79"/><polygon class="cls-45" points="249.64 229.74 269.96 219.43 265.85 217.27 257.11 212.65 253.01 210.49 232.7 220.8 249.64 229.74"/><polygon class="cls-46" points="264.48 222.21 247.5 213.29 232.59 220.86 249.58 229.78 264.48 222.21"/><polygon class="cls-47" points="264.26 221.02 247.27 212.1 232.36 219.66 249.35 228.59 264.26 221.02"/><path class="cls-48" d="M315.39,251.77,301,244.23a5,5,0,0,0-4.05-.17l-12.59,6.37c-1,.54-.91,1.47.26,2.1L299,260.06a5,5,0,0,0,4.06.17l12.59-6.36C316.7,253.33,316.58,252.39,315.39,251.77Z"/><polygon class="cls-45" points="184.12 196.02 150.16 213.26 173.69 225.61 207.65 208.37 184.12 196.02"/><polygon class="cls-45" points="184.17 196.53 150.21 213.77 173.74 226.13 207.69 208.89 184.17 196.53"/><polygon class="cls-49" points="184.24 196.97 152 213.34 173.57 224.67 205.81 208.3 184.24 196.97"/><path class="cls-48" d="M182.55,199.81l-25,12.73c-1,.53-.91,1.47.26,2.09l13.37,7a5,5,0,0,0,4,.16l25-12.73c1-.53.91-1.47-.27-2.08l-13.36-7A4.93,4.93,0,0,0,182.55,199.81Z"/><polygon class="cls-50" points="184.03 195.76 151.8 212.12 173.37 223.45 205.6 207.09 184.03 195.76"/><path class="cls-48" d="M182.37,198.61l-25,12.73c-1,.53-.91,1.47.26,2.09l13.37,7a5,5,0,0,0,4,.17l25-12.73c1.05-.53.91-1.46-.26-2.08l-13.37-7A5,5,0,0,0,182.37,198.61Z"/><polygon class="cls-51" points="210.66 223.67 200.41 218.28 191.41 222.85 201.66 228.23 210.66 223.67"/><polygon class="cls-52" points="195.27 231.48 185.02 226.09 188.17 224.49 198.42 229.88 195.27 231.48"/><polygon class="cls-53" points="212.79 222.57 202.54 217.19 205.68 215.6 215.94 220.98 212.79 222.57"/><polygon class="cls-54" points="219.3 195.59 188.33 179.33 175.15 186.03 206.11 202.29 219.3 195.59"/><polygon class="cls-55" points="219.11 194.24 188.15 177.98 174.96 184.67 205.93 200.93 219.11 194.24"/><polygon class="cls-56" points="263.4 218.51 265.85 217.27 257.11 212.65 254.63 213.91 263.4 218.51"/><polygon class="cls-57" points="241.21 288.65 253.13 294.92 253.2 295.47 241.28 289.21 241.21 288.65"/><polygon class="cls-58" points="233.32 295.75 242.24 300.45 242.31 301 233.39 296.32 233.32 295.75"/><polygon class="cls-59" points="249.65 287.47 249.72 288.02 258.64 292.71 258.57 292.15 249.65 287.47"/><polygon class="cls-60" points="268.67 228.59 268.74 229.15 264.82 231.13 264.75 230.58 268.67 228.59"/><polygon class="cls-61" points="260.29 228.23 264.75 230.58 264.82 231.13 260.36 228.79 260.29 228.23"/><polygon class="cls-62" points="268.67 228.59 264.2 226.25 260.29 228.23 264.75 230.58 268.67 228.59"/><polygon class="cls-63" points="239.7 213.38 239.78 213.94 235.87 215.93 235.79 215.37 239.7 213.38"/><polygon class="cls-64" points="231.33 213.03 235.79 215.37 235.87 215.93 231.4 213.58 231.33 213.03"/><polygon class="cls-65" points="239.7 213.38 235.25 211.03 231.33 213.03 235.79 215.37 239.7 213.38"/><polygon class="cls-45" points="202.07 295.33 158.6 272.5 150.82 276.46 194.28 299.28 202.07 295.33"/><ellipse class="cls-66" cx="195.46" cy="295.88" rx="1.17" ry="2.3" transform="translate(-118.83 460.1) rotate(-84.14)"/><ellipse class="cls-67" cx="157.42" cy="275.9" rx="1.17" ry="2.3" transform="translate(-133.11 404.33) rotate(-84.14)"/><ellipse class="cls-68" cx="162.18" cy="278.4" rx="1.17" ry="2.3" transform="translate(-131.33 411.31) rotate(-84.14)"/><ellipse class="cls-69" cx="166.94" cy="280.9" rx="1.17" ry="2.3" transform="translate(-129.54 418.29) rotate(-84.14)"/><ellipse class="cls-70" cx="171.69" cy="283.39" rx="1.17" ry="2.3" transform="translate(-127.75 425.25) rotate(-84.14)"/><ellipse class="cls-71" cx="176.44" cy="285.89" rx="1.17" ry="2.3" transform="translate(-125.97 432.22) rotate(-84.14)"/><ellipse class="cls-72" cx="181.19" cy="288.39" rx="1.17" ry="2.3" transform="translate(-124.19 439.19) rotate(-84.14)"/><ellipse class="cls-73" cx="185.95" cy="290.89" rx="1.17" ry="2.3" transform="matrix(0.1, -0.99, 0.99, 0.1, -122.4, 446.17)"/><ellipse class="cls-74" cx="190.7" cy="293.39" rx="1.17" ry="2.3" transform="translate(-120.62 453.14) rotate(-84.14)"/><polygon class="cls-45" points="192.93 303.72 194.28 299.28 202.07 295.33 204.3 297.95 204.62 300.59 193.25 306.37 192.93 303.72"/><polygon class="cls-75" points="194.28 299.28 192.93 303.72 149.48 280.88 150.82 276.46 194.28 299.28"/><polygon class="cls-75" points="149.8 283.53 149.48 280.88 192.93 303.72 193.25 306.37 149.8 283.53"/><polygon class="cls-45" points="135.61 260.42 92.15 237.6 84.36 241.55 127.83 264.38 135.61 260.42"/><ellipse class="cls-76" cx="129.01" cy="260.98" rx="1.17" ry="2.3" transform="translate(-143.78 362.67) rotate(-84.14)"/><ellipse class="cls-77" cx="90.97" cy="241" rx="1.17" ry="2.3" transform="translate(-158.06 306.89) rotate(-84.14)"/><ellipse class="cls-78" cx="95.73" cy="243.5" rx="1.17" ry="2.3" transform="matrix(0.1, -0.99, 0.99, 0.1, -156.28, 313.87)"/><ellipse class="cls-79" cx="100.48" cy="245.99" rx="1.17" ry="2.3" transform="translate(-154.48 320.83) rotate(-84.14)"/><ellipse class="cls-80" cx="105.23" cy="248.5" rx="1.17" ry="2.3" transform="translate(-152.71 327.81) rotate(-84.14)"/><ellipse class="cls-81" cx="109.99" cy="250.99" rx="1.17" ry="2.3" transform="translate(-150.91 334.78) rotate(-84.14)"/><ellipse class="cls-82" cx="114.74" cy="253.49" rx="1.17" ry="2.3" transform="translate(-149.14 341.75) rotate(-84.14)"/><ellipse class="cls-83" cx="119.5" cy="255.99" rx="1.17" ry="2.3" transform="translate(-147.35 348.72) rotate(-84.14)"/><ellipse class="cls-84" cx="124.24" cy="258.48" rx="1.17" ry="2.3" transform="translate(-145.58 355.69) rotate(-84.14)"/><polygon class="cls-45" points="126.48 268.82 127.83 264.38 135.61 260.42 137.84 263.05 138.16 265.69 126.8 271.46 126.48 268.82"/><polygon class="cls-75" points="127.83 264.38 126.48 268.82 83.03 245.98 84.36 241.55 127.83 264.38"/><polygon class="cls-75" points="83.35 248.63 83.03 245.98 126.48 268.82 126.8 271.46 83.35 248.63"/><polygon class="cls-85" points="151.8 212.12 152 213.34 173.57 224.67 205.81 208.3 205.6 207.09 173.37 223.45 151.8 212.12"/><polygon class="cls-85" points="264.26 221.02 249.35 228.59 232.36 219.66 232.59 220.86 249.58 229.78 264.48 222.21 264.26 221.02"/><polygon class="cls-86" points="210.55 222.81 200.3 217.43 191.31 221.99 201.55 227.38 210.55 222.81"/><polygon class="cls-87" points="195.16 230.62 184.91 225.24 188.05 223.64 198.3 229.02 195.16 230.62"/><polygon class="cls-88" points="212.69 221.72 202.44 216.34 205.57 214.75 215.82 220.13 212.69 221.72"/><polygon class="cls-89" points="184.91 225.24 185.02 226.09 195.27 231.48 198.42 229.88 198.3 229.02 195.16 230.62 184.91 225.24"/><polygon class="cls-90" points="191.31 221.99 191.41 222.85 201.66 228.23 210.66 223.67 210.55 222.81 201.55 227.38 191.31 221.99"/><polygon class="cls-91" points="169.21 194.7 165.19 192.6 156.19 197.17 160.21 199.27 169.21 194.7"/><polygon class="cls-92" points="156.19 197.17 156.45 199.1 160.47 201.2 169.45 196.64 169.21 194.7 160.21 199.27 156.19 197.17"/><polygon class="cls-93" points="202.44 216.34 212.69 221.72 215.82 220.13 215.94 220.98 212.79 222.57 202.54 217.19 202.44 216.34"/><polygon class="cls-94" points="174.96 184.67 175.15 186.03 206.11 202.29 219.3 195.59 219.11 194.24 205.93 200.93 174.96 184.67"/><polygon class="cls-95" points="207.65 208.37 207.69 208.89 173.74 226.13 150.21 213.77 150.16 213.26 173.69 225.61 207.65 208.37"/><polygon class="cls-96" points="327.26 249.56 327.31 250.07 301.36 263.24 279.63 251.83 279.57 251.32 301.31 262.73 327.26 249.56"/><polygon class="cls-97" points="295.78 264.51 273.68 252.9 264.27 257.68 286.36 269.28 295.78 264.51"/><polygon class="cls-98" points="264.27 257.68 264.4 258.65 286.5 270.25 295.9 265.47 295.78 264.51 286.36 269.28 264.27 257.68"/><polygon class="cls-99" points="277.26 277.12 275.87 276.39 274.65 277.01 274.26 276.8 275.48 276.18 274.09 275.46 274.43 275.27 275.82 276.01 277.04 275.39 277.43 275.59 276.21 276.21 277.61 276.95 277.26 277.12"/><polygon class="cls-100" points="206.87 312.86 205.48 312.12 204.26 312.74 203.87 312.54 205.09 311.92 203.7 311.19 204.04 311.01 205.44 311.74 206.66 311.12 207.05 311.33 205.83 311.95 207.22 312.68 206.87 312.86"/><polygon class="cls-101" points="144.46 207.37 143.07 206.63 141.85 207.25 141.46 207.05 142.68 206.43 141.29 205.7 141.63 205.52 143.02 206.25 144.24 205.63 144.63 205.84 143.42 206.46 144.81 207.19 144.46 207.37"/><polygon class="cls-102" points="74.07 243.1 72.68 242.37 71.46 242.99 71.07 242.78 72.29 242.16 70.9 241.44 71.25 241.26 72.64 241.99 73.86 241.37 74.25 241.58 73.03 242.2 74.42 242.93 74.07 243.1"/><polygon class="cls-103" points="140.41 278.06 139.02 277.32 137.81 277.94 137.41 277.74 138.63 277.12 137.24 276.39 137.59 276.21 138.98 276.94 140.2 276.32 140.59 276.53 139.37 277.15 140.76 277.88 140.41 278.06"/><polygon class="cls-104" points="202.36 231.01 202.53 232.31 217.72 224.58 217.56 223.29 202.36 231.01"/><path class="cls-105" d="M216.48,243.12l3.37-1.71-17.32-9.1L199.15,234Zm-11.83-7.76a2.32,2.32,0,0,1-1.91-.08c-.56-.29-.61-.74-.12-1a2.32,2.32,0,0,1,1.91.08c.55.29.61.74.12,1Zm3.79,2a2.4,2.4,0,0,1-1.91-.08c-.57-.29-.62-.74-.13-1a2.4,2.4,0,0,1,1.91.08c.56.3.61.74.12,1Zm3.79,2a2.4,2.4,0,0,1-1.91-.08c-.56-.3-.62-.73-.13-1a2.39,2.39,0,0,1,1.91.08c.56.29.61.74.12,1Zm3.78,2a2.28,2.28,0,0,1-1.91-.09c-.56-.29-.62-.73-.12-1a2.32,2.32,0,0,1,1.91.08c.55.3.6.74.11,1Z"/><path class="cls-106" d="M219.83,241.41l13.79-7-1.57-.83-.45-1.69-13.9-7.28-15.15,7.7,3.31,1.73.21,1.14,8.31,4.35,2.19.14Zm-.91-12.24a3,3,0,0,1-2.44-.1c-.72-.38-.79-.91-.17-1.27a3.07,3.07,0,0,1,2.45.1C219.47,228.29,219.54,228.85,218.92,229.17Zm3.52,1.82a3,3,0,0,1-2.43-.11c-.72-.38-.8-.91-.17-1.26a3,3,0,0,1,2.45.1c.71.41.78,1,.14,1.3Zm3.53,1.82a3.07,3.07,0,0,1-2.45-.1c-.71-.39-.79-.91-.15-1.27a3,3,0,0,1,2.44.1c.71.45.78,1,.15,1.33Zm-1.15,2.47a2.1,2.1,0,0,1-1.7-.07l-8.36-4.4c-.5-.26-.56-.65-.11-.91a2.08,2.08,0,0,1,1.69.08l8.37,4.39c.49.35.58.75.1,1Z"/><path class="cls-107" d="M218.45,241.57l13.39-6.79-.22-2.89c.29-.16.4-.38.33-.59h0a1.13,1.13,0,0,0-.44-.4h0L220.36,225a2.66,2.66,0,0,0-2.16-.08l-16,8.12c-.24.12-.37.28-.37.45v.14a.9.9,0,0,0,.49.52l14,7.34a2.77,2.77,0,0,0,1.92.18h0A.64.64,0,0,0,218.45,241.57Z"/><path class="cls-107" d="M218.25,241.64h0a2.72,2.72,0,0,1-1.92-.18l-14-7.34a.91.91,0,0,1-.49-.51v-.1l-.15-1.23h0a.59.59,0,0,1,.37-.56l15.94-8.1a2.67,2.67,0,0,1,2.16.08l11.17,5.87a.93.93,0,0,1,.48.55s.14,1.23.15,1.25a.56.56,0,0,1-.34.52l.22,2.89Z"/><path class="cls-107" d="M218.3,240.28l13.35-6.82-.2-2.63v-.26a.54.54,0,0,0,.35-.43.17.17,0,0,0,0-.1.79.79,0,0,0-.46-.5l-11.17-5.87a2.75,2.75,0,0,0-2.16-.08l-16,8.12c-.56.28-.49.78.13,1.11l.18.09,13.8,7.28A2.63,2.63,0,0,0,218.3,240.28Z"/><path class="cls-108" d="M219.69,240.12l13.78-7-1.57-.82-.45-1.69-13.88-7.28L202.36,231l3.31,1.74.21,1.13,8.31,4.36,2.19.14Zm-.91-12.24a3.07,3.07,0,0,1-2.45-.1c-.72-.39-.79-.91-.15-1.27a3,3,0,0,1,2.43.1c.7.38.77.95.14,1.27Zm3.52,1.82a3,3,0,0,1-2.44-.11c-.72-.38-.79-.91-.16-1.27a3,3,0,0,1,2.44.11c.69.41.77,1,.13,1.3Zm3.53,1.81a3,3,0,0,1-2.45-.1c-.72-.38-.78-.91-.16-1.26a3,3,0,0,1,2.44.1c.69.48.77,1,.14,1.33ZM224.68,234a2.1,2.1,0,0,1-1.7-.08l-8.37-4.39c-.5-.26-.55-.65-.11-.91a2.1,2.1,0,0,1,1.7.08l8.36,4.39c.47.38.53.74.09,1Z"/><polygon class="cls-109" points="217.5 241.23 217.66 242.52 231.45 235.52 231.28 234.23 217.5 241.23"/><polygon class="cls-110" points="129.76 225.29 123.4 221.95 95.94 235.9 102.31 239.24 129.76 225.29"/><polygon class="cls-111" points="125.56 190.31 129.76 225.3 102.3 239.24 98.1 204.25 125.56 190.31"/><polygon class="cls-112" points="98.1 204.25 91.73 200.89 119.2 186.95 125.56 190.31 98.1 204.25"/><polygon class="cls-113" points="224.81 279.29 125.85 227.28 102.33 239.23 201.29 291.23 224.81 279.29"/><polygon class="cls-114" points="224.77 277.23 125.81 225.22 102.06 237.03 201.25 289.16 224.77 277.23"/><polygon class="cls-110" points="200.25 244.36 193.5 240.82 187.56 243.83 194.32 247.38 200.25 244.36"/><path class="cls-115" d="M183,253l1.16-1.68-2.6-17.9-6-7.44-1-1.2-6.37-3.34A48.44,48.44,0,0,1,175.48,237a62.57,62.57,0,0,1,1.15,12.57Z"/><polygon class="cls-116" points="168.03 219.39 168.27 221.38 174.63 224.74 181.02 221.5 174.65 218.16 168.03 219.39"/><polygon class="cls-117" points="175.79 219.5 169.42 216.15 174.13 213.76 180.49 217.12 175.79 219.5"/><polygon class="cls-118" points="169.42 216.15 168.03 219.39 174.39 222.74 175.79 219.5 169.42 216.15"/><path class="cls-119" d="M183,253l1.69-.91-4.2-34.95-4.7,2.39-1.42,3.25.23,2a48.49,48.49,0,0,1,7.22,15.65C183.08,245.47,183,253,183,253Z"/><path class="cls-120" d="M179.3,272.12c-2.92-1.82-5-5.19-5.51-9.72-1.17-9.73,5-21.23,13.75-25.68,4.26-2.17,8.37-2.27,11.59-.68l-70.61-37.35c-3.15-1.36-7-1.19-11.1.91-8.76,4.41-14.9,15.91-13.75,25.68.59,4.91,2.93,8.43,6.24,10.13Z"/><path class="cls-45" d="M198.56,282.26l18.66-36.69-17.67-9.3-.42-.23c-3.22-1.59-7.28-1.49-11.59.68-8.77,4.45-14.92,15.95-13.75,25.68.54,4.54,2.59,7.89,5.51,9.72h0l1.2.64h.1Z"/><path class="cls-121" d="M210.29,281.66c8.77-4.46,14.94-15.94,13.76-25.66-.55-4.55-2.58-7.89-5.45-9.73a9.87,9.87,0,0,0-1.37-.71c-3.14-1.37-7.06-1.19-11.14.91-8.77,4.45-14.92,15.94-13.76,25.67.58,4.78,2.82,8.24,6,10S205.84,283.92,210.29,281.66Z"/><path class="cls-122" d="M209.94,278.72c7.27-3.71,12.44-13.28,11.47-21.39-.46-3.77-2.15-6.56-4.55-8.09a7.73,7.73,0,0,0-1.14-.6c-2.62-1.14-5.89-1-9.28.73-7.28,3.71-12.44,13.29-11.47,21.39.48,4,2.35,6.88,5,8.34S206.19,280.61,209.94,278.72Z"/><path class="cls-123" d="M209.41,274.38c5.13-2.6,8.73-9.32,8.05-15a7.53,7.53,0,0,0-3.21-5.69,5,5,0,0,0-.8-.41,7.6,7.6,0,0,0-6.51.51c-5.13,2.61-8.73,9.32-8.05,15a7.38,7.38,0,0,0,3.5,5.85A7.59,7.59,0,0,0,209.41,274.38Z"/><ellipse class="cls-124" cx="208.17" cy="264.04" rx="7.8" ry="5.46" transform="translate(-123.09 321.63) rotate(-61.61)"/><polygon class="cls-110" points="233.11 279.57 226.74 276.23 199.28 290.16 205.65 293.51 233.11 279.57"/><polygon class="cls-125" points="202.36 266.99 229.83 253.05 223.46 249.69 196.01 263.64 202.36 266.99"/><polygon class="cls-126" points="153.31 233.44 146.95 230.09 153.33 226.86 159.69 230.2 153.31 233.44"/><polygon class="cls-127" points="153.56 235.44 147.2 232.1 153.57 228.86 159.93 232.21 153.56 235.44"/><polygon class="cls-128" points="153.03 231.06 146.67 227.71 151.37 225.32 157.73 228.67 153.03 231.06"/><path class="cls-129" d="M153.32,233.46l-.29-2.38,4.7-2.39,2,1.53.24,2a43.44,43.44,0,0,0-3.64,18.12c.13,6,3.94,14.2,3.94,14.2l-2.36,1.19-.66.34C155.83,254.38,154.72,245.11,153.32,233.46Z"/><path class="cls-130" d="M207.26,261.27l13.45-6.83-.51-.28a11.83,11.83,0,0,0-7,1.34,20,20,0,0,0-6.48,5.46Z"/><path class="cls-131" d="M207.26,261.27l13.48-6.83a11.65,11.65,0,0,0-7,1.34A19.8,19.8,0,0,0,207.26,261.27Z"/><path class="cls-132" d="M102.27,199.06l13.45-6.84-.52-.27a11.65,11.65,0,0,0-7,1.34,19.72,19.72,0,0,0-6.48,5.46Z"/><path class="cls-133" d="M102.27,199.05l13.45-6.83a11.66,11.66,0,0,0-7,1.34A19.61,19.61,0,0,0,102.27,199.05Z"/><polygon class="cls-134" points="100.03 220.16 102.11 219.11 121.58 245.14 119.5 246.19 100.03 220.16"/><path class="cls-135" d="M205.64,293.48,202.36,267,196,263.61l.91,7.5-15.35,7.68L157.2,266,153,231l-6.37-3.35,4.2,35L119.5,246.19l-19.47-26v.29l-1.94-16.2-6.36-3.36,4.2,35,6.36,3.35v0l99,52h0ZM199,288l-.17-.09Z"/><path class="cls-135" d="M205.64,293.48,202.36,267,196,263.61l.91,7.5-15.35,7.68L157.2,266,153,231l-6.37-3.35,4.2,35L119.5,246.19l-19.47-26v.29l-1.94-16.2-6.36-3.36,4.2,35,6.36,3.35v0l99,52h0ZM199,288l-.17-.09Z"/><path class="cls-136" d="M226.47,274.05l-.16-.09Z"/><polygon class="cls-137" points="229.83 253.05 233.1 279.58 205.64 293.52 202.36 266.99 229.83 253.05"/><polygon class="cls-138" points="225.23 280.88 228.1 279.43 229.95 275.98 227.64 256.83 222.64 259.38 225.07 279.49 225.23 280.88"/><polygon class="cls-139" points="209.96 288.64 212.81 287.2 210.23 265.68 205.23 268.22 207.54 287.37 208.52 287.89 209.96 288.64"/><polygon class="cls-140" points="215.06 286.05 217.91 284.61 217.42 280.65 214.58 282.1 214.89 284.66 215.06 286.05"/><polygon class="cls-141" points="220.14 283.47 222.99 282.03 222.51 278.07 219.67 279.51 219.98 282.08 220.14 283.47"/><polygon class="cls-142" points="225.07 279.49 226.66 278.69 228.51 275.24 226.37 257.48 222.64 259.38 225.07 279.49"/><polygon class="cls-143" points="208.52 287.89 211.38 286.44 208.96 266.33 205.23 268.22 207.54 287.37 208.52 287.89"/><polygon class="cls-144" points="214.89 284.66 216.46 283.86 216.15 281.3 214.58 282.1 214.89 284.66"/><polygon class="cls-145" points="219.98 282.08 221.54 281.28 221.24 278.71 219.67 279.51 219.98 282.08"/><path class="cls-146" d="M266.72,197.54c-2.61,1.33-7.12,1.14-10.09-.43-1.49-.78-2.31-1.76-2.42-2.73h0l-1.05-7,14.28.66,1,7C268.61,196,268,196.87,266.72,197.54Z"/><path class="cls-147" d="M294.12,211.93c-2.61,1.32-7.12,1.13-10.09-.43-1.49-.78-2.31-1.77-2.42-2.73h0l-1.05-7,14.28.65,1,7C296,210.33,295.43,211.26,294.12,211.93Z"/><path class="cls-148" d="M265.71,190.61c2.61-1.32,2.31-3.64-.65-5.22s-7.5-1.76-10.11-.43-2.3,3.64.68,5.22S263.11,191.93,265.71,190.61Z"/><path class="cls-149" d="M263.24,189.31c1.41-.71,1.25-2-.36-2.82a6.68,6.68,0,0,0-5.45-.23c-1.41.72-1.26,2,.35,2.82A6.67,6.67,0,0,0,263.24,189.31Z"/><path class="cls-150" d="M293.1,205c2.6-1.32,2.31-3.64-.66-5.21s-7.49-1.76-10.1-.44-2.3,3.64.67,5.22S290.49,206.31,293.1,205Z"/><path class="cls-151" d="M290.63,203.7c1.41-.72,1.25-2-.36-2.82a6.68,6.68,0,0,0-5.45-.24c-1.41.72-1.25,2,.35,2.82A6.75,6.75,0,0,0,290.63,203.7Z"/><path class="cls-152" d="M369,239.89c-6.55,3.32-17.91,2.84-25.38-1.08-3.75-2-5.81-4.44-6.09-6.83h0L332,190.82,368,192.47l5.45,40.81C373.78,235.75,372.36,238.16,369,239.89Z"/><path class="cls-153" d="M283.64,283.2c-6.56,3.33-17.92,2.85-25.39-1.08-3.8-2-5.85-4.49-6.1-6.91l-5.45-41.09,35.88,1.65L288,276.89h0C288.35,279.26,286.9,281.55,283.64,283.2Z"/><path class="cls-154" d="M198.32,326.52c-6.56,3.33-17.92,2.85-25.39-1.07-3.75-2-5.81-4.45-6.09-6.84h0l-5.45-41.15,35.9,1.64,5.45,40.83C203.13,322.39,201.71,324.8,198.32,326.52Z"/><path class="cls-155" d="M363.46,199c6.55-3.33,5.81-9.2-1.65-13.12s-18.85-4.42-25.4-1.1-5.79,9.22,1.67,13.14S356.91,202.27,363.46,199Z"/><path class="cls-156" d="M357.24,195.68c3.55-1.82,3.15-5-.91-7.09s-10.15-2.42-13.73-.6-3.14,5,.91,7.09S353.71,197.48,357.24,195.68Z"/><path class="cls-157" d="M278.14,242.26c6.55-3.33,5.81-9.2-1.65-13.12s-18.85-4.41-25.4-1.09-5.79,9.21,1.67,13.13S271.59,245.59,278.14,242.26Z"/><path class="cls-158" d="M271.92,239c3.55-1.82,3.15-5-.91-7.09s-10.16-2.39-13.71-.59-3.15,5,.91,7.1S268.39,240.8,271.92,239Z"/><path class="cls-159" d="M192.82,285.58c6.55-3.33,5.81-9.2-1.65-13.12s-18.85-4.42-25.4-1.09-5.79,9.21,1.67,13.13S186.27,288.93,192.82,285.58Z"/><path class="cls-160" d="M186.6,282.31c3.55-1.82,3.15-5-.91-7.08s-10.16-2.38-13.71-.58-3.15,5,.91,7.08S183.07,284.11,186.6,282.31Z"/></g><path class="cls-161" d="M231.82,121.13a10.65,10.65,0,0,1-2.61.91c-.47.1-1,.18-1.43.24-.29,0-.61.06-.91.08H225a5.4,5.4,0,0,1-1.06-.07c-.6-.06-1.21-.14-1.81-.25H222a7.64,7.64,0,0,1-.91-.2c-.29-.08-.62-.16-.91-.25a14,14,0,0,1-2.44-1l-.11,0c-4.17-2.2-4.59-5.46-.91-7.34s10-1.6,14.21.6c2.33,1.23,3.49,2.79,3.42,4.26a1.93,1.93,0,0,1,0,.34,1.3,1.3,0,0,1-.08.34,2.56,2.56,0,0,1-.3.65h0a3.1,3.1,0,0,1-.47.61,5.47,5.47,0,0,1-1.55,1.1Zm-88.53,44.94c-3.64,1.82-9.92,1.6-14.1-.54h0C132.83,163.71,139.1,163.94,143.29,166.07ZM54.76,211a10.55,10.55,0,0,1-2.62.9,11.38,11.38,0,0,1-1.42.24c-.3,0-.6.06-.91.08H47.93a5.72,5.72,0,0,1-1.07-.06c-.6-.06-1.21-.15-1.81-.26H45c-.31-.06-.62-.12-.9-.2s-.62-.17-.91-.25a15.46,15.46,0,0,1-2.46-1l-.11-.06c-4.19-2.2-4.6-5.46-.91-7.34s10-1.59,14.22.6c2.33,1.22,3.49,2.79,3.42,4.25a2,2,0,0,1,0,.35,1.4,1.4,0,0,1-.08.34,2.56,2.56,0,0,1-.3.65h0a3.42,3.42,0,0,1-.47.61A5.5,5.5,0,0,1,54.9,211Zm308-21.13c-2.5,1.27-6.26,1.55-9.71.91a17,17,0,0,1-4.39-1.45l-.11-.05c-4.19-2.2-4.6-5.46-.91-7.35s10-1.59,14.2.6c3.09,1.62,4.11,3.84,3,5.63a3.8,3.8,0,0,1-.47.59,5.6,5.6,0,0,1-1.54,1.11ZM185.71,279.84c-2.5,1.27-6.25,1.55-9.71.91a16.08,16.08,0,0,1-1.82-.44,15.81,15.81,0,0,1-2.54-1l-.11-.05c-4.18-2.2-4.6-5.46-.91-7.35s10-1.59,14.21.61c3.09,1.62,4.12,3.83,3,5.62a3.74,3.74,0,0,1-.46.59,5.5,5.5,0,0,1-1.55,1.11ZM207.66,292l165.43-84c8.49-4.3,12.19-10.18,11.07-15.84l-.64-5.71-.09-.78-4-1.12L225.06,105.82l-202.4,99.6-3.81.76.21,1.94h0l.6,5.46.09.62h0c.6,4.45,4.14,8.81,10.66,12.24l124.13,65.29c14.52,7.63,38.31,7.72,53.12.2Zm66.58-57.07c-2.5,1.26-6.25,1.54-9.7.91a16.08,16.08,0,0,1-1.82-.44,15.55,15.55,0,0,1-2.55-1h.05c3.64-1.82,9.93-1.59,14.09.55Z"/><path class="cls-162" d="M185.75,279.78c3.64-1.87,3.2-5.13-1-7.32s-10.54-2.47-14.21-.61-3.25,5.14.91,7.34l.11.06h0C175.27,277.38,181.58,277.64,185.75,279.78Z"/><path class="cls-163" d="M170.57,271.85c3.64-1.82,10-1.6,14.21.61,3.09,1.61,4.11,3.82,3,5.62a3.29,3.29,0,0,1-.47.59,5.66,5.66,0,0,1-1.54,1.11h0c-2.5,1.27-6.26,1.54-9.71.91a18.56,18.56,0,0,1-1.82-.44,15.1,15.1,0,0,1-2.54-1l-.11-.06C167.32,277,166.91,273.71,170.57,271.85ZM143.29,166.06h0c-3.64,1.81-9.92,1.6-14.1-.55h0c3.68-1.85,10-1.59,14.14.55ZM347.64,182c3.64-1.82,10-1.59,14.2.6,3.1,1.62,4.12,3.84,3,5.63a3.8,3.8,0,0,1-.47.59,5.6,5.6,0,0,1-1.54,1.11h0c-2.5,1.27-6.27,1.55-9.71.91a15.58,15.58,0,0,1-1.82-.44,16.46,16.46,0,0,1-2.55-1,.24.24,0,0,0-.11-.06C344.42,187.08,344,183.82,347.64,182Zm-308,21.13c3.63-1.82,10-1.59,14.21.6,2.34,1.22,3.49,2.79,3.43,4.25a2,2,0,0,1,0,.35c0,.11,0,.23-.08.34a2.56,2.56,0,0,1-.3.65h0a4,4,0,0,1-.48.61A5.45,5.45,0,0,1,54.86,211h0a10.58,10.58,0,0,1-2.62.91c-.46.1-.91.17-1.42.23-.3,0-.6.07-.91.09H48a4.92,4.92,0,0,1-1.07-.07c-.6-.06-1.21-.14-1.81-.25h-.1c-.31-.07-.62-.13-.9-.21s-.63-.16-.91-.25a14.61,14.61,0,0,1-2.56-1l-.11-.06C36.36,208.22,36,204.94,39.62,203.08Zm177.07-89.9c3.63-1.87,10-1.6,14.21.6,2.33,1.23,3.48,2.79,3.42,4.26a1.93,1.93,0,0,1,0,.34,1.87,1.87,0,0,1-.08.34,3.93,3.93,0,0,1-.3.66h0a4,4,0,0,1-.48.61,5.62,5.62,0,0,1-1.54,1.1h0a10.62,10.62,0,0,1-2.61.9c-.47.1-.91.18-1.43.24-.29,0-.61.06-.91.08h-1.89a5.4,5.4,0,0,1-1.06-.07c-.6,0-1.21-.14-1.81-.25h-.09a6.08,6.08,0,0,1-.91-.2c-.29-.08-.63-.15-.91-.25a13.94,13.94,0,0,1-2.44-1l-.11-.06C213.47,118.32,213,115,216.69,113.18Zm-73.36,52.88c3.64-1.82,3.2-5.13-1-7.33s-10.55-2.46-14.21-.6-3.26,5.15.91,7.34l.1.06h0C132.87,163.66,139.15,163.92,143.33,166.06Zm63.5,118.83,165.45-84c6.36-3.23,10-7.35,11-11.61a10,10,0,0,0,.24-2.89c-.3-4.69-3.88-9.31-10.74-12.95L248.69,108.29c-14.55-7.64-38.32-7.72-53.12-.2l-165.45,84c-8.59,4.37-12.28,10.34-11,16.06h0A11.86,11.86,0,0,0,20.18,211c1.65,3.09,4.78,6,9.42,8.44l124.1,65.17C168.24,292.32,192,292.41,206.83,284.89Zm53.32-50.59h0c3.64-1.82,9.93-1.59,14.1.54h-.05c-2.5,1.27-6.25,1.55-9.7.91a18.52,18.52,0,0,1-1.82-.43A16.37,16.37,0,0,1,260.15,234.3Z"/><path class="cls-164" d="M362.82,209.88c3.64-1.82,3.2-5.14-1-7.33s-10.54-2.46-14.2-.6-3.26,5.15.91,7.35l.11,0h0C352.35,207.49,358.65,207.74,362.82,209.88Z"/><path class="cls-165" d="M231.86,121.1c3.64-1.82,3.2-5.13-1-7.27s-10.54-2.48-14.21-.6-3.25,5.14.91,7.34l.1.05h0C221.41,118.71,227.68,119,231.86,121.1Z"/><path class="cls-166" d="M143.33,166.06c3.64-1.82,3.2-5.13-1-7.33s-10.55-2.46-14.21-.6-3.26,5.15.91,7.34l.1.06h0C132.87,163.66,139.15,163.92,143.33,166.06Z"/><path class="cls-167" d="M54.79,231c3.64-1.82,3.21-5.14-1-7.33s-10.55-2.47-14.21-.6-3.25,5.14.91,7.34l.11.06h0C44.32,228.61,50.62,228.91,54.79,231Z"/><path class="cls-168" d="M274.29,234.82a4,4,0,0,0,.45-.25,4.94,4.94,0,0,0,1.08-.85,3.45,3.45,0,0,0,.45-.56h0a2.67,2.67,0,0,0,.32-.71,1,1,0,0,0,.07-.24.48.48,0,0,1,0-.17,1.13,1.13,0,0,0,0-.26,1.88,1.88,0,0,0,0-.58,2.44,2.44,0,0,0-.14-.53c0-.07-.06-.14-.09-.21a1.2,1.2,0,0,0-.11-.23,1,1,0,0,0-.1-.17,7.2,7.2,0,0,0-2.94-2.53c-4.19-2.2-10.54-2.46-14.21-.6s-3.25,5.15.91,7.34l.11,0h.05C263.82,232.43,270.12,232.69,274.29,234.82Z"/><path class="cls-168" d="M274.29,234.82a4,4,0,0,0,.45-.25,4.94,4.94,0,0,0,1.08-.85,3.45,3.45,0,0,0,.45-.56h0a2.67,2.67,0,0,0,.32-.71,1,1,0,0,0,.07-.24.48.48,0,0,1,0-.17,1.13,1.13,0,0,0,0-.26,1.88,1.88,0,0,0,0-.58,2.44,2.44,0,0,0-.14-.53c0-.07-.06-.14-.09-.21a1.2,1.2,0,0,0-.11-.23,1,1,0,0,0-.1-.17,7.2,7.2,0,0,0-2.94-2.53c-4.19-2.2-10.54-2.46-14.21-.6s-3.25,5.15.91,7.34l.11,0h.05C263.82,232.43,270.12,232.69,274.29,234.82Z"/><path class="cls-168" d="M274.29,234.82a4,4,0,0,0,.45-.25,4.94,4.94,0,0,0,1.08-.85,3.45,3.45,0,0,0,.45-.56h0a2.67,2.67,0,0,0,.32-.71,1,1,0,0,0,.07-.24.48.48,0,0,1,0-.17,1.13,1.13,0,0,0,0-.26,1.88,1.88,0,0,0,0-.58,2.44,2.44,0,0,0-.14-.53c0-.07-.06-.14-.09-.21a1.2,1.2,0,0,0-.11-.23,1,1,0,0,0-.1-.17,7.2,7.2,0,0,0-2.94-2.53c-4.19-2.2-10.54-2.46-14.21-.6s-3.25,5.15.91,7.34l.11,0h.05C263.82,232.43,270.12,232.69,274.29,234.82Z"/><path class="cls-168" d="M274.29,234.82a4,4,0,0,0,.45-.25,4.94,4.94,0,0,0,1.08-.85,3.45,3.45,0,0,0,.45-.56h0a2.67,2.67,0,0,0,.32-.71,1,1,0,0,0,.07-.24.48.48,0,0,1,0-.17,1.13,1.13,0,0,0,0-.26,1.88,1.88,0,0,0,0-.58,2.44,2.44,0,0,0-.14-.53c0-.07-.06-.14-.09-.21a1.2,1.2,0,0,0-.11-.23,1,1,0,0,0-.1-.17,7.2,7.2,0,0,0-2.94-2.53c-4.19-2.2-10.54-2.46-14.21-.6s-3.25,5.15.91,7.34l.11,0h.05C263.82,232.43,270.12,232.69,274.29,234.82Z"/></g></g></svg>