<?xml version="1.0" encoding="UTF-8"?>
<svg id="Layer_2" xmlns="http://www.w3.org/2000/svg" viewBox="0 0 381.74 60">
  <defs>
    <style>
      .cls-1 {
        fill: #fff;
      }

      .cls-2 {
        fill: #e30427;
      }
    </style>
  </defs>
  <g id="Layer_1-2">
    <g>
      <g>
        <path class="cls-1"
          d="m291.92,39.16c-.37-.28-.56-.7-.56-1.27v-15.48c0-.47.2-.87.59-1.2s.82-.49,1.29-.49h6.24c1.98,0,3.67.45,5.07,1.34,1.4.89,2.45,2.05,3.15,3.49.7,1.44,1.05,2.97,1.05,4.6s-.34,3.17-1.04,4.6-1.72,2.6-3.08,3.49c-1.36.89-3,1.34-4.9,1.34h-6.48c-.51,0-.95-.14-1.32-.42Zm3.04-2.9h4.52c1.18,0,2.2-.29,3.05-.89.85-.59,1.5-1.36,1.93-2.3.44-.94.65-1.95.65-3.02s-.21-2.01-.64-2.93c-.43-.92-1.07-1.66-1.92-2.22-.85-.56-1.88-.84-3.08-.84h-4.52v12.21Z" />
        <path class="cls-1"
          d="m334.51,35.34c-.94,1.48-2.15,2.6-3.64,3.37-1.49.76-3.06,1.14-4.71,1.14-1.74.07-3.4-.26-4.97-.99-1.57-.74-2.85-1.86-3.83-3.37-.98-1.51-1.47-3.32-1.47-5.45s.49-3.94,1.47-5.45c.98-1.51,2.26-2.64,3.83-3.41,1.57-.76,3.23-1.14,4.97-1.14,1.67.09,3.25.53,4.74,1.31,1.49.78,2.7,1.91,3.62,3.39.93,1.48,1.39,3.25,1.39,5.3s-.47,3.82-1.4,5.3Zm-3.11-8.81c-.63-.98-1.43-1.72-2.42-2.21-.99-.49-2.03-.74-3.12-.74s-2.07.24-3.05.74-1.78,1.23-2.4,2.21c-.62.98-.93,2.15-.93,3.51s.31,2.53.93,3.5c.62.97,1.42,1.71,2.4,2.21.98.5,2,.75,3.05.75s2.13-.25,3.12-.75c.99-.5,1.8-1.24,2.42-2.21.63-.97.94-2.14.94-3.5s-.31-2.53-.94-3.51Z" />
        <path class="cls-1"
          d="m347.44,38.46c-1.44-.87-2.5-2.04-3.2-3.51-.7-1.47-1.05-3.12-1.05-4.93s.37-3.44,1.1-4.92c.74-1.48,1.83-2.66,3.27-3.54,1.44-.88,3.17-1.32,5.19-1.32,1.2,0,2.29.19,3.28.57.99.38,1.97,1,2.96,1.85.18.18.33.39.44.63.11.24.16.48.16.74,0,.51-.17.94-.52,1.28-.36.31-.76.46-1.2.46-.51,0-.94-.18-1.31-.54-.53-.56-1.09-.95-1.69-1.17-.6-.22-1.31-.33-2.13-.33-1.34,0-2.48.29-3.42.86-.94.57-1.63,1.34-2.1,2.29-.46.95-.69,2-.69,3.15s.23,2.24.69,3.23,1.16,1.78,2.1,2.37c.94.59,2.07.89,3.42.89,1.53,0,2.94-.58,4.25-1.74.31-.24.66-.35,1.06-.35.29,0,.57.06.83.19.26.13.47.29.61.49.25.35.38.72.38,1.12,0,.51-.23.99-.68,1.44-.87.82-1.84,1.38-2.9,1.68s-2.25.45-3.56.45c-2.11,0-3.88-.44-5.31-1.31Z" />
        <path class="cls-1"
          d="m377.53,32.85c-.39-.34-.87-.62-1.44-.83-.57-.21-1.35-.45-2.33-.72-1.36-.38-2.48-.76-3.34-1.13-.86-.37-1.6-.93-2.21-1.66s-.91-1.7-.91-2.9c0-.16.02-.43.06-.79.13-1.07.54-1.98,1.23-2.72.69-.74,1.55-1.3,2.57-1.68,1.03-.37,2.12-.56,3.28-.56,1,0,1.96.14,2.87.41.92.27,1.72.67,2.41,1.2.51.4.76.87.76,1.42,0,.42-.16.79-.46,1.1-.31.32-.67.48-1.09.48-.34,0-.66-.11-.95-.33-.49-.31-1.1-.56-1.81-.76-.72-.2-1.42-.3-2.11-.3-.84,0-1.55.16-2.14.49-.59.33-.96.84-1.1,1.53-.02.09-.03.22-.03.38,0,.53.19.97.57,1.32s.86.64,1.43.84c.57.21,1.36.45,2.36.72,1.4.38,2.53.76,3.41,1.13.87.37,1.62.93,2.25,1.68.63.74.94,1.72.94,2.92,0,1.38-.35,2.52-1.06,3.43s-1.64,1.58-2.79,2c-1.15.43-2.4.64-3.75.64-1.24,0-2.43-.17-3.57-.52-1.14-.34-2.08-.82-2.81-1.42-.47-.38-.71-.89-.71-1.53,0-.44.11-.82.33-1.14.44-.44.87-.65,1.31-.65.36,0,.74.15,1.12.46.58.4,1.33.74,2.23,1.01s1.78.41,2.62.41c.96,0,1.77-.21,2.41-.63.64-.42,1.02-1.08,1.13-1.99-.05-.53-.28-.96-.67-1.31Z" />
      </g>
      <g>
        <g>
          <path class="cls-2"
            d="m65.52,39.1c-.35-.32-.52-.72-.52-1.21v-15.48c0-.51.17-.92.52-1.23.34-.31.82-.46,1.42-.46.47,0,.87.16,1.19.48.32.32.48.72.48,1.21v5.94h8.88v-5.94c0-.47.18-.87.54-1.2s.8-.49,1.31-.49c.47,0,.87.16,1.2.48s.49.72.49,1.21v15.48c0,.47-.16.87-.49,1.2-.33.33-.73.49-1.2.49s-.92-.16-1.29-.49c-.37-.33-.56-.73-.56-1.2v-5.97h-8.88v5.97c0,.47-.16.87-.48,1.2-.32.33-.71.49-1.19.49-.6,0-1.07-.16-1.42-.48Z" />
          <path class="cls-2"
            d="m89.71,39.63c-.29,0-.51-.02-.65-.05-.33-.18-.59-.42-.79-.72-.2-.3-.3-.63-.3-.99,0-.31.07-.61.22-.9l7.82-15.29c.18-.36.43-.64.74-.83.31-.19.64-.29.98-.29s.67.1.97.29.53.47.7.83l7.68,15.29c.14.27.22.56.22.87,0,.51-.2.94-.59,1.28-.39.35-.83.52-1.32.52-.31,0-.59-.08-.84-.25-.26-.16-.46-.41-.63-.74l-1.2-2.4h-10.05l-1.17,2.4c-.31.65-.9.98-1.77.98Zm7.98-13.71l-3.35,6.73h6.43l-3.08-6.73Z" />
          <path class="cls-2"
            d="m117.24,39.14c-.37.33-.8.49-1.29.49s-.91-.15-1.25-.46c-.34-.31-.52-.74-.52-1.31v-15.48c0-.47.16-.87.48-1.19.32-.32.7-.48,1.16-.48h7.25c1.27,0,2.37.29,3.31.87.94.58,1.64,1.34,2.13,2.29.48.94.72,1.94.72,3,0,1.18-.3,2.26-.91,3.24-.61.98-1.5,1.71-2.68,2.18l3.62,4.41c.25.38.38.77.38,1.17,0,.49-.18.9-.53,1.24-.35.34-.78.5-1.27.5-.64,0-1.18-.29-1.64-.87l-4.11-5.89h-4.28v4.93c0,.56-.19,1.01-.56,1.34Zm5.82-9.4c.85,0,1.53-.29,2.02-.87.49-.58.74-1.26.74-2.04s-.24-1.42-.72-1.98c-.48-.55-1.16-.83-2.03-.83h-5.26v5.72h5.26Z" />
          <path class="cls-2"
            d="m137.79,39.16c-.37-.28-.56-.7-.56-1.27v-15.48c0-.47.19-.87.59-1.2s.82-.49,1.29-.49h6.24c1.98,0,3.67.45,5.07,1.34,1.4.89,2.45,2.05,3.15,3.49.7,1.44,1.05,2.97,1.05,4.6s-.35,3.17-1.04,4.6c-.69,1.44-1.72,2.6-3.08,3.49-1.36.89-3,1.34-4.9,1.34h-6.49c-.51,0-.95-.14-1.32-.42Zm3.04-2.9h4.52c1.18,0,2.2-.29,3.05-.89.85-.59,1.5-1.36,1.93-2.3.44-.94.65-1.95.65-3.02s-.21-2.01-.64-2.93c-.43-.92-1.07-1.66-1.92-2.22-.85-.56-1.88-.84-3.08-.84h-4.52v12.21Z" />
          <path class="cls-2"
            d="m181.48,33.07l4.06-11.23c.16-.4.39-.7.68-.91.29-.21.62-.31.98-.31.47,0,.89.16,1.24.48.35.32.53.72.53,1.21,0,.22-.05.46-.14.74l-5.39,14.63c-.24.76-.49,1.29-.76,1.58-.27.29-.64.44-1.12.44-.44,0-.77-.11-.99-.34-.23-.23-.5-.64-.83-1.24l-4.74-10.76-4.52,10.6c-.27.62-.55,1.07-.83,1.36-.28.29-.65.44-1.1.44s-.82-.15-1.1-.45c-.28-.3-.54-.77-.78-1.4l-5.29-14.85c-.09-.27-.14-.51-.14-.71,0-.53.18-.94.54-1.25.36-.31.79-.46,1.28-.46.36,0,.7.1,1.01.31.31.21.53.51.65.91l4.03,11.23,4.82-11.23c.16-.4.39-.71.67-.94.28-.23.58-.34.89-.34s.6.1.87.3c.27.2.49.5.65.9l4.82,11.31Z" />
          <path class="cls-2"
            d="m195.05,39.63c-.29,0-.51-.02-.65-.05-.33-.18-.59-.42-.79-.72-.2-.3-.3-.63-.3-.99,0-.31.07-.61.22-.9l7.82-15.29c.18-.36.43-.64.74-.83.31-.19.64-.29.98-.29s.67.1.97.29c.3.19.53.47.69.83l7.68,15.29c.15.27.22.56.22.87,0,.51-.2.94-.59,1.28-.39.35-.83.52-1.32.52-.31,0-.59-.08-.84-.25s-.46-.41-.63-.74l-1.2-2.4h-10.05l-1.17,2.4c-.31.65-.9.98-1.77.98Zm7.98-13.71l-3.35,6.73h6.43l-3.08-6.73Z" />
          <path class="cls-2"
            d="m222.58,39.14c-.37.33-.8.49-1.29.49s-.91-.15-1.25-.46c-.35-.31-.52-.74-.52-1.31v-15.48c0-.47.16-.87.48-1.19s.7-.48,1.16-.48h7.25c1.27,0,2.37.29,3.31.87.94.58,1.64,1.34,2.13,2.29.48.94.72,1.94.72,3,0,1.18-.3,2.26-.91,3.24s-1.5,1.71-2.68,2.18l3.62,4.41c.25.38.38.77.38,1.17,0,.49-.18.9-.53,1.24-.35.34-.78.5-1.27.5-.64,0-1.18-.29-1.63-.87l-4.11-5.89h-4.28v4.93c0,.56-.19,1.01-.56,1.34Zm5.82-9.4c.85,0,1.53-.29,2.02-.87.49-.58.74-1.26.74-2.04s-.24-1.42-.72-1.98c-.48-.55-1.16-.83-2.03-.83h-5.26v5.72h5.26Z" />
          <path class="cls-2"
            d="m242.76,22.36c0-.53.18-.94.54-1.25s.79-.46,1.28-.46.91.15,1.25.45c.34.3.52.72.52,1.27v15.56c0,.54-.18.97-.53,1.27-.35.3-.79.45-1.29.45-.47,0-.89-.15-1.24-.45-.35-.3-.53-.72-.53-1.27v-15.56Z" />
          <path class="cls-2"
            d="m272.96,35.34c-.94,1.48-2.15,2.6-3.64,3.37-1.49.76-3.06,1.14-4.71,1.14-1.74.07-3.4-.26-4.97-.99-1.57-.74-2.85-1.86-3.83-3.37-.98-1.51-1.47-3.32-1.47-5.45s.49-3.94,1.47-5.45c.98-1.51,2.26-2.64,3.83-3.41,1.57-.76,3.23-1.14,4.97-1.14,1.67.09,3.25.53,4.74,1.31,1.49.78,2.7,1.91,3.62,3.39.93,1.48,1.39,3.25,1.39,5.3s-.47,3.82-1.4,5.3Zm-3.11-8.81c-.63-.98-1.43-1.72-2.42-2.21-.99-.49-2.03-.74-3.12-.74s-2.07.24-3.05.74-1.78,1.23-2.4,2.21c-.62.98-.93,2.15-.93,3.51s.31,2.53.93,3.5c.62.97,1.42,1.71,2.4,2.21.98.5,2,.75,3.05.75s2.13-.25,3.12-.75c.99-.5,1.8-1.24,2.42-2.21.63-.97.94-2.14.94-3.5s-.31-2.53-.94-3.51Z" />
        </g>
        <g>
          <path class="cls-2"
            d="m5.4,0C2.42,0,0,2.42,0,5.4h0c0,2.28,1.45,4.32,3.6,5.08v13.52c0,.99.81,1.8,1.8,1.8.19,0,.37-.03.55-.09l13.77-4.44c1.02,1.34,2.6,2.12,4.28,2.13,2.98,0,5.4-2.42,5.4-5.4h0c0-2.98-2.42-5.4-5.4-5.4-2.92,0-5.31,2.33-5.39,5.25l-11.41,3.68v-11.05c2.15-.76,3.59-2.79,3.6-5.08C10.8,2.42,8.38,0,5.4,0h0s0,0,0,0Z" />
          <path class="cls-2"
            d="m42.6,60c2.98,0,5.4-2.42,5.4-5.4h0c0-2.28-1.45-4.32-3.6-5.08v-13.52c0-.99-.81-1.8-1.8-1.8-.19,0-.37.03-.55.09l-13.77,4.44c-1.02-1.34-2.6-2.12-4.28-2.13-2.98,0-5.4,2.42-5.4,5.4h0c0,2.98,2.42,5.4,5.4,5.4h0c2.92,0,5.31-2.33,5.39-5.25l11.41-3.68v11.05c-2.15.76-3.59,2.79-3.6,5.08,0,2.98,2.42,5.4,5.4,5.4h0Z" />
          <path class="cls-1"
            d="m42.6,0c-2.98,0-5.4,2.42-5.4,5.4h0c0,2.29,1.44,4.33,3.6,5.09v12.2L4.85,34.29c-.74.24-1.25.93-1.24,1.71v13.51C1.44,50.27,0,52.31,0,54.6c0,2.98,2.42,5.4,5.4,5.4h0c2.98,0,5.4-2.42,5.4-5.4h0c0-2.29-1.44-4.33-3.6-5.09v-12.2l35.95-11.6c.74-.24,1.25-.93,1.25-1.71v-13.52c2.15-.76,3.6-2.8,3.6-5.09C48,2.42,45.58,0,42.6,0h0s0,0,0,0Z" />
        </g>
      </g>
    </g>
  </g>
</svg>
