<?xml version="1.0" encoding="UTF-8" standalone="no"?>
<!DOCTYPE svg PUBLIC "-//W3C//DTD SVG 1.1//EN" "http://www.w3.org/Graphics/SVG/1.1/DTD/svg11.dtd">
<svg width="100%" height="100%" viewBox="0 0 250 61" version="1.1" xmlns="http://www.w3.org/2000/svg" xmlns:xlink="http://www.w3.org/1999/xlink" xml:space="preserve" xmlns:serif="http://www.serif.com/" style="fill-rule:evenodd;clip-rule:evenodd;stroke-linejoin:round;stroke-miterlimit:2;">
    <g transform="matrix(1,0,0,1,-47.3,-47.51)">
        <path d="M51.43,101.32C51.413,100.067 52.428,99.022 53.68,99C54.551,99.022 55.334,99.55 55.68,100.35C55.813,100.642 55.881,100.959 55.88,101.28C55.88,102.514 54.864,103.53 53.63,103.53C52.396,103.53 51.38,102.514 51.38,101.28M88.31,51.49C89.548,51.501 90.56,52.522 90.56,53.76C90.56,53.767 90.56,53.773 90.56,53.78C90.56,55.014 89.544,56.03 88.31,56.03C87.076,56.03 86.06,55.014 86.06,53.78C86.06,53.773 86.06,53.767 86.06,53.76C86.06,52.522 87.072,51.501 88.31,51.49M55.73,95.22L55.73,85.22L89,73.92C89.848,73.627 90.415,72.817 90.4,71.92L90.4,59.87C92.965,58.995 94.7,56.57 94.7,53.86C94.7,50.377 91.834,47.51 88.35,47.51C84.866,47.51 82,50.377 82,53.86C82,56.57 83.735,58.995 86.3,59.87L86.3,70.45L53,81.75C52.15,82.04 51.582,82.852 51.6,83.75L51.6,95.25C49.035,96.125 47.3,98.55 47.3,101.26C47.3,104.743 50.166,107.61 53.65,107.61C57.134,107.61 60,104.743 60,101.26C60,98.55 58.265,96.125 55.7,95.25" style="fill:rgb(107,106,106);fill-rule:nonzero;"/>
        <path d="M55.93,53.78C55.926,54.1 55.858,54.416 55.73,54.71C55.362,55.532 54.541,56.064 53.64,56.064C52.384,56.064 51.35,55.03 51.35,53.774C51.35,52.518 52.384,51.484 53.64,51.484C54.896,51.484 55.93,52.518 55.93,53.774C55.93,53.776 55.93,53.778 55.93,53.78M71,62.94C72.251,62.94 73.28,63.969 73.28,65.22C73.28,66.471 72.251,67.5 71,67.5L70.79,67.5C69.64,67.368 68.762,66.383 68.762,65.225C68.762,64.59 69.026,63.983 69.49,63.55C69.899,63.166 70.439,62.952 71,62.95M51.63,59.87L51.63,71.11C51.629,71.776 51.945,72.404 52.48,72.8C52.827,73.056 53.248,73.193 53.68,73.19C53.902,73.193 54.122,73.156 54.33,73.08L65.96,69.08C67.136,70.66 68.99,71.598 70.96,71.61C70.997,71.611 71.033,71.611 71.07,71.611C74.608,71.611 77.52,68.699 77.52,65.161C77.52,61.623 74.608,58.711 71.07,58.711C67.543,58.711 64.637,61.603 64.62,65.13L55.7,68.13L55.7,59.87C58.265,58.995 60,56.57 60,53.86C60,50.377 57.134,47.51 53.65,47.51C50.166,47.51 47.3,50.377 47.3,53.86C47.3,56.57 49.035,58.995 51.6,59.87" style="fill:rgb(227,4,39);fill-rule:nonzero;"/>
        <path d="M86.06,101.32C86.059,100.999 86.127,100.682 86.26,100.39C86.611,99.571 87.419,99.038 88.31,99.038C89.201,99.038 90.009,99.571 90.36,100.39C90.493,100.682 90.561,100.999 90.56,101.32C90.56,102.554 89.544,103.57 88.31,103.57C87.076,103.57 86.06,102.554 86.06,101.32M71,92.73C69.803,92.651 68.861,91.644 68.861,90.445C68.861,89.246 69.803,88.239 71,88.16L71.21,88.16C72.354,88.292 73.223,89.279 73.21,90.43C73.211,91.067 72.946,91.676 72.48,92.11C72.071,92.494 71.531,92.708 70.97,92.71M90.33,95.2L90.33,84.56C90.331,83.894 90.015,83.266 89.48,82.87C88.95,82.473 88.256,82.364 87.63,82.58L76,86.54C74.825,84.957 72.971,84.016 71,84C70.963,83.999 70.927,83.999 70.89,83.999C67.352,83.999 64.44,86.911 64.44,90.449C64.44,93.987 67.352,96.899 70.89,96.899C74.417,96.899 77.323,94.007 77.34,90.48L86.26,87.48L86.26,95.25C83.695,96.125 81.96,98.55 81.96,101.26C81.96,104.743 84.826,107.61 88.31,107.61C91.794,107.61 94.66,104.743 94.66,101.26C94.66,98.55 92.925,96.125 90.36,95.25" style="fill:rgb(227,4,39);fill-rule:nonzero;"/>
        <path d="M124.92,68.18C124.414,68.155 123.917,68.323 123.53,68.65C123.202,68.926 123.009,69.331 123,69.76L123,76L115.67,76L115.67,69.76C115.665,69.338 115.479,68.937 115.16,68.66C114.797,68.331 114.319,68.159 113.83,68.18C113.331,68.16 112.842,68.328 112.46,68.65C112.123,68.922 111.922,69.328 111.91,69.76L111.91,85.35C111.919,85.786 112.121,86.196 112.46,86.47C112.842,86.792 113.331,86.96 113.83,86.94C114.319,86.961 114.797,86.789 115.16,86.46C115.482,86.181 115.668,85.776 115.67,85.35L115.67,79.48L123,79.48L123,85.35C123.008,85.782 123.201,86.19 123.53,86.47C123.917,86.797 124.414,86.965 124.92,86.94C125.4,86.954 125.868,86.786 126.23,86.47C126.559,86.19 126.752,85.782 126.76,85.35L126.76,69.76C126.753,69.329 126.555,68.922 126.22,68.65C125.865,68.33 125.398,68.161 124.92,68.18" style="fill:rgb(227,4,39);fill-rule:nonzero;"/>
        <path d="M166.25,74L166.25,74.52C166.257,75.067 166,75.585 165.56,75.91C164.818,76.357 163.953,76.557 163.09,76.48L159.92,76.48L159.92,71.8L163.09,71.8C163.954,71.72 164.82,71.931 165.55,72.4C166.027,72.806 166.287,73.414 166.25,74.04M167.25,78.46C168.09,78.146 168.815,77.584 169.33,76.85C169.797,76.076 170.033,75.184 170.01,74.28L170.01,74.09C170.022,73.311 169.897,72.536 169.64,71.8C169.396,71.109 168.984,70.49 168.44,70C167.815,69.461 167.077,69.068 166.28,68.85C165.244,68.567 164.174,68.432 163.1,68.45L158.1,68.45C157.597,68.427 157.104,68.595 156.72,68.92C156.384,69.196 156.187,69.606 156.18,70.04L156.18,85.27C156.193,85.709 156.385,86.125 156.71,86.42C157.474,87.081 158.608,87.114 159.41,86.5C159.738,86.233 159.929,85.833 159.93,85.41L159.93,79.76L163.93,79.76L166.93,86.2C167.15,86.563 167.513,86.818 167.93,86.9C168.077,86.94 168.228,86.96 168.38,86.96C168.708,86.953 169.029,86.871 169.32,86.72C169.768,86.477 170.121,86.089 170.32,85.62C170.504,85.228 170.466,84.766 170.22,84.41L167.25,78.46Z" style="fill:rgb(227,4,39);fill-rule:nonzero;"/>
        <path d="M187.38,75.94L187.38,79.57C187.441,80.561 187.077,81.533 186.38,82.24C185.624,82.888 184.644,83.218 183.65,83.16L180.8,83.16L180.8,72L183.65,72C184.655,71.926 185.644,72.291 186.36,73C187.062,73.813 187.421,74.868 187.36,75.94M189.36,70.74C188.708,70.014 187.902,69.443 187,69.07C185.951,68.638 184.824,68.427 183.69,68.45L179,68.45C178.489,68.425 177.988,68.597 177.6,68.93C177.278,69.21 177.089,69.613 177.08,70.04L177.08,85.04C177.089,85.467 177.278,85.87 177.6,86.15C177.988,86.483 178.489,86.655 179,86.63L183.68,86.63C184.81,86.663 185.936,86.484 187,86.1C187.885,85.744 188.683,85.202 189.34,84.51C189.958,83.827 190.422,83.018 190.7,82.14C190.997,81.212 191.145,80.244 191.14,79.27L191.14,76.21C191.146,75.194 190.997,74.182 190.7,73.21C190.432,72.295 189.967,71.448 189.34,70.73" style="fill:rgb(227,4,39);fill-rule:nonzero;"/>
        <path d="M236.79,79.49L232.66,79.49L234.71,73.49L236.79,79.49ZM237.28,69.49C237.28,69.49 236.8,68.2 234.71,68.2C232.62,68.2 232.13,69.52 232.13,69.52L226.81,84.8C226.703,85.209 226.772,85.644 227,86C227.286,86.422 227.723,86.719 228.22,86.83C228.396,86.877 228.578,86.9 228.76,86.9C229.052,86.9 229.34,86.832 229.6,86.7C229.988,86.513 230.289,86.183 230.44,85.78L231.44,82.78L237.87,82.78L238.87,85.78C238.998,86.187 239.292,86.522 239.68,86.7C240.118,86.914 240.62,86.96 241.09,86.83C241.59,86.731 242.028,86.431 242.3,86C242.536,85.636 242.605,85.188 242.49,84.77L237.28,69.49Z" style="fill:rgb(227,4,39);fill-rule:nonzero;"/>
        <path d="M259.48,74L259.48,74.52C259.487,75.067 259.23,75.585 258.79,75.91C258.052,76.357 257.19,76.556 256.33,76.48L253.16,76.48L253.16,71.8L256.33,71.8C257.191,71.719 258.054,71.931 258.78,72.4C259.257,72.806 259.517,73.414 259.48,74.04M260.48,78.46C261.321,78.149 262.048,77.587 262.56,76.85C263.032,76.078 263.268,75.184 263.24,74.28L263.24,74.09C263.252,73.311 263.127,72.536 262.87,71.8C262.626,71.109 262.214,70.49 261.67,70C261.045,69.461 260.307,69.068 259.51,68.85C258.074,68.571 256.613,68.437 255.15,68.45L251.33,68.45C250.831,68.43 250.342,68.598 249.96,68.92C249.625,69.181 249.421,69.576 249.4,70L249.4,85.27C249.412,85.712 249.608,86.128 249.94,86.42C250.31,86.774 250.809,86.962 251.32,86.94C251.798,86.956 252.267,86.8 252.64,86.5C252.964,86.231 253.155,85.832 253.16,85.41L253.16,79.76L257.16,79.76L260.16,86.2C260.383,86.561 260.745,86.814 261.16,86.9C261.31,86.94 261.465,86.96 261.62,86.96C261.945,86.954 262.263,86.872 262.55,86.72C263.001,86.481 263.354,86.091 263.55,85.62C263.734,85.228 263.696,84.766 263.45,84.41L260.48,78.46Z" style="fill:rgb(227,4,39);fill-rule:nonzero;"/>
        <path d="M272.23,68.18C271.724,68.155 271.227,68.323 270.84,68.65C270.512,68.926 270.319,69.331 270.31,69.76L270.31,85.32C270.316,85.752 270.509,86.161 270.84,86.44C271.225,86.771 271.723,86.942 272.23,86.92C272.711,86.93 273.179,86.759 273.54,86.44C273.871,86.161 274.064,85.752 274.07,85.32L274.07,69.76C274.061,69.331 273.868,68.926 273.54,68.65C273.181,68.329 272.711,68.16 272.23,68.18" style="fill:rgb(227,4,39);fill-rule:nonzero;"/>
        <path d="M288.56,83.38C287.458,83.421 286.371,83.117 285.45,82.51C284.758,81.672 284.429,80.591 284.54,79.51L284.54,75.63C284.423,74.548 284.751,73.464 285.45,72.63C287.364,71.465 289.776,71.465 291.69,72.63C292.364,73.476 292.68,74.554 292.57,75.63L292.57,79.52C292.68,80.596 292.364,81.674 291.69,82.52C290.765,83.134 289.669,83.438 288.56,83.39M295.91,72.73C295.645,71.852 295.195,71.04 294.59,70.35C293.968,69.659 293.199,69.116 292.34,68.76C289.884,68 287.256,68 284.8,68.76C283.944,69.111 283.181,69.655 282.57,70.35C281.969,71.041 281.522,71.852 281.26,72.73C280.974,73.673 280.832,74.654 280.84,75.64L280.84,79.5C280.833,80.486 280.974,81.467 281.26,82.41C281.522,83.288 281.969,84.099 282.57,84.79C283.184,85.482 283.946,86.025 284.8,86.38C287.256,87.14 289.884,87.14 292.34,86.38C293.199,86.024 293.968,85.481 294.59,84.79C295.195,84.1 295.645,83.288 295.91,82.41C296.196,81.467 296.337,80.486 296.33,79.5L296.33,75.63C296.338,74.644 296.196,73.663 295.91,72.72" style="fill:rgb(227,4,39);fill-rule:nonzero;"/>
        <path d="M221.9,69.22C221.704,68.756 221.323,68.393 220.85,68.22C220.382,68.048 219.863,68.081 219.42,68.31C218.974,68.523 218.634,68.91 218.48,69.38L215.04,79.38L211.62,69.38C211.348,68.636 210.642,68.134 209.85,68.12C209.061,68.127 208.357,68.634 208.1,69.38L204.66,79.38L201.22,69.38C201.043,68.902 200.683,68.513 200.22,68.3C199.778,68.077 199.262,68.051 198.8,68.23C198.326,68.402 197.945,68.765 197.75,69.23C197.533,69.681 197.508,70.2 197.68,70.67L202.86,85.67C203.095,86.459 203.827,87.003 204.65,87C205.447,86.991 206.156,86.476 206.41,85.72L209.85,75.72L213.28,85.65C213.517,86.401 214.213,86.919 215,86.93C215.786,86.94 216.493,86.436 216.74,85.69L221.94,70.69C222.109,70.219 222.08,69.699 221.86,69.25" style="fill:rgb(227,4,39);fill-rule:nonzero;"/>
        <path d="M143.56,79.48L139.43,79.48L141.43,73.48L143.56,79.48ZM144.05,69.48C144.05,69.48 143.57,68.19 141.47,68.19C139.37,68.19 138.9,69.51 138.9,69.51L133.58,84.78C133.463,85.197 133.54,85.646 133.79,86C134.065,86.434 134.506,86.738 135.01,86.84C135.187,86.883 135.368,86.906 135.55,86.91C135.843,86.912 136.132,86.84 136.39,86.7C136.78,86.516 137.082,86.185 137.23,85.78L138.28,82.78L144.71,82.78L145.71,85.78C145.834,86.189 146.13,86.525 146.52,86.7C146.955,86.925 147.459,86.975 147.93,86.84C148.43,86.735 148.867,86.432 149.14,86C149.371,85.634 149.44,85.188 149.33,84.77L144.05,69.48Z" style="fill:rgb(227,4,39);fill-rule:nonzero;"/>
    </g>
</svg>
