<svg id="Layer_1" data-name="Layer 1" xmlns="http://www.w3.org/2000/svg" xmlns:xlink="http://www.w3.org/1999/xlink" viewBox="0 0 400 400"><defs><style>.cls-1,.cls-15{fill:none;}.cls-2{isolation:isolate;opacity:0.8;fill:url(#radial-gradient);}.cls-3{fill:url(#linear-gradient);}.cls-4{fill:url(#linear-gradient-2);}.cls-5{fill:#010101;}.cls-6{fill:#de3a2e;}.cls-7{fill:#e36559;}.cls-8{fill:#fff;}.cls-9{fill:#ccc;}.cls-10{fill:#e6e6e5;}.cls-11{fill:url(#linear-gradient-3);}.cls-12{fill:#a72027;}.cls-13{fill:#818181;}.cls-14{fill:url(#linear-gradient-4);}.cls-15,.cls-17,.cls-19,.cls-21{stroke:#de3a2e;}.cls-15{stroke-miterlimit:10;stroke-width:1.24px;}.cls-16{fill:url(#linear-gradient-5);}.cls-17,.cls-19,.cls-21{fill:#761417;}.cls-17{stroke-miterlimit:10;stroke-width:1.24px;}.cls-18{fill:url(#linear-gradient-6);}.cls-19{stroke-miterlimit:9.95;stroke-width:1.23px;}.cls-20{fill:url(#linear-gradient-7);}.cls-21{stroke-miterlimit:10;stroke-width:1.24px;}.cls-22{fill:url(#linear-gradient-8);}.cls-23{fill:#06914c;}.cls-24{fill:url(#linear-gradient-9);}.cls-25{fill:url(#linear-gradient-10);}.cls-26{fill:url(#linear-gradient-11);}.cls-27{fill:url(#linear-gradient-12);}.cls-28{fill:url(#linear-gradient-13);}.cls-29{fill:url(#linear-gradient-14);}.cls-30{fill:url(#linear-gradient-15);}.cls-31{fill:url(#linear-gradient-16);}.cls-32{fill:#252532;}.cls-33{fill:#231f20;}.cls-34{fill:url(#linear-gradient-17);}.cls-35{fill:url(#linear-gradient-18);}.cls-36{fill:url(#linear-gradient-19);}.cls-37{fill:url(#linear-gradient-20);}.cls-38{fill:url(#linear-gradient-21);}.cls-39{fill:url(#linear-gradient-22);}.cls-40{fill:url(#linear-gradient-23);}.cls-41{fill:url(#linear-gradient-24);}.cls-42{fill:url(#linear-gradient-25);}.cls-43{fill:url(#linear-gradient-26);}.cls-44{fill:url(#linear-gradient-27);}.cls-45{fill:url(#linear-gradient-28);}.cls-46{fill:url(#linear-gradient-29);}.cls-47{fill:url(#linear-gradient-30);}.cls-48{fill:#414151;}.cls-49{fill:#b39494;}.cls-50{clip-path:url(#clip-path);}.cls-51{fill:url(#linear-gradient-31);}</style><radialGradient id="radial-gradient" cx="-263.07" cy="-99.51" r="81.23" gradientTransform="matrix(0.01, 1, 0.64, 0, 249.7, 606.84)" gradientUnits="userSpaceOnUse"><stop offset="0" stop-color="#989898"/><stop offset="1" stop-color="#fff"/></radialGradient><linearGradient id="linear-gradient" x1="129.41" y1="7495.79" x2="272.19" y2="7495.79" gradientTransform="translate(0 -7340.01)" gradientUnits="userSpaceOnUse"><stop offset="0" stop-color="#e36559"/><stop offset="1" stop-color="#de3a2e"/></linearGradient><linearGradient id="linear-gradient-2" x1="230.91" y1="7681.92" x2="230.91" y2="7494.37" gradientTransform="translate(0 -7340.01)" gradientUnits="userSpaceOnUse"><stop offset="0" stop-color="#a72027"/><stop offset="1" stop-color="#de3a2e"/></linearGradient><linearGradient id="linear-gradient-3" x1="-2272.36" y1="7552.45" x2="-2139" y2="7635.78" gradientTransform="translate(2350.08 -7340.01)" gradientUnits="userSpaceOnUse"><stop offset="0.1" stop-color="#e36559"/><stop offset="0.24" stop-color="#df6257"/><stop offset="0.38" stop-color="#d35a50"/><stop offset="0.51" stop-color="#c04b44"/><stop offset="0.65" stop-color="#a43734"/><stop offset="0.79" stop-color="#811d1f"/><stop offset="0.84" stop-color="#701115"/></linearGradient><linearGradient id="linear-gradient-4" x1="-640.62" y1="9601.77" x2="-629.76" y2="9601.77" gradientTransform="matrix(0.87, 0.5, 0, 1.15, 678.31, -10513.03)" gradientUnits="userSpaceOnUse"><stop offset="0" stop-color="#333"/><stop offset="0.52" stop-color="#3f3f3f"/><stop offset="1" stop-color="#4e4e4e"/></linearGradient><linearGradient id="linear-gradient-5" x1="-4262.37" y1="13686.26" x2="-4244.4" y2="13686.26" gradientTransform="matrix(0.87, 0.5, 0, 1.15, 3833.34, -13341.09)" xlink:href="#linear-gradient-4"/><linearGradient id="linear-gradient-6" x1="-4233.81" y1="13667.49" x2="-4227.98" y2="13667.49" gradientTransform="matrix(0.87, 0.5, 0, 1.15, 3833.34, -13341.09)" xlink:href="#linear-gradient-4"/><linearGradient id="linear-gradient-7" x1="-4256.04" y1="13665.37" x2="-4250.21" y2="13665.37" gradientTransform="matrix(0.87, 0.5, 0, 1.15, 3833.34, -13341.09)" xlink:href="#linear-gradient-4"/><linearGradient id="linear-gradient-8" x1="-4265.36" y1="13720.44" x2="-4241.42" y2="13720.44" gradientTransform="matrix(0.87, 0.5, 0, 1.15, 3833.34, -13341.09)" gradientUnits="userSpaceOnUse"><stop offset="0" stop-color="#818181"/><stop offset="1" stop-color="#e6e6e5"/></linearGradient><linearGradient id="linear-gradient-9" x1="-4262.37" y1="13651.09" x2="-4244.4" y2="13651.09" gradientTransform="matrix(0.87, 0.5, 0, 1.15, 3833.34, -13341.09)" xlink:href="#linear-gradient-4"/><linearGradient id="linear-gradient-10" x1="-4230.03" y1="13645.92" x2="-4224.2" y2="13645.92" gradientTransform="matrix(0.87, 0.5, 0, 1.15, 3833.34, -13341.09)" xlink:href="#linear-gradient-4"/><linearGradient id="linear-gradient-11" x1="-4230.03" y1="13636.74" x2="-4224.2" y2="13636.74" gradientTransform="matrix(0.87, 0.5, 0, 1.15, 3833.34, -13341.09)" xlink:href="#linear-gradient-4"/><linearGradient id="linear-gradient-12" x1="-4230.03" y1="13627.56" x2="-4224.2" y2="13627.56" gradientTransform="matrix(0.87, 0.5, 0, 1.15, 3833.34, -13341.09)" xlink:href="#linear-gradient-4"/><linearGradient id="linear-gradient-13" x1="23560.71" y1="-8809.73" x2="23565.61" y2="-8809.73" gradientTransform="matrix(-0.87, -0.5, 0, -1.15, 20592.53, 1826.89)" xlink:href="#linear-gradient-4"/><linearGradient id="linear-gradient-14" x1="-2185.63" y1="7549.59" x2="-2178.37" y2="7549.59" xlink:href="#linear-gradient-3"/><linearGradient id="linear-gradient-15" x1="-2239.45" y1="7639.83" x2="-2232.2" y2="7639.83" xlink:href="#linear-gradient-3"/><linearGradient id="linear-gradient-16" x1="-2185.63" y1="7671.15" x2="-2178.37" y2="7671.15" xlink:href="#linear-gradient-3"/><linearGradient id="linear-gradient-17" x1="-666.09" y1="9620.63" x2="-655.23" y2="9620.63" xlink:href="#linear-gradient-4"/><linearGradient id="linear-gradient-18" x1="-4287.84" y1="13705.12" x2="-4269.85" y2="13705.12" gradientTransform="matrix(0.87, 0.5, 0, 1.15, 3833.34, -13341.09)" xlink:href="#linear-gradient-4"/><linearGradient id="linear-gradient-19" x1="-4259.28" y1="13686.35" x2="-4253.45" y2="13686.35" gradientTransform="matrix(0.87, 0.5, 0, 1.15, 3833.34, -13341.09)" xlink:href="#linear-gradient-4"/><linearGradient id="linear-gradient-20" x1="-4281.5" y1="13684.23" x2="-4275.67" y2="13684.23" gradientTransform="matrix(0.87, 0.5, 0, 1.15, 3833.34, -13341.09)" xlink:href="#linear-gradient-4"/><linearGradient id="linear-gradient-21" x1="-4290.82" y1="13739.3" x2="-4266.89" y2="13739.3" xlink:href="#linear-gradient-8"/><linearGradient id="linear-gradient-22" x1="-4287.84" y1="13669.95" x2="-4269.85" y2="13669.95" gradientTransform="matrix(0.87, 0.5, 0, 1.15, 3833.34, -13341.09)" xlink:href="#linear-gradient-4"/><linearGradient id="linear-gradient-23" x1="-4255.5" y1="13664.78" x2="-4249.67" y2="13664.78" gradientTransform="matrix(0.87, 0.5, 0, 1.15, 3833.34, -13341.09)" xlink:href="#linear-gradient-4"/><linearGradient id="linear-gradient-24" x1="-4255.5" y1="13655.6" x2="-4249.67" y2="13655.6" gradientTransform="matrix(0.87, 0.5, 0, 1.15, 3833.34, -13341.09)" xlink:href="#linear-gradient-4"/><linearGradient id="linear-gradient-25" x1="-4255.5" y1="13646.42" x2="-4249.67" y2="13646.42" gradientTransform="matrix(0.87, 0.5, 0, 1.15, 3833.34, -13341.09)" xlink:href="#linear-gradient-4"/><linearGradient id="linear-gradient-26" x1="23586.16" y1="-8828.59" x2="23591.07" y2="-8828.59" gradientTransform="matrix(-0.87, -0.5, 0, -1.15, 20592.53, 1826.89)" xlink:href="#linear-gradient-4"/><linearGradient id="linear-gradient-27" x1="-2261.51" y1="7527.31" x2="-2254.25" y2="7527.31" xlink:href="#linear-gradient-3"/><linearGradient id="linear-gradient-28" x1="-2207.67" y1="7558.61" x2="-2200.41" y2="7558.61" xlink:href="#linear-gradient-3"/><linearGradient id="linear-gradient-29" x1="-2261.51" y1="7648.84" x2="-2254.25" y2="7648.84" xlink:href="#linear-gradient-3"/><linearGradient id="linear-gradient-30" x1="-2207.67" y1="7680.15" x2="-2200.41" y2="7680.15" xlink:href="#linear-gradient-3"/><clipPath id="clip-path"><path class="cls-1" d="M120.45,174.91l-4.07-2.85c-.37-.25-.67-.05-.67.46V183a1.9,1.9,0,0,0,.67,1.4l4.07,2.84c.37.26.68.05.68-.46V176.31A1.87,1.87,0,0,0,120.45,174.91Z"/></clipPath><linearGradient id="linear-gradient-31" x1="-2239.45" y1="7518.29" x2="-2232.2" y2="7518.29" xlink:href="#linear-gradient-3"/></defs><g id="Layer_2" data-name="Layer 2"><g id="Layer_1-2" data-name="Layer 1-2"><ellipse class="cls-2" cx="184.82" cy="344.11" rx="50.97" ry="88.29" transform="translate(-160.29 527.07) rotate(-89.69)"/><g id="Layer_1-2-2" data-name="Layer 1-2-2"><path class="cls-3" d="M264.35,145.71l-63.18-36.47c-3.7-2.14-7.13-.81-9.19.07a7.77,7.77,0,0,0-1.48.85l-61.09,35.51L180.5,179l6.64,3.91v20.61l85.05-49.11A21.94,21.94,0,0,0,264.35,145.71Z"/><path class="cls-4" d="M187.14,203.47v48.11c0,6.56,4.63,14.56,10.35,17.87l9.49,5.48.59,67,62.71-35.47a9.43,9.43,0,0,0,4.4-8.34V163.57a20.51,20.51,0,0,0-2.51-9.21Z"/><path class="cls-5" d="M195.15,181.5l-60.23-33.82c-4.06-2.35-6.69-2.15-10.22-.68s-6.37,4-6.37,9.49V291c0,8.17,5.8,18.16,12.91,22.26l60.23,33.83c4.07,2.34,7,2.59,10.37.83s6.22-4.15,6.22-9.66V203.77C208.06,195.6,202.27,185.62,195.15,181.5Z"/><path class="cls-6" d="M193.09,186.79l-63.16-36.48c-3.7-2.14-7.13-.81-9.19.08a8.16,8.16,0,0,0-4.84,7.74V292.65c0,6.57,4.63,14.56,10.35,17.86L189.43,347a10.45,10.45,0,0,0,9.63.51,9.41,9.41,0,0,0,4.41-8.33V204.65C203.45,198.08,198.81,190.07,193.09,186.79ZM196,338.88a6.07,6.07,0,0,1-.54,2.66,6.62,6.62,0,0,1-2.32-.85l-63.16-36.48a14.41,14.41,0,0,1-6.53-11.27V158.42a6.13,6.13,0,0,1,.54-2.66,6.38,6.38,0,0,1,2.31.85l63.18,36.48A14.41,14.41,0,0,1,196,204.36Z"/><path class="cls-7" d="M189.41,188.72l-63.17-36.5c-5.72-3.3-10.36-.67-10.36,5.91V292.65c0,6.57,4.64,14.56,10.36,17.86L189.41,347c5.72,3.31,10.36.68,10.36-5.9V206.57C199.77,200,195.13,192,189.41,188.72ZM196,338.9c0,4.13-2.93,5.81-6.54,3.73l-63.17-36.5a14.42,14.42,0,0,1-6.54-11.27V160.33c0-4.13,2.94-5.8,6.54-3.72l63.17,36.48A14.4,14.4,0,0,1,196,204.36Z"/><path class="cls-7" d="M264.35,159.14a21.73,21.73,0,0,0-8-8.87L189.13,111l-3.76,2.19,69.92,40.76c3.6,2.08,7.65,9.56,7.65,13.69V310.47l3.83-2.16V168.14A20.23,20.23,0,0,0,264.35,159.14Z"/><polygon class="cls-8" points="175.6 223.25 174.1 222.38 174.1 220.65 175.6 221.52 175.6 223.25"/><polygon class="cls-9" points="175.6 221.52 192.84 211.57 192.84 213.3 175.6 223.25 175.6 221.52"/><polygon class="cls-10" points="175.61 221.52 174.1 220.65 191.32 210.7 192.83 211.57 175.61 221.52"/><polygon class="cls-8" points="175.6 229.96 174.1 229.1 174.1 227.37 175.6 228.24 175.6 229.96"/><polygon class="cls-9" points="175.6 228.24 192.84 218.29 192.84 220.02 175.6 229.96 175.6 228.24"/><polygon class="cls-10" points="175.61 228.23 174.1 227.36 191.32 217.41 192.83 218.28 175.61 228.23"/><polygon class="cls-8" points="175.6 236.68 174.1 235.8 174.1 234.08 175.6 234.94 175.6 236.68"/><polygon class="cls-9" points="175.6 234.94 192.84 225 192.84 226.72 175.6 236.68 175.6 234.94"/><polygon class="cls-10" points="175.61 234.94 174.1 234.08 191.32 224.12 192.83 224.99 175.61 234.94"/><polygon class="cls-8" points="175.6 243.39 174.1 242.52 174.1 240.78 175.6 241.66 175.6 243.39"/><polygon class="cls-9" points="175.6 241.66 192.84 231.71 192.84 233.44 175.6 243.39 175.6 241.66"/><polygon class="cls-10" points="175.61 241.65 174.1 240.78 191.32 230.84 192.83 231.71 175.61 241.65"/><polygon class="cls-8" points="175.6 250.09 174.1 249.23 174.1 247.5 175.6 248.37 175.6 250.09"/><polygon class="cls-9" points="175.6 248.37 192.84 238.42 192.84 240.15 175.6 250.09 175.6 248.37"/><polygon class="cls-10" points="175.61 248.37 174.1 247.5 191.32 237.54 192.83 238.41 175.61 248.37"/><polygon class="cls-8" points="175.6 256.81 174.1 255.94 174.1 254.21 175.6 255.08 175.6 256.81"/><polygon class="cls-9" points="175.6 255.08 192.84 245.13 192.84 246.86 175.6 256.81 175.6 255.08"/><polygon class="cls-10" points="175.61 255.07 174.1 254.21 191.32 244.25 192.83 245.13 175.61 255.07"/><polygon class="cls-8" points="175.6 263.52 174.1 262.65 174.1 260.92 175.6 261.79 175.6 263.52"/><polygon class="cls-9" points="175.6 261.79 192.84 251.84 192.84 253.57 175.6 263.52 175.6 261.79"/><polygon class="cls-10" points="175.61 261.79 174.1 260.92 191.32 250.97 192.83 251.84 175.61 261.79"/><polygon class="cls-8" points="175.6 270.23 174.1 269.36 174.1 267.63 175.6 268.5 175.6 270.23"/><polygon class="cls-9" points="175.6 268.5 192.84 258.55 192.84 260.28 175.6 270.23 175.6 268.5"/><polygon class="cls-10" points="175.61 268.5 174.1 267.63 191.32 257.68 192.83 258.55 175.61 268.5"/><polygon class="cls-8" points="175.6 276.94 174.1 276.07 174.1 274.35 175.6 275.21 175.6 276.94"/><polygon class="cls-9" points="175.6 275.21 192.84 265.26 192.84 266.99 175.6 276.94 175.6 275.21"/><polygon class="cls-10" points="175.61 275.21 174.1 274.34 191.32 264.39 192.83 265.26 175.61 275.21"/><polygon class="cls-8" points="175.6 283.65 174.1 282.78 174.1 281.05 175.6 281.93 175.6 283.65"/><polygon class="cls-9" points="175.6 281.93 192.84 271.97 192.84 273.7 175.6 283.65 175.6 281.93"/><polygon class="cls-10" points="175.61 281.92 174.1 281.05 191.32 271.1 192.83 271.97 175.61 281.92"/><polygon class="cls-8" points="175.6 290.36 174.1 289.5 174.1 287.77 175.6 288.63 175.6 290.36"/><polygon class="cls-9" points="175.6 288.63 192.84 278.69 192.84 280.42 175.6 290.36 175.6 288.63"/><polygon class="cls-10" points="175.61 288.63 174.1 287.76 191.32 277.81 192.83 278.68 175.61 288.63"/><polygon class="cls-8" points="175.6 297.08 174.1 296.2 174.1 294.48 175.6 295.35 175.6 297.08"/><polygon class="cls-9" points="175.6 295.35 192.84 285.4 192.84 287.12 175.6 297.08 175.6 295.35"/><polygon class="cls-10" points="175.61 295.34 174.1 294.48 191.32 284.52 192.83 285.4 175.61 295.34"/><polygon class="cls-8" points="175.6 303.79 174.1 302.92 174.1 301.19 175.6 302.06 175.6 303.79"/><polygon class="cls-9" points="175.6 302.06 192.84 292.11 192.84 293.84 175.6 303.79 175.6 302.06"/><polygon class="cls-10" points="175.61 302.05 174.1 301.18 191.32 291.24 192.83 292.11 175.61 302.05"/><polygon class="cls-8" points="175.6 310.5 174.1 309.63 174.1 307.9 175.6 308.77 175.6 310.5"/><polygon class="cls-9" points="175.6 308.77 192.84 298.82 192.84 300.55 175.6 310.5 175.6 308.77"/><polygon class="cls-10" points="175.61 308.77 174.1 307.9 191.32 297.94 192.83 298.81 175.61 308.77"/><polygon class="cls-8" points="175.6 317.21 174.1 316.34 174.1 314.61 175.6 315.48 175.6 317.21"/><polygon class="cls-9" points="175.6 315.48 192.84 305.53 192.84 307.26 175.6 317.21 175.6 315.48"/><polygon class="cls-10" points="175.61 315.47 174.1 314.61 191.32 304.66 192.83 305.53 175.61 315.47"/><polygon class="cls-8" points="175.6 323.92 174.1 323.05 174.1 321.32 175.6 322.19 175.6 323.92"/><polygon class="cls-9" points="175.6 322.19 192.84 312.24 192.84 313.97 175.6 323.92 175.6 322.19"/><polygon class="cls-10" points="175.61 322.19 174.1 321.31 191.32 311.37 192.83 312.24 175.61 322.19"/><polygon class="cls-8" points="175.6 330.63 174.1 329.76 174.1 328.03 175.6 328.9 175.6 330.63"/><polygon class="cls-9" points="175.6 328.9 192.84 318.95 192.84 320.68 175.6 330.63 175.6 328.9"/><polygon class="cls-10" points="175.61 328.9 174.1 328.03 191.32 318.08 192.83 318.95 175.61 328.9"/><polygon class="cls-8" points="175.6 337.34 174.1 336.47 174.1 334.75 175.6 335.61 175.6 337.34"/><polygon class="cls-9" points="175.6 335.61 192.84 325.67 192.84 327.39 175.6 337.34 175.6 335.61"/><polygon class="cls-10" points="175.61 335.61 174.1 334.74 191.32 324.79 192.83 325.66 175.61 335.61"/><path class="cls-11" d="M179.66,203.49a14.71,14.71,0,0,1,2,7v130.2c0,4.36-2.65,6.36-5.91,4.48L113.1,309c-3.27-1.89-5.92-6.95-5.92-11.31V167.51c0-4.36,2.65-6.36,5.92-4.47l62.6,36.14a11.4,11.4,0,0,1,4,4.31"/><path class="cls-12" d="M105.28,298.91V168.71c0-4.36,2.65-6.36,5.91-4.47l62.6,36.14c3.28,1.89,5.93,7,5.93,11.31v130.2c0,4.35-2.65,6.36-5.93,4.48l-62.6-36.15C107.93,308.33,105.28,303.27,105.28,298.91Z"/><polygon class="cls-10" points="133.64 222.89 129.6 220.55 129.6 219.19 133.64 221.52 133.64 222.89"/><polygon class="cls-10" points="133.64 218.72 129.6 216.38 129.6 215.02 133.64 217.35 133.64 218.72"/><polygon class="cls-10" points="133.64 214.56 129.6 212.22 129.6 210.85 133.64 213.19 133.64 214.56"/><polygon class="cls-10" points="133.64 210.39 129.6 208.05 129.6 206.69 133.64 209.03 133.64 210.39"/><polygon class="cls-13" points="130.97 221.34 131.94 221.91 131.94 220.54 130.97 219.98 130.97 221.34"/><polygon class="cls-13" points="130.97 217.18 131.94 217.74 131.94 216.37 130.97 215.81 130.97 217.18"/><polygon class="cls-13" points="130.97 213.01 131.94 213.57 131.94 212.2 130.97 211.65 130.97 213.01"/><polygon class="cls-13" points="130.97 207.48 130.97 208.84 131.94 209.41 131.94 208.04 130.97 207.48"/><polygon class="cls-10" points="121.75 216.05 117.7 213.72 117.7 212.35 121.75 214.68 121.75 216.05"/><polygon class="cls-10" points="121.75 211.88 117.7 209.55 117.7 208.19 121.75 210.52 121.75 211.88"/><polygon class="cls-10" points="121.75 207.72 117.7 205.38 117.7 204.02 121.75 206.36 121.75 207.72"/><polygon class="cls-10" points="121.75 203.55 117.7 201.21 117.7 199.85 121.75 202.19 121.75 203.55"/><polygon class="cls-13" points="119.08 214.51 120.05 215.07 120.05 213.71 119.08 213.15 119.08 214.51"/><polygon class="cls-13" points="119.08 210.34 120.05 210.9 120.05 209.53 119.08 208.98 119.08 210.34"/><polygon class="cls-13" points="119.08 206.17 120.05 206.74 120.05 205.37 119.08 204.81 119.08 206.17"/><polygon class="cls-13" points="119.08 200.64 119.08 202.01 120.05 202.57 120.05 201.21 119.08 200.64"/><polygon class="cls-14" points="130.26 224.28 120.87 218.86 120.87 198.39 130.26 203.81 130.26 224.28"/><polyline class="cls-15" points="156.27 294.87 156.27 270.01 166.34 264.27 166.34 257.28"/><polygon class="cls-5" points="150.28 290.36 134.71 281.37 134.71 263.5 150.28 272.5 150.28 290.36"/><polygon class="cls-10" points="155.46 278.19 150.28 275.21 150.28 274.18 155.46 277.17 155.46 278.19"/><polygon class="cls-13" points="153.7 277.18 152.04 276.22 152.04 275.2 153.7 276.15 153.7 277.18"/><polygon class="cls-10" points="155.46 280.12 150.28 277.13 150.28 276.11 155.46 279.1 155.46 280.12"/><polygon class="cls-13" points="153.7 279.1 152.04 278.15 152.04 277.12 153.7 278.08 153.7 279.1"/><polygon class="cls-10" points="155.46 282.04 150.28 279.05 150.28 278.03 155.46 281.02 155.46 282.04"/><polygon class="cls-13" points="153.7 281.03 152.04 280.07 152.04 279.05 153.7 280 153.7 281.03"/><polygon class="cls-10" points="155.46 283.97 150.28 280.98 150.28 279.95 155.46 282.94 155.46 283.97"/><polygon class="cls-13" points="153.7 282.95 152.04 282 152.04 280.97 153.7 281.93 153.7 282.95"/><polygon class="cls-10" points="155.46 285.89 150.28 282.9 150.28 281.88 155.46 284.87 155.46 285.89"/><polygon class="cls-13" points="153.7 284.88 152.04 283.92 152.04 282.9 153.7 283.85 153.7 284.88"/><polygon class="cls-10" points="155.46 287.81 150.28 284.83 150.28 283.8 155.46 286.79 155.46 287.81"/><polygon class="cls-13" points="153.7 286.8 152.04 285.84 152.04 284.82 153.7 285.78 153.7 286.8"/><polygon class="cls-10" points="155.46 289.74 150.28 286.75 150.28 285.74 155.46 288.72 155.46 289.74"/><polygon class="cls-13" points="153.7 288.72 152.04 287.77 152.04 286.75 153.7 287.7 153.7 288.72"/><polygon class="cls-10" points="155.46 291.66 150.28 288.68 150.28 287.66 155.46 290.65 155.46 291.66"/><polygon class="cls-13" points="153.7 290.65 152.04 289.69 152.04 288.68 153.7 289.63 153.7 290.65"/><polygon class="cls-10" points="147.93 294.94 147.93 289 148.81 289.52 148.81 295.45 147.93 294.94"/><polygon class="cls-13" points="147.93 292.92 147.93 291.02 148.81 291.54 148.81 293.43 147.93 292.92"/><polygon class="cls-10" points="146.24 293.97 146.24 288.03 147.13 288.55 147.13 294.48 146.24 293.97"/><polygon class="cls-13" points="146.24 291.95 146.24 290.05 147.13 290.57 147.13 292.46 146.24 291.95"/><polygon class="cls-10" points="144.56 293.01 144.56 287.06 145.46 287.58 145.46 293.51 144.56 293.01"/><polygon class="cls-13" points="144.56 290.99 144.56 289.09 145.46 289.6 145.46 291.5 144.56 290.99"/><polygon class="cls-10" points="142.89 292.04 142.89 286.09 143.78 286.61 143.78 292.55 142.89 292.04"/><polygon class="cls-13" points="142.89 290.02 142.89 288.11 143.78 288.63 143.78 290.53 142.89 290.02"/><polygon class="cls-10" points="141.21 291.07 141.21 285.13 142.1 285.64 142.1 291.58 141.21 291.07"/><polygon class="cls-13" points="141.21 289.05 141.21 287.15 142.1 287.66 142.1 289.56 141.21 289.05"/><polygon class="cls-10" points="139.54 290.1 139.54 284.16 140.42 284.67 140.42 290.61 139.54 290.1"/><polygon class="cls-13" points="139.54 288.08 139.54 286.18 140.42 286.7 140.42 288.59 139.54 288.08"/><polygon class="cls-10" points="137.86 289.13 137.86 283.19 138.74 283.71 138.74 289.64 137.86 289.13"/><polygon class="cls-13" points="137.86 287.11 137.86 285.21 138.74 285.73 138.74 287.63 137.86 287.11"/><polygon class="cls-10" points="136.18 288.16 136.18 282.23 137.07 282.74 137.07 288.68 136.18 288.16"/><polygon class="cls-13" points="136.18 286.14 136.18 284.25 137.07 284.76 137.07 286.66 136.18 286.14"/><polygon class="cls-10" points="129.53 275.68 134.71 278.67 134.71 279.68 129.53 276.7 129.53 275.68"/><polygon class="cls-13" points="131.3 276.7 132.95 277.65 132.95 278.67 131.3 277.72 131.3 276.7"/><polygon class="cls-10" points="129.53 273.76 134.71 276.74 134.71 277.76 129.53 274.77 129.53 273.76"/><polygon class="cls-13" points="131.3 274.77 132.95 275.73 132.95 276.74 131.3 275.79 131.3 274.77"/><polygon class="cls-10" points="129.53 271.83 134.71 274.81 134.71 275.84 129.53 272.85 129.53 271.83"/><polygon class="cls-13" points="131.3 272.85 132.95 273.8 132.95 274.82 131.3 273.86 131.3 272.85"/><polygon class="cls-10" points="129.53 269.9 134.71 272.89 134.71 273.91 129.53 270.92 129.53 269.9"/><polygon class="cls-13" points="131.3 270.92 132.95 271.87 132.95 272.89 131.3 271.94 131.3 270.92"/><polygon class="cls-10" points="129.53 267.98 134.71 270.96 134.71 271.99 129.53 269 129.53 267.98"/><polygon class="cls-13" points="131.3 268.99 132.95 269.95 132.95 270.97 131.3 270.01 131.3 268.99"/><polygon class="cls-10" points="129.53 266.05 134.71 269.04 134.71 270.06 129.53 267.07 129.53 266.05"/><polygon class="cls-13" points="131.3 267.07 132.95 268.02 132.95 269.05 131.3 268.09 131.3 267.07"/><polygon class="cls-10" points="129.53 264.13 134.71 267.12 134.71 268.14 129.53 265.15 129.53 264.13"/><polygon class="cls-13" points="131.3 265.14 132.95 266.1 132.95 267.12 131.3 266.17 131.3 265.14"/><polygon class="cls-10" points="129.53 262.2 134.71 265.19 134.71 266.21 129.53 263.23 129.53 262.2"/><polygon class="cls-13" points="131.3 263.22 132.95 264.17 132.95 265.2 131.3 264.24 131.3 263.22"/><polygon class="cls-10" points="137.07 258.93 137.07 264.87 136.18 264.35 136.18 258.42 137.07 258.93"/><polygon class="cls-13" points="137.07 260.95 137.07 262.85 136.18 262.33 136.18 260.43 137.07 260.95"/><polygon class="cls-10" points="138.74 259.9 138.74 265.83 137.86 265.32 137.86 259.38 138.74 259.9"/><polygon class="cls-13" points="138.74 261.92 138.74 263.81 137.86 263.3 137.86 261.4 138.74 261.92"/><polygon class="cls-10" points="140.42 260.87 140.42 266.8 139.54 266.29 139.54 260.35 140.42 260.87"/><polygon class="cls-13" points="140.42 262.89 140.42 264.78 139.54 264.27 139.54 262.37 140.42 262.89"/><polygon class="cls-10" points="142.1 261.84 142.1 267.77 141.21 267.26 141.21 261.32 142.1 261.84"/><polygon class="cls-13" points="142.1 263.86 142.1 265.75 141.21 265.24 141.21 263.34 142.1 263.86"/><polygon class="cls-10" points="143.78 262.81 143.78 268.74 142.89 268.23 142.89 262.29 143.78 262.81"/><polygon class="cls-13" points="143.78 264.82 143.78 266.72 142.89 266.21 142.89 264.31 143.78 264.82"/><polygon class="cls-10" points="145.46 263.77 145.46 269.71 144.56 269.19 144.56 263.26 145.46 263.77"/><polygon class="cls-13" points="145.46 265.79 145.46 267.69 144.56 267.18 144.56 265.28 145.46 265.79"/><polygon class="cls-10" points="147.13 264.74 147.13 270.68 146.24 270.16 146.24 264.23 147.13 264.74"/><polygon class="cls-13" points="147.13 266.76 147.13 268.66 146.24 268.14 146.24 266.25 147.13 266.76"/><polygon class="cls-10" points="148.81 265.71 148.81 271.65 147.93 271.13 147.93 265.2 148.81 265.71"/><polygon class="cls-13" points="148.81 267.73 148.81 269.63 147.93 269.11 147.93 267.22 148.81 267.73"/><polygon class="cls-5" points="150.28 290.36 134.71 281.37 134.71 263.5 150.28 272.5 150.28 290.36"/><polygon class="cls-16" points="150.28 290.36 134.71 281.37 134.71 263.5 150.28 272.5 150.28 290.36"/><ellipse class="cls-17" cx="166.35" cy="258.29" rx="0.89" ry="1.54" transform="translate(-107.61 119.26) rotate(-30.31)"/><ellipse class="cls-17" cx="168.86" cy="270.53" rx="0.89" ry="1.54" transform="translate(-113.45 122.2) rotate(-30.31)"/><ellipse class="cls-17" cx="161.96" cy="255.76" rx="0.89" ry="1.54" transform="translate(-106.94 116.7) rotate(-30.31)"/><ellipse class="cls-17" cx="156.26" cy="295.84" rx="0.89" ry="1.54" transform="translate(-127.94 119.3) rotate(-30.31)"/><line class="cls-15" x1="161.96" y1="263.65" x2="161.96" y2="257.02"/><polygon class="cls-10" points="163.83 262.62 160.09 260.45 160.09 259.72 163.83 261.88 163.83 262.62"/><polygon class="cls-13" points="162.57 261.88 161.37 261.19 161.37 260.45 162.57 261.14 162.57 261.88"/><line class="cls-15" x1="163.06" y1="267.18" x2="167.76" y2="269.89"/><polygon class="cls-18" points="164.49 270.9 159.44 267.98 159.44 262.19 164.49 265.1 164.49 270.9"/><ellipse class="cls-17" cx="149.11" cy="256.73" rx="0.89" ry="1.54" transform="matrix(0.86, -0.5, 0.5, 0.86, -109.18, 110.34)"/><line class="cls-15" x1="144.54" y1="254.1" x2="148.01" y2="256.09"/><ellipse class="cls-19" cx="135.5" cy="249.14" rx="0.89" ry="1.54" transform="translate(-106.86 101.86) rotate(-30.17)"/><line class="cls-15" x1="140.9" y1="251.99" x2="137.44" y2="249.99"/><polygon class="cls-20" points="145.24 256.94 140.2 254.02 140.2 249.15 145.24 252.07 145.24 256.94"/><path class="cls-10" d="M124.26,247.67l-.21-.12a3.31,3.31,0,0,1-1.35-2.63v-6.74c0-1,.61-1.47,1.35-1l.21.12a3.3,3.3,0,0,1,1.36,2.63v6.73C125.64,247.67,125,248.11,124.26,247.67Z"/><polygon class="cls-13" points="125.64 245.15 122.68 243.44 122.68 239.5 125.64 241.21 125.64 245.15"/><path class="cls-9" d="M124.16,237.21l-.11-.05v10.37l.11.08c.81.47,1.48.09,1.48-.84v-7A3.27,3.27,0,0,0,124.16,237.21Z"/><ellipse class="cls-17" cx="147.4" cy="301.97" rx="0.89" ry="1.54" transform="translate(-132.25 115.67) rotate(-30.31)"/><line class="cls-15" x1="146.54" y1="301.47" x2="143.45" y2="299.69"/><ellipse class="cls-17" cx="156.6" cy="321.81" rx="0.89" ry="1.54" transform="matrix(0.86, -0.5, 0.5, 0.86, -141, 123.02)"/><line class="cls-15" x1="155.72" y1="321.3" x2="152.64" y2="319.52"/><ellipse class="cls-21" cx="155.31" cy="326.31" rx="0.89" ry="1.54" transform="translate(-142.95 122.26) rotate(-30.17)"/><line class="cls-15" x1="155.72" y1="326.17" x2="152.64" y2="324.39"/><ellipse class="cls-17" cx="130.93" cy="292.33" rx="0.89" ry="1.54" transform="translate(-129.64 106.04) rotate(-30.31)"/><line class="cls-15" x1="131.8" y1="292.84" x2="134.88" y2="294.62"/><path class="cls-10" d="M134.59,294.57h0c0-.93.57-1.35,1.27-1l6.52,3.76a3.06,3.06,0,0,1,1.28,2.44h0c0,.93-.57,1.35-1.28,1L135.86,297A3.07,3.07,0,0,1,134.59,294.57Z"/><polygon class="cls-13" points="137.48 297.94 137.48 294.54 140.91 296.52 140.91 299.92 137.48 297.94"/><path class="cls-9" d="M143.66,299.84v-.13l-9-5.22v.11a3.26,3.26,0,0,0,1.46,2.53l1.41.82,3.42,2,1.27.74C143,301.12,143.66,300.74,143.66,299.84Z"/><ellipse class="cls-17" cx="167.03" cy="284.53" rx="0.89" ry="1.54" transform="translate(-120.77 123.19) rotate(-30.31)"/><line class="cls-15" x1="167.03" y1="285.53" x2="167.03" y2="289.07"/><ellipse class="cls-17" cx="166.92" cy="303.38" rx="0.89" ry="1.54" transform="translate(-130.29 125.71) rotate(-30.31)"/><line class="cls-15" x1="166.92" y1="302.37" x2="166.92" y2="298.84"/><path class="cls-10" d="M167.13,299.3l-.21-.12a3.34,3.34,0,0,1-1.36-2.63v-6.74c0-1,.62-1.47,1.36-1l.21.12a3.26,3.26,0,0,1,1.36,2.62v6.74C168.51,299.27,167.88,299.74,167.13,299.3Z"/><polygon class="cls-13" points="168.51 296.78 165.55 295.07 165.55 291.14 168.51 292.84 168.51 296.78"/><path class="cls-9" d="M167,288.84l-.11-.06v10.38l.11.08c.82.47,1.48.09,1.48-.85v-7A3.25,3.25,0,0,0,167,288.84Z"/><line class="cls-15" x1="125.26" y1="233.54" x2="160.87" y2="254.1"/><polygon class="cls-10" points="141.21 254.61 140.15 254 140.15 249.13 141.21 249.74 141.21 254.61"/><polygon class="cls-10" points="145.24 256.93 144.17 256.31 144.17 251.44 145.24 252.06 145.24 256.93"/><polygon class="cls-22" points="152.86 326.99 132.12 315.01 132.12 305.49 152.86 317.47 152.86 326.99"/><polygon class="cls-23" points="152.04 333.8 132.95 322.78 132.95 315.5 152.04 326.52 152.04 333.8"/><path class="cls-10" d="M135.55,320.58h0c0-.48.29-.68.68-.49l3.31,1.91a1.53,1.53,0,0,1,.67,1.23h0c0,.48-.29.68-.67.5l-3.31-1.91A1.59,1.59,0,0,1,135.55,320.58Z"/><polygon class="cls-13" points="137.02 322.29 137.02 320.56 138.76 321.57 138.76 323.29 137.02 322.29"/><path class="cls-9" d="M140.16,323.23v-.06l-4.59-2.65v.06a1.69,1.69,0,0,0,.75,1.3l.72.4,1.7,1,.68.38C139.82,323.9,140.16,323.71,140.16,323.23Z"/><line class="cls-15" x1="158.86" y1="220.18" x2="158.86" y2="252.94"/><line class="cls-15" x1="158.86" y1="236.1" x2="152.78" y2="225.62"/><ellipse class="cls-17" cx="152.72" cy="225.64" rx="0.89" ry="1.54" transform="translate(-93 107.92) rotate(-30.31)"/><line class="cls-15" x1="151.85" y1="225.14" x2="148.76" y2="223.36"/><ellipse class="cls-17" cx="137.46" cy="216.7" rx="0.89" ry="1.54" transform="translate(-90.57 99) rotate(-30.31)"/><line class="cls-15" x1="138.34" y1="217.21" x2="140.2" y2="218.29"/><path class="cls-10" d="M139.91,218.24h0c0-.93.57-1.35,1.27-1l6.51,3.76a3.06,3.06,0,0,1,1.28,2.44h0c0,.93-.57,1.35-1.28,1l-6.51-3.76A3.07,3.07,0,0,1,139.91,218.24Z"/><polygon class="cls-13" points="142.79 221.61 142.79 218.21 146.22 220.19 146.22 223.59 142.79 221.61"/><path class="cls-9" d="M149,223.48v-.14l-9.05-5.21v.11a3.29,3.29,0,0,0,1.48,2.56l1.41.81,3.39,2,1.26.73C148.31,224.79,149,224.41,149,223.48Z"/><polyline class="cls-15" points="124.16 232.9 135.32 226.53 157.76 239.49"/><polygon class="cls-10" points="137.91 226.16 137.91 229.63 137.02 229.12 137.02 225.64 137.91 226.16"/><polygon class="cls-13" points="137.91 227.33 137.91 228.44 137.02 227.93 137.02 226.82 137.91 227.33"/><polygon class="cls-10" points="141.26 228.09 141.26 231.56 140.37 231.05 140.37 227.57 141.26 228.09"/><polygon class="cls-13" points="141.26 229.27 141.26 230.38 140.37 229.87 140.37 228.76 141.26 229.27"/><polygon class="cls-10" points="144.62 230.02 144.62 233.5 143.73 232.99 143.73 229.51 144.62 230.02"/><polygon class="cls-13" points="144.62 231.21 144.62 232.32 143.73 231.81 143.73 230.69 144.62 231.21"/><polygon class="cls-10" points="147.97 231.96 147.97 235.44 147.08 234.92 147.08 231.45 147.97 231.96"/><polygon class="cls-13" points="147.97 233.15 147.97 234.26 147.08 233.74 147.08 232.63 147.97 233.15"/><polygon class="cls-10" points="137.91 238.05 137.91 241.53 137.02 241.01 137.02 237.54 137.91 238.05"/><polygon class="cls-13" points="137.91 239.24 137.91 240.35 137.02 239.84 137.02 238.72 137.91 239.24"/><polygon class="cls-10" points="141.26 239.99 141.26 243.47 140.37 242.95 140.37 239.48 141.26 239.99"/><polygon class="cls-13" points="141.26 241.18 141.26 242.29 140.37 241.77 140.37 240.66 141.26 241.18"/><polygon class="cls-10" points="144.62 241.93 144.62 245.41 143.73 244.89 143.73 241.41 144.62 241.93"/><polygon class="cls-13" points="144.62 243.12 144.62 244.22 143.73 243.71 143.73 242.6 144.62 243.12"/><polygon class="cls-10" points="147.97 243.87 147.97 247.34 147.08 246.83 147.08 243.35 147.97 243.87"/><polygon class="cls-13" points="147.97 245.05 147.97 246.16 147.08 245.64 147.08 244.54 147.97 245.05"/><polygon class="cls-24" points="150.28 245.19 134.71 236.21 134.71 227.78 150.28 236.77 150.28 245.19"/><line class="cls-15" x1="158.86" y1="219.07" x2="154.62" y2="211.75"/><ellipse class="cls-17" cx="171.62" cy="247.29" rx="0.89" ry="1.54" transform="translate(-101.34 120.41) rotate(-30.31)"/><line class="cls-15" x1="167.07" y1="244.67" x2="170.52" y2="246.67"/><ellipse class="cls-21" cx="157.99" cy="239.86" rx="0.89" ry="1.54" transform="translate(-99.14 111.89) rotate(-30.17)"/><line class="cls-15" x1="163.41" y1="242.56" x2="159.96" y2="240.56"/><polygon class="cls-25" points="167.76 247.51 162.72 244.59 162.72 239.72 167.76 242.63 167.76 247.51"/><ellipse class="cls-21" cx="170.71" cy="236.74" rx="0.89" ry="1.54" transform="matrix(0.86, -0.5, 0.5, 0.86, -95.85, 117.86)"/><line class="cls-15" x1="167.07" y1="234.11" x2="170.52" y2="236.11"/><ellipse class="cls-17" cx="158.86" cy="229.38" rx="0.89" ry="1.54" transform="translate(-94.05 111.53) rotate(-30.31)"/><line class="cls-15" x1="163.41" y1="232" x2="159.96" y2="230.01"/><polygon class="cls-26" points="167.76 236.95 162.72 234.03 162.72 229.16 167.76 232.08 167.76 236.95"/><ellipse class="cls-17" cx="171.62" cy="226.19" rx="0.89" ry="1.54" transform="translate(-90.69 117.53) rotate(-30.31)"/><line class="cls-15" x1="167.07" y1="223.56" x2="170.52" y2="225.55"/><ellipse class="cls-17" cx="154.54" cy="211.38" rx="0.89" ry="1.54" transform="translate(-85.55 106.89) rotate(-30.31)"/><line class="cls-15" x1="163.41" y1="221.45" x2="159.96" y2="219.45"/><ellipse class="cls-17" cx="158.86" cy="218.83" rx="0.89" ry="1.54" transform="translate(-88.72 110.09) rotate(-30.31)"/><polygon class="cls-27" points="167.76 226.4 162.72 223.49 162.72 218.61 167.76 221.53 167.76 226.4"/><polyline class="cls-15" points="124.05 251.74 124.05 259.72 118.51 262.88"/><polyline class="cls-15" points="124.05 259.57 124.05 267.55 118.51 270.71"/><polyline class="cls-15" points="124.05 267.39 124.05 275.38 118.51 278.53"/><ellipse class="cls-17" cx="124.04" cy="251.74" rx="0.89" ry="1.54" transform="translate(-110.09 97.01) rotate(-30.31)"/><line class="cls-15" x1="124.05" y1="250.74" x2="124.05" y2="247.21"/><ellipse class="cls-21" cx="117.66" cy="262.53" rx="0.89" ry="1.54" transform="translate(-116 94.7) rotate(-30.17)"/><ellipse class="cls-17" cx="118.51" cy="270.89" rx="0.89" ry="1.54" transform="translate(-120.51 96.84) rotate(-30.31)"/><ellipse class="cls-17" cx="118.51" cy="278.89" rx="0.89" ry="1.54" transform="translate(-124.55 97.93) rotate(-30.31)"/><polyline class="cls-15" points="123.8 232.54 114.9 217.2 114.9 193.12 118.17 191.26 122.68 193.86"/><polygon class="cls-10" points="132.1 199.78 129.07 198.03 129.07 197 132.1 198.75 132.1 199.78"/><polygon class="cls-13" points="131.07 199.18 130.1 198.63 130.1 197.6 131.07 198.16 131.07 199.18"/><polygon class="cls-10" points="124.83 195.58 121.8 193.83 121.8 192.8 124.83 194.55 124.83 195.58"/><polygon class="cls-13" points="123.8 194.98 122.83 194.42 122.83 193.4 123.8 193.96 123.8 194.98"/><polygon class="cls-28" points="124.86 192.8 129.11 195.24 129.11 199.76 124.86 197.31 124.86 192.8"/><ellipse class="cls-17" cx="124.16" cy="232.9" rx="0.89" ry="1.54" transform="matrix(0.86, -0.5, 0.5, 0.86, -100.57, 94.5)"/><line class="cls-15" x1="124.16" y1="233.91" x2="124.16" y2="237.44"/><ellipse class="cls-17" cx="114.9" cy="217.17" rx="0.89" ry="1.54" transform="translate(-93.89 87.67) rotate(-30.31)"/><ellipse class="cls-17" cx="118.29" cy="191.33" rx="0.89" ry="1.54" transform="translate(-80.39 85.85) rotate(-30.31)"/><ellipse class="cls-17" cx="137.91" cy="202.66" rx="0.89" ry="1.54" transform="translate(-83.42 97.3) rotate(-30.31)"/><ellipse class="cls-8" cx="115.24" cy="178.28" rx="3.75" ry="6.49" transform="translate(-74.22 82.53) rotate(-30.31)"/><ellipse cx="169.06" cy="209.59" rx="3.75" ry="6.49" transform="matrix(0.86, -0.5, 0.5, 0.86, -82.67, 113.97)"/><path class="cls-29" d="M170.27,214.87a10.18,10.18,0,0,1-4.61-7.94c0-1.79.78-2.92,2-3.19-1.83-.37-3.17.85-3.17,3.19a10.18,10.18,0,0,0,4.61,7.94,3.71,3.71,0,0,0,2.65.57A4.71,4.71,0,0,1,170.27,214.87Z"/><ellipse class="cls-8" cx="115.24" cy="299.82" rx="3.75" ry="6.49" transform="translate(-135.56 99.14) rotate(-30.31)"/><path class="cls-30" d="M116.44,305.11a10.2,10.2,0,0,1-4.6-7.94c0-1.79.78-2.92,2-3.2-1.84-.36-3.17.85-3.17,3.2a10.12,10.12,0,0,0,4.61,7.94,3.72,3.72,0,0,0,2.64.56A5,5,0,0,1,116.44,305.11Z"/><ellipse class="cls-8" cx="169.07" cy="331.13" rx="3.75" ry="6.49" transform="translate(-144 130.59) rotate(-30.31)"/><path class="cls-31" d="M170.27,336.43a10.18,10.18,0,0,1-4.61-7.95c0-1.78.78-2.91,2-3.19-1.83-.36-3.17.85-3.17,3.19a10.13,10.13,0,0,0,4.61,7.95,3.75,3.75,0,0,0,2.65.56A5,5,0,0,1,170.27,336.43Z"/><polygon class="cls-8" points="153.56 232.27 152.05 231.4 152.05 229.67 153.56 230.54 153.56 232.27"/><polygon class="cls-9" points="153.56 230.54 170.79 220.59 170.79 222.32 153.56 232.27 153.56 230.54"/><polygon class="cls-10" points="153.56 230.54 152.05 229.67 169.27 219.72 170.77 220.59 153.56 230.54"/><polygon class="cls-8" points="153.56 238.98 152.05 238.11 152.05 236.38 153.56 237.25 153.56 238.98"/><polygon class="cls-9" points="153.56 237.25 170.79 227.3 170.79 229.03 153.56 238.98 153.56 237.25"/><polygon class="cls-10" points="153.56 237.25 152.05 236.38 169.27 226.43 170.77 227.3 153.56 237.25"/><polygon class="cls-8" points="153.56 245.69 152.05 244.82 152.05 243.09 153.56 243.96 153.56 245.69"/><polygon class="cls-9" points="153.56 243.96 170.79 234.01 170.79 235.74 153.56 245.69 153.56 243.96"/><polygon class="cls-10" points="153.56 243.96 152.05 243.09 169.27 233.14 170.77 234.01 153.56 243.96"/><polygon class="cls-8" points="153.56 252.41 152.05 251.53 152.05 249.8 153.56 250.68 153.56 252.41"/><polygon class="cls-9" points="153.56 250.68 170.79 240.72 170.79 242.45 153.56 252.41 153.56 250.68"/><polygon class="cls-10" points="153.56 250.67 152.05 249.8 169.27 239.85 170.77 240.72 153.56 250.67"/><polygon class="cls-8" points="153.56 259.11 152.05 258.25 152.05 256.52 153.56 257.38 153.56 259.11"/><polygon class="cls-9" points="153.56 257.38 170.79 247.44 170.79 249.17 153.56 259.11 153.56 257.38"/><polygon class="cls-10" points="153.56 257.38 152.05 256.51 169.27 246.56 170.77 247.43 153.56 257.38"/><polygon class="cls-8" points="153.56 265.83 152.05 264.95 152.05 263.23 153.56 264.1 153.56 265.83"/><polygon class="cls-9" points="153.56 264.1 170.79 254.15 170.79 255.87 153.56 265.83 153.56 264.1"/><polygon class="cls-10" points="153.56 264.09 152.05 263.23 169.27 253.27 170.77 254.15 153.56 264.09"/><polygon class="cls-8" points="153.56 272.54 152.05 271.67 152.05 269.94 153.56 270.81 153.56 272.54"/><polygon class="cls-9" points="153.56 270.81 170.79 260.86 170.79 262.59 153.56 272.54 153.56 270.81"/><polygon class="cls-10" points="153.56 270.81 152.05 269.93 169.27 259.99 170.77 260.85 153.56 270.81"/><polygon class="cls-8" points="153.56 279.24 152.05 278.38 152.05 276.65 153.56 277.52 153.56 279.24"/><polygon class="cls-9" points="153.56 277.52 170.79 267.57 170.79 269.3 153.56 279.24 153.56 277.52"/><polygon class="cls-10" points="153.56 277.52 152.05 276.65 169.27 266.69 170.77 267.56 153.56 277.52"/><polygon class="cls-8" points="153.56 285.96 152.05 285.09 152.05 283.36 153.56 284.23 153.56 285.96"/><polygon class="cls-9" points="153.56 284.23 170.79 274.28 170.79 276.01 153.56 285.96 153.56 284.23"/><polygon class="cls-10" points="153.56 284.22 152.05 283.36 169.27 273.41 170.77 274.28 153.56 284.22"/><polygon class="cls-8" points="153.56 292.67 152.05 291.8 152.05 290.07 153.56 290.94 153.56 292.67"/><polygon class="cls-9" points="153.56 290.94 170.79 280.99 170.79 282.72 153.56 292.67 153.56 290.94"/><polygon class="cls-10" points="153.56 290.94 152.05 290.07 169.27 280.12 170.77 280.99 153.56 290.94"/><polygon class="cls-8" points="153.56 299.38 152.05 298.51 152.05 296.78 153.56 297.65 153.56 299.38"/><polygon class="cls-9" points="153.56 297.65 170.79 287.7 170.79 289.44 153.56 299.38 153.56 297.65"/><polygon class="cls-10" points="153.56 297.65 152.05 296.78 169.27 286.83 170.77 287.7 153.56 297.65"/><polygon class="cls-8" points="153.56 306.09 152.05 305.22 152.05 303.5 153.56 304.36 153.56 306.09"/><polygon class="cls-9" points="153.56 304.36 170.79 294.42 170.79 296.14 153.56 306.09 153.56 304.36"/><polygon class="cls-10" points="153.56 304.36 152.05 303.49 169.27 293.54 170.77 294.41 153.56 304.36"/><polygon class="cls-8" points="153.56 312.81 152.05 311.93 152.05 310.2 153.56 311.08 153.56 312.81"/><polygon class="cls-9" points="153.56 311.08 170.79 301.12 170.79 302.85 153.56 312.81 153.56 311.08"/><polygon class="cls-10" points="153.56 311.07 152.05 310.2 169.27 300.25 170.77 301.12 153.56 311.07"/><polygon class="cls-8" points="153.56 319.51 152.05 318.65 152.05 316.92 153.56 317.79 153.56 319.51"/><polygon class="cls-9" points="153.56 317.79 170.79 307.84 170.79 309.57 153.56 319.51 153.56 317.79"/><polygon class="cls-10" points="153.56 317.79 152.05 316.91 169.27 306.96 170.77 307.83 153.56 317.79"/><polygon class="cls-8" points="153.56 326.23 152.05 325.35 152.05 323.63 153.56 324.5 153.56 326.23"/><polygon class="cls-9" points="153.56 324.5 170.79 314.55 170.79 316.27 153.56 326.23 153.56 324.5"/><polygon class="cls-10" points="153.56 324.49 152.05 323.63 169.27 313.67 170.77 314.55 153.56 324.49"/><polygon class="cls-8" points="153.56 332.94 152.05 332.07 152.05 330.34 153.56 331.21 153.56 332.94"/><polygon class="cls-9" points="153.56 331.21 170.79 321.26 170.79 322.99 153.56 332.94 153.56 331.21"/><polygon class="cls-10" points="153.56 331.21 152.05 330.33 169.27 320.39 170.77 321.25 153.56 331.21"/><polygon class="cls-8" points="153.56 339.65 152.05 338.78 152.05 337.05 153.56 337.92 153.56 339.65"/><polygon class="cls-9" points="153.56 337.92 170.79 327.97 170.79 329.7 153.56 339.65 153.56 337.92"/><polygon class="cls-10" points="153.56 337.92 152.05 337.05 169.27 327.1 170.77 327.96 153.56 337.92"/><polygon class="cls-8" points="153.56 346.36 152.05 345.49 152.05 343.76 153.56 344.63 153.56 346.36"/><polygon class="cls-9" points="153.56 344.63 170.79 334.68 170.79 336.41 153.56 346.36 153.56 344.63"/><polygon class="cls-10" points="153.56 344.63 152.05 343.76 169.27 333.81 170.77 334.68 153.56 344.63"/><path class="cls-32" d="M157.61,212.51a14.83,14.83,0,0,1,2,7v130.2c0,4.35-2.65,6.36-5.92,4.47L91.05,318c-3.27-1.89-5.92-7-5.92-11.31V176.52c0-4.35,2.65-6.35,5.92-4.47l62.6,36.15a11.48,11.48,0,0,1,4,4.31"/><path class="cls-33" d="M83.23,307.93V177.73c0-4.36,2.65-6.36,5.91-4.47l62.61,36.14c3.26,1.88,5.91,6.94,5.91,11.3V350.91c0,4.35-2.65,6.36-5.91,4.47L89.14,319.24C85.89,317.35,83.23,312.29,83.23,307.93Z"/><polygon class="cls-10" points="111.59 231.9 107.55 229.57 107.55 228.2 111.59 230.54 111.59 231.9"/><polygon class="cls-10" points="111.59 227.74 107.55 225.4 107.55 224.03 111.59 226.37 111.59 227.74"/><polygon class="cls-10" points="111.59 223.57 107.55 221.24 107.55 219.87 111.59 222.21 111.59 223.57"/><polygon class="cls-10" points="111.59 219.41 107.55 217.07 107.55 215.7 111.59 218.04 111.59 219.41"/><polygon class="cls-13" points="108.92 230.36 109.89 230.92 109.89 229.56 108.92 229 108.92 230.36"/><polygon class="cls-13" points="108.92 226.2 109.89 226.75 109.89 225.39 108.92 224.83 108.92 226.2"/><polygon class="cls-13" points="108.92 222.03 109.89 222.59 109.89 221.22 108.92 220.67 108.92 222.03"/><polygon class="cls-13" points="108.92 216.5 108.92 217.86 109.89 218.42 109.89 217.06 108.92 216.5"/><polygon class="cls-10" points="99.7 225.07 95.66 222.73 95.66 221.37 99.7 223.7 99.7 225.07"/><polygon class="cls-10" points="99.7 220.9 95.66 218.57 95.66 217.2 99.7 219.53 99.7 220.9"/><polygon class="cls-10" points="99.7 216.74 95.66 214.4 95.66 213.04 99.7 215.37 99.7 216.74"/><polygon class="cls-10" points="99.7 212.57 95.66 210.23 95.66 208.87 99.7 211.2 99.7 212.57"/><polygon class="cls-13" points="97.03 223.53 98 224.09 98 222.72 97.03 222.16 97.03 223.53"/><polygon class="cls-13" points="97.03 219.36 98 219.92 98 218.55 97.03 218 97.03 219.36"/><polygon class="cls-13" points="97.03 215.19 98 215.75 98 214.38 97.03 213.83 97.03 215.19"/><polygon class="cls-13" points="97.03 209.66 97.03 211.03 98 211.59 98 210.22 97.03 209.66"/><polygon class="cls-34" points="108.21 233.3 98.81 227.88 98.81 207.41 108.21 212.83 108.21 233.3"/><polyline class="cls-15" points="134.22 303.89 134.22 279.03 144.29 273.29 144.29 266.3"/><polygon class="cls-5" points="128.23 299.38 112.66 290.39 112.66 272.52 128.23 281.51 128.23 299.38"/><polygon class="cls-10" points="133.4 287.21 128.23 284.22 128.23 283.2 133.4 286.19 133.4 287.21"/><polygon class="cls-13" points="131.65 286.19 129.99 285.24 129.99 284.22 131.65 285.17 131.65 286.19"/><polygon class="cls-10" points="133.4 289.13 128.23 286.15 128.23 285.13 133.4 288.11 133.4 289.13"/><polygon class="cls-13" points="131.65 288.11 129.99 287.17 129.99 286.14 131.65 287.1 131.65 288.11"/><polygon class="cls-10" points="133.4 291.06 128.23 288.07 128.23 287.05 133.4 290.04 133.4 291.06"/><polygon class="cls-13" points="131.65 290.05 129.99 289.09 129.99 288.07 131.65 289.02 131.65 290.05"/><polygon class="cls-10" points="133.4 292.99 128.23 290 128.23 288.97 133.4 291.96 133.4 292.99"/><polygon class="cls-13" points="131.65 291.97 129.99 291.01 129.99 289.99 131.65 290.95 131.65 291.97"/><polygon class="cls-10" points="133.4 294.91 128.23 291.92 128.23 290.9 133.4 293.89 133.4 294.91"/><polygon class="cls-13" points="131.65 293.89 129.99 292.94 129.99 291.92 131.65 292.87 131.65 293.89"/><polygon class="cls-10" points="133.4 296.83 128.23 293.85 128.23 292.82 133.4 295.81 133.4 296.83"/><polygon class="cls-13" points="131.65 295.82 129.99 294.86 129.99 293.84 131.65 294.8 131.65 295.82"/><polygon class="cls-10" points="133.4 298.76 128.23 295.77 128.23 294.75 133.4 297.74 133.4 298.76"/><polygon class="cls-13" points="131.65 297.74 129.99 296.79 129.99 295.76 131.65 296.72 131.65 297.74"/><polygon class="cls-10" points="133.4 300.68 128.23 297.69 128.23 296.67 133.4 299.66 133.4 300.68"/><polygon class="cls-13" points="131.65 299.67 129.99 298.71 129.99 297.69 131.65 298.64 131.65 299.67"/><polygon class="cls-10" points="125.87 303.96 125.87 298.02 126.76 298.54 126.76 304.47 125.87 303.96"/><polygon class="cls-13" points="125.87 301.94 125.87 300.04 126.76 300.55 126.76 302.45 125.87 301.94"/><polygon class="cls-10" points="124.2 302.99 124.2 297.05 125.08 297.57 125.08 303.5 124.2 302.99"/><polygon class="cls-13" points="124.2 300.97 124.2 299.07 125.08 299.58 125.08 301.48 124.2 300.97"/><polygon class="cls-10" points="122.52 302.02 122.52 296.08 123.41 296.6 123.41 302.53 122.52 302.02"/><polygon class="cls-13" points="122.52 300 122.52 298.1 123.41 298.62 123.41 300.51 122.52 300"/><polygon class="cls-10" points="120.84 301.05 120.84 295.11 121.73 295.63 121.73 301.56 120.84 301.05"/><polygon class="cls-13" points="120.84 299.03 120.84 297.13 121.73 297.65 121.73 299.54 120.84 299.03"/><polygon class="cls-10" points="119.16 300.09 119.16 294.14 120.05 294.66 120.05 300.6 119.16 300.09"/><polygon class="cls-13" points="119.16 298.06 119.16 296.16 120.05 296.68 120.05 298.57 119.16 298.06"/><polygon class="cls-10" points="117.49 299.12 117.49 293.18 118.38 293.69 118.38 299.63 117.49 299.12"/><polygon class="cls-13" points="117.49 297.09 117.49 295.19 118.38 295.71 118.38 297.61 117.49 297.09"/><polygon class="cls-10" points="115.81 298.15 115.81 292.21 116.69 292.72 116.69 298.66 115.81 298.15"/><polygon class="cls-13" points="115.81 296.12 115.81 294.23 116.69 294.74 116.69 296.64 115.81 296.12"/><polygon class="cls-10" points="114.13 297.18 114.13 291.24 115.02 291.75 115.02 297.69 114.13 297.18"/><polygon class="cls-13" points="114.13 295.16 114.13 293.26 115.02 293.77 115.02 295.67 114.13 295.16"/><polygon class="cls-10" points="107.49 284.7 112.66 287.68 112.66 288.7 107.49 285.71 107.49 284.7"/><polygon class="cls-13" points="109.25 285.71 110.9 286.66 110.9 287.69 109.25 286.73 109.25 285.71"/><polygon class="cls-10" points="107.49 282.77 112.66 285.76 112.66 286.78 107.49 283.79 107.49 282.77"/><polygon class="cls-13" points="109.25 283.79 110.9 284.74 110.9 285.76 109.25 284.81 109.25 283.79"/><polygon class="cls-10" points="107.49 280.84 112.66 283.83 112.66 284.85 107.49 281.87 107.49 280.84"/><polygon class="cls-13" points="109.25 281.86 110.9 282.81 110.9 283.84 109.25 282.88 109.25 281.86"/><polygon class="cls-10" points="107.49 278.92 112.66 281.91 112.66 282.93 107.49 279.94 107.49 278.92"/><polygon class="cls-13" points="109.25 279.94 110.9 280.89 110.9 281.91 109.25 280.96 109.25 279.94"/><polygon class="cls-10" points="107.49 276.99 112.66 279.98 112.66 281.01 107.49 278.02 107.49 276.99"/><polygon class="cls-13" points="109.25 278.01 110.9 278.97 110.9 279.99 109.25 279.03 109.25 278.01"/><polygon class="cls-10" points="107.49 275.07 112.66 278.06 112.66 279.08 107.49 276.09 107.49 275.07"/><polygon class="cls-13" points="109.25 276.09 110.9 277.04 110.9 278.06 109.25 277.11 109.25 276.09"/><polygon class="cls-10" points="107.49 273.15 112.66 276.13 112.66 277.16 107.49 274.17 107.49 273.15"/><polygon class="cls-13" points="109.25 274.16 110.9 275.12 110.9 276.14 109.25 275.19 109.25 274.16"/><polygon class="cls-10" points="107.49 271.22 112.66 274.21 112.66 275.23 107.49 272.25 107.49 271.22"/><polygon class="cls-13" points="109.25 272.24 110.9 273.19 110.9 274.22 109.25 273.26 109.25 272.24"/><polygon class="cls-10" points="115.02 267.95 115.02 273.88 114.13 273.37 114.13 267.43 115.02 267.95"/><polygon class="cls-13" points="115.02 269.97 115.02 271.87 114.13 271.35 114.13 269.45 115.02 269.97"/><polygon class="cls-10" points="116.69 268.92 116.69 274.85 115.81 274.34 115.81 268.4 116.69 268.92"/><polygon class="cls-13" points="116.69 270.94 116.69 272.83 115.81 272.32 115.81 270.42 116.69 270.94"/><polygon class="cls-10" points="118.38 269.89 118.38 275.82 117.49 275.31 117.49 269.37 118.38 269.89"/><polygon class="cls-13" points="118.38 271.91 118.38 273.8 117.49 273.29 117.49 271.39 118.38 271.91"/><polygon class="cls-10" points="120.05 270.86 120.05 276.79 119.16 276.28 119.16 270.34 120.05 270.86"/><polygon class="cls-13" points="120.05 272.88 120.05 274.77 119.16 274.26 119.16 272.36 120.05 272.88"/><polygon class="cls-10" points="121.73 271.82 121.73 277.76 120.84 277.25 120.84 271.31 121.73 271.82"/><polygon class="cls-13" points="121.73 273.84 121.73 275.74 120.84 275.23 120.84 273.33 121.73 273.84"/><polygon class="cls-10" points="123.41 272.79 123.41 278.73 122.52 278.21 122.52 272.28 123.41 272.79"/><polygon class="cls-13" points="123.41 274.81 123.41 276.71 122.52 276.19 122.52 274.3 123.41 274.81"/><polygon class="cls-10" points="125.08 273.76 125.08 279.7 124.2 279.18 124.2 273.25 125.08 273.76"/><polygon class="cls-13" points="125.08 275.78 125.08 277.67 124.2 277.16 124.2 275.27 125.08 275.78"/><polygon class="cls-10" points="126.76 274.72 126.76 280.66 125.87 280.15 125.87 274.22 126.76 274.72"/><polygon class="cls-13" points="126.76 276.74 126.76 278.64 125.87 278.13 125.87 276.24 126.76 276.74"/><polygon class="cls-5" points="128.23 299.38 112.66 290.39 112.66 272.52 128.23 281.51 128.23 299.38"/><polygon class="cls-35" points="128.23 299.38 112.66 290.39 112.66 272.52 128.23 281.51 128.23 299.38"/><ellipse class="cls-17" cx="144.28" cy="267.3" rx="0.89" ry="1.54" transform="translate(-115.18 109.35) rotate(-30.31)"/><ellipse class="cls-17" cx="146.81" cy="279.54" rx="0.89" ry="1.54" transform="matrix(0.86, -0.5, 0.5, 0.86, -121.01, 112.3)"/><ellipse class="cls-17" cx="139.92" cy="264.78" rx="0.89" ry="1.54" transform="translate(-114.5 106.81) rotate(-30.31)"/><ellipse class="cls-17" cx="134.21" cy="304.85" rx="0.89" ry="1.54" transform="translate(-135.51 109.41) rotate(-30.31)"/><line class="cls-15" x1="139.92" y1="272.66" x2="139.92" y2="266.04"/><polygon class="cls-10" points="141.79 271.63 138.04 269.47 138.04 268.74 141.79 270.9 141.79 271.63"/><polygon class="cls-13" points="140.51 270.9 139.32 270.2 139.32 269.47 140.51 270.16 140.51 270.9"/><line class="cls-15" x1="141.01" y1="276.19" x2="145.72" y2="278.91"/><polygon class="cls-36" points="142.44 279.91 137.4 276.99 137.4 271.21 142.44 274.12 142.44 279.91"/><ellipse class="cls-17" cx="127.06" cy="265.74" rx="0.89" ry="1.54" transform="translate(-116.74 100.45) rotate(-30.31)"/><line class="cls-15" x1="122.49" y1="263.12" x2="125.96" y2="265.11"/><ellipse class="cls-17" cx="114.28" cy="258.37" rx="0.89" ry="1.54" transform="translate(-114.77 92.99) rotate(-30.31)"/><line class="cls-15" x1="118.85" y1="261" x2="115.39" y2="259.01"/><polygon class="cls-37" points="123.19 265.96 118.14 263.04 118.14 258.16 123.19 261.08 123.19 265.96"/><path class="cls-10" d="M102.21,256.69l-.21-.12a3.33,3.33,0,0,1-1.35-2.63V247.2c0-1,.62-1.48,1.35-1l.21.13a3.26,3.26,0,0,1,1.36,2.62v6.74C103.59,256.66,103,257.15,102.21,256.69Z"/><polygon class="cls-13" points="103.59 254.17 100.63 252.45 100.63 248.52 103.59 250.23 103.59 254.17"/><path class="cls-9" d="M102.11,246.23l-.11-.06v10.38s.07.06.11.08c.82.47,1.48.09,1.48-.85v-7A3.23,3.23,0,0,0,102.11,246.23Z"/><ellipse class="cls-17" cx="125.35" cy="310.99" rx="0.89" ry="1.54" transform="translate(-139.81 105.77) rotate(-30.31)"/><line class="cls-15" x1="124.48" y1="310.49" x2="121.4" y2="308.71"/><ellipse class="cls-17" cx="134.54" cy="330.82" rx="0.89" ry="1.54" transform="translate(-148.57 113.12) rotate(-30.31)"/><line class="cls-15" x1="133.68" y1="330.31" x2="130.59" y2="328.54"/><ellipse class="cls-17" cx="134.54" cy="335.7" rx="0.89" ry="1.54" transform="translate(-151.03 113.79) rotate(-30.31)"/><line class="cls-15" x1="133.68" y1="335.19" x2="130.59" y2="333.41"/><ellipse class="cls-17" cx="108.88" cy="301.36" rx="0.89" ry="1.54" transform="translate(-137.2 96.14) rotate(-30.31)"/><line class="cls-15" x1="109.75" y1="301.86" x2="112.83" y2="303.64"/><path class="cls-10" d="M112.54,303.59h0c0-.94.57-1.36,1.28-1l6.51,3.76a3,3,0,0,1,1.28,2.44h0c0,.93-.58,1.35-1.28,1L113.82,306A3.08,3.08,0,0,1,112.54,303.59Z"/><polygon class="cls-13" points="115.43 306.96 115.43 303.56 118.86 305.54 118.86 308.94 115.43 306.96"/><path class="cls-9" d="M121.61,308.83v-.14l-9-5.22v.12a3.27,3.27,0,0,0,1.48,2.55l1.41.82,3.43,2,1.26.73C120.94,310.14,121.61,309.76,121.61,308.83Z"/><ellipse class="cls-21" cx="143.9" cy="293.23" rx="0.89" ry="1.54" transform="translate(-127.87 112.04) rotate(-30.17)"/><line class="cls-15" x1="144.98" y1="294.55" x2="144.98" y2="298.09"/><ellipse class="cls-19" cx="143.71" cy="312" rx="0.89" ry="1.54" transform="translate(-137.35 114.51) rotate(-30.17)"/><line class="cls-15" x1="144.87" y1="311.39" x2="144.87" y2="307.86"/><path class="cls-10" d="M145.09,308.32l-.22-.12a3.34,3.34,0,0,1-1.36-2.63v-6.74c0-1,.62-1.47,1.36-1l.22.13a3.27,3.27,0,0,1,1.35,2.62v6.78C146.45,308.29,145.84,308.75,145.09,308.32Z"/><polygon class="cls-13" points="146.46 305.8 143.49 304.08 143.49 300.15 146.46 301.86 146.46 305.8"/><path class="cls-9" d="M145,297.85l-.14,0v10.37l.11.08c.82.47,1.48.09,1.48-.85v-7A3.25,3.25,0,0,0,145,297.85Z"/><line class="cls-15" x1="103.2" y1="242.55" x2="138.82" y2="263.12"/><polygon class="cls-10" points="119.16 263.63 118.1 263.02 118.1 258.14 119.16 258.75 119.16 263.63"/><polygon class="cls-10" points="123.19 265.95 122.12 265.33 122.12 260.46 123.19 261.07 123.19 265.95"/><polygon class="cls-38" points="130.8 336 110.08 324.03 110.08 314.51 130.8 326.49 130.8 336"/><polygon class="cls-23" points="129.99 342.82 110.9 331.8 110.9 324.51 129.99 335.54 129.99 342.82"/><path class="cls-10" d="M113.5,329.6h0c0-.48.29-.68.68-.49l3.28,1.9a1.54,1.54,0,0,1,.68,1.23h0c0,.48-.29.68-.68.49l-3.31-1.91A1.54,1.54,0,0,1,113.5,329.6Z"/><polygon class="cls-13" points="114.97 331.3 114.97 329.57 116.72 330.58 116.72 332.31 114.97 331.3"/><path class="cls-9" d="M118.11,332.25v-.07l-4.59-2.65v.07a1.67,1.67,0,0,0,.75,1.29l.72.41,1.74,1,.68.37C117.77,332.92,118.11,332.73,118.11,332.25Z"/><line class="cls-15" x1="136.81" y1="229.19" x2="136.81" y2="261.96"/><line class="cls-15" x1="136.81" y1="245.11" x2="130.73" y2="234.63"/><ellipse class="cls-17" cx="130.67" cy="234.66" rx="0.89" ry="1.54" transform="translate(-100.56 98.02) rotate(-30.31)"/><line class="cls-15" x1="129.8" y1="234.16" x2="126.72" y2="232.38"/><ellipse class="cls-17" cx="115.41" cy="225.73" rx="0.89" ry="1.54" transform="translate(-98.14 89.1) rotate(-30.31)"/><line class="cls-15" x1="116.28" y1="226.23" x2="118.15" y2="227.31"/><path class="cls-10" d="M117.85,227.26h0c0-.94.58-1.36,1.28-1l6.52,3.75a3.07,3.07,0,0,1,1.27,2.44h0c0,.94-.57,1.36-1.27,1l-6.52-3.76A3.07,3.07,0,0,1,117.85,227.26Z"/><polygon class="cls-13" points="120.75 230.63 120.75 227.23 124.17 229.21 124.17 232.61 120.75 230.63"/><path class="cls-9" d="M126.92,232.5v-.14l-9-5.22v.12a3.29,3.29,0,0,0,1.49,2.55l1.41.82,3.43,2,1.26.73C126.26,233.81,126.92,233.44,126.92,232.5Z"/><polyline class="cls-15" points="102.11 241.92 113.27 235.55 135.72 248.51"/><polygon class="cls-10" points="115.86 235.17 115.86 238.64 114.97 238.13 114.97 234.65 115.86 235.17"/><polygon class="cls-13" points="115.86 236.35 115.86 237.46 114.97 236.95 114.97 235.84 115.86 236.35"/><polygon class="cls-10" points="119.22 237.1 119.22 240.58 118.32 240.07 118.32 236.59 119.22 237.1"/><polygon class="cls-13" points="119.22 238.29 119.22 239.4 118.32 238.89 118.32 237.78 119.22 238.29"/><polygon class="cls-10" points="122.57 239.04 122.57 242.52 121.67 242 121.67 238.53 122.57 239.04"/><polygon class="cls-13" points="122.57 240.23 122.57 241.34 121.67 240.82 121.67 239.71 122.57 240.23"/><polygon class="cls-10" points="125.92 240.98 125.92 244.46 125.04 243.94 125.04 240.47 125.92 240.98"/><polygon class="cls-13" points="125.92 242.16 125.92 243.27 125.04 242.76 125.04 241.65 125.92 242.16"/><polygon class="cls-10" points="115.86 247.07 115.86 250.55 114.97 250.03 114.97 246.56 115.86 247.07"/><polygon class="cls-13" points="115.86 248.26 115.86 249.36 114.97 248.85 114.97 247.74 115.86 248.26"/><polygon class="cls-10" points="119.22 249.01 119.22 252.49 118.32 251.97 118.32 248.5 119.22 249.01"/><polygon class="cls-13" points="119.22 250.19 119.22 251.3 118.32 250.78 118.32 249.68 119.22 250.19"/><polygon class="cls-10" points="122.57 250.95 122.57 254.42 121.67 253.91 121.67 250.43 122.57 250.95"/><polygon class="cls-13" points="122.57 252.13 122.57 253.24 121.67 252.72 121.67 251.61 122.57 252.13"/><polygon class="cls-10" points="125.92 252.89 125.92 256.36 125.04 255.85 125.04 252.37 125.92 252.89"/><polygon class="cls-13" points="125.92 254.06 125.92 255.18 125.04 254.66 125.04 253.55 125.92 254.06"/><polygon class="cls-39" points="128.23 254.21 112.66 245.22 112.66 236.8 128.23 245.79 128.23 254.21"/><line class="cls-15" x1="136.81" y1="228.09" x2="132.56" y2="220.77"/><ellipse class="cls-17" cx="149.57" cy="256.31" rx="0.89" ry="1.54" transform="translate(-108.91 110.52) rotate(-30.31)"/><line class="cls-15" x1="145.02" y1="253.69" x2="148.47" y2="255.68"/><ellipse class="cls-21" cx="135.97" cy="248.74" rx="0.89" ry="1.54" transform="translate(-106.59 102.03) rotate(-30.17)"/><line class="cls-15" x1="141.37" y1="251.58" x2="137.91" y2="249.58"/><polygon class="cls-40" points="145.72 256.52 140.67 253.61 140.67 248.74 145.72 251.65 145.72 256.52"/><ellipse class="cls-21" cx="148.7" cy="245.61" rx="0.89" ry="1.54" transform="translate(-103.29 108) rotate(-30.17)"/><line class="cls-15" x1="145.02" y1="243.13" x2="148.47" y2="245.13"/><ellipse class="cls-17" cx="136.81" cy="238.38" rx="0.89" ry="1.54" transform="translate(-101.61 101.63) rotate(-30.31)"/><line class="cls-15" x1="141.37" y1="241.02" x2="137.91" y2="239.02"/><polygon class="cls-41" points="145.72 245.97 140.67 243.05 140.67 238.18 145.72 241.1 145.72 245.97"/><ellipse class="cls-17" cx="149.57" cy="235.2" rx="0.89" ry="1.54" transform="translate(-98.26 107.63) rotate(-30.31)"/><line class="cls-15" x1="145.02" y1="232.58" x2="148.47" y2="234.57"/><ellipse class="cls-17" cx="132.5" cy="220.4" rx="0.89" ry="1.54" transform="translate(-93.12 97) rotate(-30.31)"/><line class="cls-15" x1="141.37" y1="230.46" x2="137.91" y2="228.47"/><ellipse class="cls-17" cx="136.8" cy="227.83" rx="0.89" ry="1.54" transform="translate(-96.28 100.19) rotate(-30.31)"/><polygon class="cls-42" points="145.72 235.42 140.67 232.5 140.67 227.63 145.72 230.54 145.72 235.42"/><polyline class="cls-15" points="102 260.76 102 268.74 96.45 271.9"/><polyline class="cls-15" points="102 268.59 102 276.56 96.45 279.73"/><polyline class="cls-15" points="102 276.41 102 284.39 96.45 287.55"/><ellipse class="cls-17" cx="102" cy="260.76" rx="0.89" ry="1.54" transform="matrix(0.86, -0.5, 0.5, 0.86, -117.66, 87.12)"/><line class="cls-15" x1="102" y1="259.76" x2="102" y2="256.23"/><ellipse class="cls-17" cx="96.46" cy="271.9" rx="0.89" ry="1.54" transform="translate(-124.04 85.85) rotate(-30.31)"/><ellipse class="cls-17" cx="96.46" cy="279.9" rx="0.89" ry="1.54" transform="translate(-128.07 86.94) rotate(-30.31)"/><ellipse class="cls-17" cx="96.46" cy="287.92" rx="0.89" ry="1.54" transform="translate(-132.12 88.04) rotate(-30.31)"/><polyline class="cls-15" points="101.75 241.56 92.84 226.22 92.84 202.14 96.12 200.28 100.63 202.88"/><polygon class="cls-10" points="110.05 208.79 107.03 207.05 107.03 206.02 110.05 207.77 110.05 208.79"/><polygon class="cls-13" points="109.02 208.2 108.06 207.64 108.06 206.62 109.02 207.18 109.02 208.2"/><polygon class="cls-10" points="102.78 204.59 99.75 202.84 99.75 201.82 102.78 203.57 102.78 204.59"/><polygon class="cls-13" points="101.75 204 100.78 203.44 100.78 202.41 101.75 202.97 101.75 204"/><polygon class="cls-43" points="102.81 201.81 107.05 204.26 107.05 208.78 102.81 206.32 102.81 201.81"/><ellipse class="cls-17" cx="102.1" cy="241.92" rx="0.89" ry="1.54" transform="translate(-108.13 84.6) rotate(-30.31)"/><line class="cls-15" x1="102.11" y1="242.92" x2="102.11" y2="246.46"/><ellipse class="cls-17" cx="92.84" cy="226.18" rx="0.89" ry="1.54" transform="translate(-101.46 77.77) rotate(-30.31)"/><ellipse class="cls-17" cx="96.24" cy="200.35" rx="0.89" ry="1.54" transform="matrix(0.86, -0.5, 0.5, 0.86, -87.96, 75.96)"/><ellipse class="cls-17" cx="115.86" cy="211.68" rx="0.89" ry="1.54" transform="translate(-90.99 87.41) rotate(-30.31)"/><ellipse class="cls-8" cx="92.78" cy="187.09" rx="3.73" ry="6.46" transform="translate(-81.46 71.98) rotate(-30.17)"/><path class="cls-44" d="M94.4,192.59a10.15,10.15,0,0,1-4.61-7.94c0-1.78.78-2.91,2-3.18-1.84-.39-3.15.83-3.15,3.18a10.16,10.16,0,0,0,4.6,7.95,3.76,3.76,0,0,0,2.65.56A4.77,4.77,0,0,1,94.4,192.59Z"/><ellipse class="cls-8" cx="147.01" cy="218.6" rx="3.75" ry="6.49" transform="translate(-90.23 104.07) rotate(-30.31)"/><path class="cls-45" d="M148.23,223.89a10.18,10.18,0,0,1-4.61-7.94c0-1.79.77-2.92,2-3.19-1.84-.37-3.17.85-3.17,3.19a10.12,10.12,0,0,0,4.61,7.94,3.64,3.64,0,0,0,2.65.56A4.36,4.36,0,0,1,148.23,223.89Z"/><ellipse class="cls-8" cx="92.21" cy="308.22" rx="3.73" ry="6.46" transform="translate(-142.43 88.11) rotate(-30.17)"/><path class="cls-46" d="M94.4,314.13a10.16,10.16,0,0,1-4.61-7.95c0-1.78.78-2.92,2-3.19-1.84-.37-3.15.85-3.15,3.19a10.2,10.2,0,0,0,4.6,7.95,3.75,3.75,0,0,0,2.65.56A5,5,0,0,1,94.4,314.13Z"/><ellipse class="cls-8" cx="147.01" cy="340.14" rx="3.75" ry="6.49" transform="matrix(0.86, -0.5, 0.5, 0.86, -151.56, 120.69)"/><path class="cls-47" d="M148.23,345.43a10.12,10.12,0,0,1-4.61-7.94c0-1.79.77-2.91,2-3.19-1.84-.37-3.17.84-3.17,3.19a10.12,10.12,0,0,0,4.61,7.94,3.64,3.64,0,0,0,2.65.56A4.36,4.36,0,0,1,148.23,345.43Z"/><path class="cls-32" d="M83.18,307.78v-130c0-4.35,2.64-6.35,5.91-4.47l62.53,36.1c3.26,1.89,5.91,6.94,5.91,11.3v130c0,4.35-2.65,6.35-5.91,4.46l-62.53-36.1C85.82,317.19,83.18,312.13,83.18,307.78Z"/><path class="cls-48" d="M133.32,247.11l-25.92-15a3.52,3.52,0,0,1-1.47-2.77h0c0-1.07.68-1.57,1.47-1.11l25.92,14.91a3.52,3.52,0,0,1,1.47,2.79h0C134.78,247.07,134.12,247.57,133.32,247.11Z"/><path class="cls-48" d="M133.32,255.91l-25.92-15a3.52,3.52,0,0,1-1.47-2.76h0c0-1.08.68-1.57,1.47-1.1L133.32,252a3.51,3.51,0,0,1,1.47,2.79h0C134.78,255.88,134.12,256.38,133.32,255.91Z"/><path class="cls-48" d="M133.32,264.71l-25.92-15a3.54,3.54,0,0,1-1.47-2.8h0c0-1.08.68-1.57,1.47-1.1l25.92,15a3.53,3.53,0,0,1,1.47,2.8h0C134.78,264.68,134.12,265.18,133.32,264.71Z"/><path class="cls-48" d="M133.32,286.62l-25.92-15a3.54,3.54,0,0,1-1.47-2.8h0c0-1.07.68-1.57,1.47-1.1l25.92,15a3.54,3.54,0,0,1,1.47,2.8h0C134.78,286.6,134.12,287.09,133.32,286.62Z"/><path class="cls-48" d="M133.32,295.42l-25.92-15a3.52,3.52,0,0,1-1.47-2.79h0c0-1.08.68-1.58,1.47-1.11l25.92,15a3.48,3.48,0,0,1,1.47,2.79h0C134.78,295.4,134.12,295.89,133.32,295.42Z"/><path class="cls-48" d="M133.32,304.23l-25.92-15a3.54,3.54,0,0,1-1.47-2.8h0c0-1.08.68-1.57,1.47-1.11l25.92,15a3.52,3.52,0,0,1,1.47,2.79h0C134.78,304.2,134.12,304.69,133.32,304.23Z"/><polygon class="cls-49" points="124.15 272.54 116.57 268.17 116.57 261.6 124.15 265.98 124.15 272.54"/><ellipse class="cls-8" cx="93.13" cy="187.3" rx="3.75" ry="6.48" transform="translate(-81.79 72.6) rotate(-30.31)"/><ellipse class="cls-12" cx="147.08" cy="218.44" rx="3.75" ry="6.48" transform="translate(-90.14 104.09) rotate(-30.31)"/><ellipse class="cls-8" cx="93.13" cy="308.85" rx="3.75" ry="6.48" transform="translate(-143.14 89.22) rotate(-30.31)"/><ellipse class="cls-8" cx="145.78" cy="339.54" rx="3.73" ry="6.45" transform="translate(-150.9 119.26) rotate(-30.17)"/><path class="cls-8" d="M113,198.48a.82.82,0,0,0,.3.1.39.39,0,0,0,.21-.06.82.82,0,0,0,.12-.2,1.41,1.41,0,0,0,0-.29V198l.34.2v0a1.24,1.24,0,0,1-.06.43.53.53,0,0,1-.19.25.48.48,0,0,1-.31.08,1.14,1.14,0,0,1-.43-.17,1.87,1.87,0,0,1-.74-.76,2.56,2.56,0,0,1-.27-1.15v-.71a1,1,0,0,1,.27-.83c.17-.14.43-.11.74.07a2,2,0,0,1,.93,1.26,1.77,1.77,0,0,1,.07.5v.06l-.35-.2V197a1.19,1.19,0,0,0,0-.33,1.35,1.35,0,0,0-.11-.34,1.37,1.37,0,0,0-.2-.29,1.13,1.13,0,0,0-.3-.24c-.22-.13-.39-.14-.5,0a1,1,0,0,0-.16.63v.68a2,2,0,0,0,.16.83A1.4,1.4,0,0,0,113,198.48Z"/><path class="cls-8" d="M114.54,196.42l.34.19v2.91l1.49.86v.36l-1.83-1.06Z"/><path class="cls-8" d="M117,197.85l1.81,1v.37l-.73-.42v2.53l.73.43v.36L117,201.1v-.35l.74.42v-2.55l-.74-.42Z"/><path class="cls-8" d="M119.35,199.19l.68.38.38,3.32h0l.38-2.88.68.38v3.27l-.32-.18v-3.11h-.06l-.39,2.88-.62-.36-.35-3.33h0v3.1l-.31-.19Z"/><path class="cls-8" d="M123.5,204.05l-1.22-.68-.21.68-.36-.21.87-2.77.63.37.87,3.76-.37-.21Zm-.63-2.65-.49,1.64,1,.59-.49-2.21Z"/><path class="cls-8" d="M124.39,202.1l2,1.16v.37l-.82-.48v2.9l-.35-.2V203l-.82-.48Z"/><path class="cls-8" d="M127,203.63l1.73,1V205l-1.36-.8v1.09l1.36.77v.37l-1.36-.79v1.1l1.4.82v.35l-1.75-1Z"/><path class="cls-8" d="M113.12,201.21l.68.37.39,3.32h0l.37-2.88.68.38v3.26l-.31-.18v-3.1h0l-.38,2.88-.62-.36-.44-3.31,0,0v3.1l-.32-.18Z"/><path class="cls-8" d="M115.71,203.94a1,1,0,0,1,.26-.83c.18-.13.42-.11.74.08a1.93,1.93,0,0,1,.73.77,2.36,2.36,0,0,1,.26,1.14v.73c0,.43-.08.71-.26.84s-.42.09-.73-.08a2,2,0,0,1-.74-.77,2.42,2.42,0,0,1-.26-1.15Zm1,2.28c.22.12.38.14.49,0a1,1,0,0,0,.17-.68v-.67a2.11,2.11,0,0,0-.17-.82,1.21,1.21,0,0,0-.49-.56c-.23-.13-.39-.13-.5,0a.94.94,0,0,0-.17.63v.68a2,2,0,0,0,.14.86,1.21,1.21,0,0,0,.49.56Z"/><path class="cls-8" d="M118.21,204.14l.94.54a2.08,2.08,0,0,1,.77.73,2.1,2.1,0,0,1,.24,1.07v.84c0,.43-.08.68-.24.78s-.42.05-.77-.15l-.94-.54V207l.25.15v-2.54l-.25-.14Zm.89,3.39a1.22,1.22,0,0,0,.33.14.28.28,0,0,0,.22,0,.34.34,0,0,0,.13-.2,1.33,1.33,0,0,0,0-.4v-.73a2.31,2.31,0,0,0,0-.46,1.12,1.12,0,0,0-.35-.61,2.52,2.52,0,0,0-.33-.24l-.3-.16v2.53Z"/><path class="cls-8" d="M121,205.76v2.16a1.57,1.57,0,0,0,.15.68,1.35,1.35,0,0,0,.48.47c.21.13.36.15.47.07s.16-.24.16-.5v-2.17l.34.2v2.17c0,.38-.08.61-.25.71a.74.74,0,0,1-.72-.11,1.93,1.93,0,0,1-.71-.71,2.06,2.06,0,0,1-.27-1v-2.16Z"/><path class="cls-8" d="M123.25,207.05l.34.19v2.91l1.49.85v.37l-1.83-1.06Z"/><path class="cls-8" d="M125.77,208.5l1.72,1v.36l-1.36-.8v1.08l1.36.79v.37l-1.36-.79v1.09l1.41.81v.37l-1.77-1Z"/><g class="cls-50"><ellipse class="cls-7" cx="115.24" cy="178.28" rx="3.75" ry="6.49" transform="translate(-74.22 82.53) rotate(-30.31)"/></g><path class="cls-51" d="M116.44,183.57a10.18,10.18,0,0,1-4.6-7.94c0-1.79.78-2.92,2-3.19-1.84-.38-3.17.84-3.17,3.19a10.18,10.18,0,0,0,4.61,7.94,3.68,3.68,0,0,0,2.64.56A5,5,0,0,1,116.44,183.57Z"/></g></g></g></svg>