<?xml version="1.0" encoding="UTF-8" standalone="no"?>
<!-- Created with Inkscape (http://www.inkscape.org/) -->

<svg
   width="210mm"
   height="297mm"
   viewBox="0 0 210 297"
   version="1.1"
   id="svg5"
   xml:space="preserve"
   sodipodi:docname="tb-chester-x14.svg"
   inkscape:version="1.4 (e7c3feb100, 2024-10-09)"
   inkscape:export-filename="tb-chester-x14.png"
   inkscape:export-xdpi="96"
   inkscape:export-ydpi="96"
   xmlns:inkscape="http://www.inkscape.org/namespaces/inkscape"
   xmlns:sodipodi="http://sodipodi.sourceforge.net/DTD/sodipodi-0.dtd"
   xmlns="http://www.w3.org/2000/svg"
   xmlns:svg="http://www.w3.org/2000/svg"><sodipodi:namedview
     id="namedview7"
     pagecolor="#ffffff"
     bordercolor="#999999"
     borderopacity="1"
     inkscape:showpageshadow="0"
     inkscape:pageopacity="0"
     inkscape:pagecheckerboard="0"
     inkscape:deskcolor="#d1d1d1"
     inkscape:document-units="mm"
     showgrid="true"
     inkscape:zoom="4"
     inkscape:cx="134"
     inkscape:cy="157.125"
     inkscape:window-width="1920"
     inkscape:window-height="1012"
     inkscape:window-x="0"
     inkscape:window-y="0"
     inkscape:window-maximized="1"
     inkscape:current-layer="g801"
     showguides="true"><inkscape:grid
       type="xygrid"
       id="grid1324"
       units="mm"
       spacingx="0.5"
       spacingy="0.5"
       empspacing="10"
       dotted="true"
       originx="0"
       originy="0" /></sodipodi:namedview><defs
     id="defs2"><inkscape:path-effect
       effect="powerstroke"
       id="path-effect247"
       is_visible="true"
       lpeversion="1"
       offset_points="0,4.9921382"
       not_jump="false"
       sort_points="true"
       interpolator_type="CubicBezierJohan"
       interpolator_beta="0.2"
       start_linecap_type="zerowidth"
       linejoin_type="extrp_arc"
       miter_limit="4"
       scale_width="1"
       end_linecap_type="zerowidth"
       message="" /></defs><g
     inkscape:label="Layer 1"
     inkscape:groupmode="layer"
     id="layer1"><g
       id="g785"
       transform="translate(29.999998,-160)"
       style="display:inline;stroke-width:0.3;stroke-dasharray:none"
       inkscape:label="terminal-8"><path
         style="fill:#6dc381;stroke:none;stroke-width:0.3;stroke-linecap:round;stroke-linejoin:round;stroke-dasharray:none;stroke-opacity:1"
         d="M 31.000002,170 H 38 v 24 h -6.999998 v -24"
         id="path771"
         inkscape:label="fill" /><path
         style="display:inline;fill:#1b722f;stroke:none;stroke-width:0.3;stroke-linecap:round;stroke-linejoin:round;stroke-dasharray:none;stroke-opacity:1"
         d="M 30.999998,191 H 38 v 3 h -7.000002 v -3"
         id="path773"
         inkscape:label="bottom" /><path
         style="display:inline;fill:#1b722f;stroke:none;stroke-width:0.3;stroke-linecap:round;stroke-linejoin:round;stroke-dasharray:none;stroke-opacity:1"
         d="M 30.999998,170 H 38 v 2 h -7.000002 v -2"
         id="path775"
         inkscape:label="top" /><path
         id="path777"
         style="fill:#1b722f;stroke:none;stroke-width:0.3;stroke-linecap:round;stroke-linejoin:round;stroke-dasharray:none;stroke-opacity:1"
         d="M 36.999634,174.86647 31,178.33085 V 180 h 3.108854 l 2.89078,-1.66915 v -3.46438"
         sodipodi:nodetypes="cccccc"
         inkscape:label="slot" /><path
         style="fill:none;stroke:#0e3c19;stroke-width:0.3;stroke-linecap:round;stroke-linejoin:round;stroke-dasharray:none;stroke-opacity:1"
         d="M 30.999998,174 H 37 v 6 h -6.000002 v -6"
         id="path779"
         inkscape:label="button" /><path
         id="path781"
         style="fill:#0e3c19;stroke:none;stroke-width:0.3;stroke-linecap:round;stroke-linejoin:round;stroke-dasharray:none;stroke-opacity:1"
         d="m 15.499829,21.49998 c -0.749999,0 -1.49965,0.500167 -1.49965,1.500166 v 2.502173 a 2.5,2.5 0 0 0 -0.999939,1.997811 2.5,2.5 0 0 0 2.499589,2.500106 2.5,2.5 0 0 0 2.500106,-2.500106 2.5,2.5 0 0 0 -0.999939,-2.000394 v -2.49959 c 0,-0.999999 -0.750168,-1.500166 -1.500167,-1.500166 z"
         transform="translate(18.999997,160)"
         inkscape:label="cage" /><path
         style="display:inline;fill:none;stroke:#0e3c19;stroke-width:0.3;stroke-linecap:round;stroke-linejoin:round;stroke-dasharray:none;stroke-opacity:1"
         d="m 30.999998,170 h 6.999998 v 24 h -6.999998 v -24"
         id="path783"
         inkscape:label="contour" /></g><g
       id="g753"
       transform="translate(22.999998,-160)"
       style="display:inline;stroke-width:0.3;stroke-dasharray:none"
       inkscape:label="terminal-7"><path
         style="fill:#6dc381;stroke:none;stroke-width:0.3;stroke-linecap:round;stroke-linejoin:round;stroke-dasharray:none;stroke-opacity:1"
         d="M 31.000002,170 H 38 v 24 h -6.999998 v -24"
         id="path739"
         inkscape:label="fill" /><path
         style="display:inline;fill:#1b722f;stroke:none;stroke-width:0.3;stroke-linecap:round;stroke-linejoin:round;stroke-dasharray:none;stroke-opacity:1"
         d="M 30.999998,191 H 38 v 3 h -7.000002 v -3"
         id="path741"
         inkscape:label="bottom" /><path
         style="display:inline;fill:#1b722f;stroke:none;stroke-width:0.3;stroke-linecap:round;stroke-linejoin:round;stroke-dasharray:none;stroke-opacity:1"
         d="M 30.999998,170 H 38 v 2 h -7.000002 v -2"
         id="path743"
         inkscape:label="top" /><path
         id="path745"
         style="fill:#1b722f;stroke:none;stroke-width:0.3;stroke-linecap:round;stroke-linejoin:round;stroke-dasharray:none;stroke-opacity:1"
         d="M 36.999634,174.86647 31,178.33085 V 180 h 3.108854 l 2.89078,-1.66915 v -3.46438"
         sodipodi:nodetypes="cccccc"
         inkscape:label="slot" /><path
         style="fill:none;stroke:#0e3c19;stroke-width:0.3;stroke-linecap:round;stroke-linejoin:round;stroke-dasharray:none;stroke-opacity:1"
         d="M 30.999998,174 H 37 v 6 h -6.000002 v -6"
         id="path747"
         inkscape:label="button" /><path
         id="path749"
         style="fill:#0e3c19;stroke:none;stroke-width:0.3;stroke-linecap:round;stroke-linejoin:round;stroke-dasharray:none;stroke-opacity:1"
         d="m 15.499829,21.49998 c -0.749999,0 -1.49965,0.500167 -1.49965,1.500166 v 2.502173 a 2.5,2.5 0 0 0 -0.999939,1.997811 2.5,2.5 0 0 0 2.499589,2.500106 2.5,2.5 0 0 0 2.500106,-2.500106 2.5,2.5 0 0 0 -0.999939,-2.000394 v -2.49959 c 0,-0.999999 -0.750168,-1.500166 -1.500167,-1.500166 z"
         transform="translate(18.999997,160)"
         inkscape:label="cage" /><path
         style="display:inline;fill:none;stroke:#0e3c19;stroke-width:0.3;stroke-linecap:round;stroke-linejoin:round;stroke-dasharray:none;stroke-opacity:1"
         d="m 30.999998,170 h 6.999998 v 24 h -6.999998 v -24"
         id="path751"
         inkscape:label="contour" /></g><g
       id="g721"
       transform="translate(15.999998,-160)"
       style="display:inline;stroke-width:0.3;stroke-dasharray:none"
       inkscape:label="terminal-6"><path
         style="fill:#6dc381;stroke:none;stroke-width:0.3;stroke-linecap:round;stroke-linejoin:round;stroke-dasharray:none;stroke-opacity:1"
         d="M 31.000002,170 H 38 v 24 h -6.999998 v -24"
         id="path707"
         inkscape:label="fill" /><path
         style="display:inline;fill:#1b722f;stroke:none;stroke-width:0.3;stroke-linecap:round;stroke-linejoin:round;stroke-dasharray:none;stroke-opacity:1"
         d="M 30.999998,191 H 38 v 3 h -7.000002 v -3"
         id="path709"
         inkscape:label="bottom" /><path
         style="display:inline;fill:#1b722f;stroke:none;stroke-width:0.3;stroke-linecap:round;stroke-linejoin:round;stroke-dasharray:none;stroke-opacity:1"
         d="M 30.999998,170 H 38 v 2 h -7.000002 v -2"
         id="path711"
         inkscape:label="top" /><path
         id="path713"
         style="fill:#1b722f;stroke:none;stroke-width:0.3;stroke-linecap:round;stroke-linejoin:round;stroke-dasharray:none;stroke-opacity:1"
         d="M 36.999634,174.86647 31,178.33085 V 180 h 3.108854 l 2.89078,-1.66915 v -3.46438"
         sodipodi:nodetypes="cccccc"
         inkscape:label="slot" /><path
         style="fill:none;stroke:#0e3c19;stroke-width:0.3;stroke-linecap:round;stroke-linejoin:round;stroke-dasharray:none;stroke-opacity:1"
         d="M 30.999998,174 H 37 v 6 h -6.000002 v -6"
         id="path715"
         inkscape:label="button" /><path
         id="path717"
         style="fill:#0e3c19;stroke:none;stroke-width:0.3;stroke-linecap:round;stroke-linejoin:round;stroke-dasharray:none;stroke-opacity:1"
         d="m 15.499829,21.49998 c -0.749999,0 -1.49965,0.500167 -1.49965,1.500166 v 2.502173 a 2.5,2.5 0 0 0 -0.999939,1.997811 2.5,2.5 0 0 0 2.499589,2.500106 2.5,2.5 0 0 0 2.500106,-2.500106 2.5,2.5 0 0 0 -0.999939,-2.000394 v -2.49959 c 0,-0.999999 -0.750168,-1.500166 -1.500167,-1.500166 z"
         transform="translate(18.999997,160)"
         inkscape:label="cage" /><path
         style="display:inline;fill:none;stroke:#0e3c19;stroke-width:0.3;stroke-linecap:round;stroke-linejoin:round;stroke-dasharray:none;stroke-opacity:1"
         d="m 30.999998,170 h 6.999998 v 24 h -6.999998 v -24"
         id="path719"
         inkscape:label="contour" /></g><g
       id="g689"
       transform="translate(8.9999979,-160)"
       style="display:inline;stroke-width:0.3;stroke-dasharray:none"
       inkscape:label="terminal-5"><path
         style="fill:#6dc381;stroke:none;stroke-width:0.3;stroke-linecap:round;stroke-linejoin:round;stroke-dasharray:none;stroke-opacity:1"
         d="M 31.000002,170 H 38 v 24 h -6.999998 v -24"
         id="path675"
         inkscape:label="fill" /><path
         style="display:inline;fill:#1b722f;stroke:none;stroke-width:0.3;stroke-linecap:round;stroke-linejoin:round;stroke-dasharray:none;stroke-opacity:1"
         d="M 30.999998,191 H 38 v 3 h -7.000002 v -3"
         id="path677"
         inkscape:label="bottom" /><path
         style="display:inline;fill:#1b722f;stroke:none;stroke-width:0.3;stroke-linecap:round;stroke-linejoin:round;stroke-dasharray:none;stroke-opacity:1"
         d="M 30.999998,170 H 38 v 2 h -7.000002 v -2"
         id="path679"
         inkscape:label="top" /><path
         id="path681"
         style="fill:#1b722f;stroke:none;stroke-width:0.3;stroke-linecap:round;stroke-linejoin:round;stroke-dasharray:none;stroke-opacity:1"
         d="M 36.999634,174.86647 31,178.33085 V 180 h 3.108854 l 2.89078,-1.66915 v -3.46438"
         sodipodi:nodetypes="cccccc"
         inkscape:label="slot" /><path
         style="fill:none;stroke:#0e3c19;stroke-width:0.3;stroke-linecap:round;stroke-linejoin:round;stroke-dasharray:none;stroke-opacity:1"
         d="M 30.999998,174 H 37 v 6 h -6.000002 v -6"
         id="path683"
         inkscape:label="button" /><path
         id="path685"
         style="fill:#0e3c19;stroke:none;stroke-width:0.3;stroke-linecap:round;stroke-linejoin:round;stroke-dasharray:none;stroke-opacity:1"
         d="m 15.499829,21.49998 c -0.749999,0 -1.49965,0.500167 -1.49965,1.500166 v 2.502173 a 2.5,2.5 0 0 0 -0.999939,1.997811 2.5,2.5 0 0 0 2.499589,2.500106 2.5,2.5 0 0 0 2.500106,-2.500106 2.5,2.5 0 0 0 -0.999939,-2.000394 v -2.49959 c 0,-0.999999 -0.750168,-1.500166 -1.500167,-1.500166 z"
         transform="translate(18.999997,160)"
         inkscape:label="cage" /><path
         style="display:inline;fill:none;stroke:#0e3c19;stroke-width:0.3;stroke-linecap:round;stroke-linejoin:round;stroke-dasharray:none;stroke-opacity:1"
         d="m 30.999998,170 h 6.999998 v 24 h -6.999998 v -24"
         id="path687"
         inkscape:label="contour" /></g><g
       id="g657"
       transform="translate(1.999998,-160)"
       style="display:inline;stroke-width:0.3;stroke-dasharray:none"
       inkscape:label="terminal-4"><path
         style="fill:#6dc381;stroke:none;stroke-width:0.3;stroke-linecap:round;stroke-linejoin:round;stroke-dasharray:none;stroke-opacity:1"
         d="M 31.000002,170 H 38 v 24 h -6.999998 v -24"
         id="path643"
         inkscape:label="fill" /><path
         style="display:inline;fill:#1b722f;stroke:none;stroke-width:0.3;stroke-linecap:round;stroke-linejoin:round;stroke-dasharray:none;stroke-opacity:1"
         d="M 30.999998,191 H 38 v 3 h -7.000002 v -3"
         id="path645"
         inkscape:label="bottom" /><path
         style="display:inline;fill:#1b722f;stroke:none;stroke-width:0.3;stroke-linecap:round;stroke-linejoin:round;stroke-dasharray:none;stroke-opacity:1"
         d="M 30.999998,170 H 38 v 2 h -7.000002 v -2"
         id="path647"
         inkscape:label="top" /><path
         id="path649"
         style="fill:#1b722f;stroke:none;stroke-width:0.3;stroke-linecap:round;stroke-linejoin:round;stroke-dasharray:none;stroke-opacity:1"
         d="M 36.999634,174.86647 31,178.33085 V 180 h 3.108854 l 2.89078,-1.66915 v -3.46438"
         sodipodi:nodetypes="cccccc"
         inkscape:label="slot" /><path
         style="fill:none;stroke:#0e3c19;stroke-width:0.3;stroke-linecap:round;stroke-linejoin:round;stroke-dasharray:none;stroke-opacity:1"
         d="M 30.999998,174 H 37 v 6 h -6.000002 v -6"
         id="path651"
         inkscape:label="button" /><path
         id="path653"
         style="fill:#0e3c19;stroke:none;stroke-width:0.3;stroke-linecap:round;stroke-linejoin:round;stroke-dasharray:none;stroke-opacity:1"
         d="m 15.499829,21.49998 c -0.749999,0 -1.49965,0.500167 -1.49965,1.500166 v 2.502173 a 2.5,2.5 0 0 0 -0.999939,1.997811 2.5,2.5 0 0 0 2.499589,2.500106 2.5,2.5 0 0 0 2.500106,-2.500106 2.5,2.5 0 0 0 -0.999939,-2.000394 v -2.49959 c 0,-0.999999 -0.750168,-1.500166 -1.500167,-1.500166 z"
         transform="translate(18.999997,160)"
         inkscape:label="cage" /><path
         style="display:inline;fill:none;stroke:#0e3c19;stroke-width:0.3;stroke-linecap:round;stroke-linejoin:round;stroke-dasharray:none;stroke-opacity:1"
         d="m 30.999998,170 h 6.999998 v 24 h -6.999998 v -24"
         id="path655"
         inkscape:label="contour" /></g><g
       id="g625"
       transform="translate(-5.0000019,-160)"
       style="display:inline;stroke-width:0.3;stroke-dasharray:none"
       inkscape:label="terminal-3"><path
         style="fill:#6dc381;stroke:none;stroke-width:0.3;stroke-linecap:round;stroke-linejoin:round;stroke-dasharray:none;stroke-opacity:1"
         d="M 31.000002,170 H 38 v 24 h -6.999998 v -24"
         id="path611"
         inkscape:label="fill" /><path
         style="display:inline;fill:#1b722f;stroke:none;stroke-width:0.3;stroke-linecap:round;stroke-linejoin:round;stroke-dasharray:none;stroke-opacity:1"
         d="M 30.999998,191 H 38 v 3 h -7.000002 v -3"
         id="path613"
         inkscape:label="bottom" /><path
         style="display:inline;fill:#1b722f;stroke:none;stroke-width:0.3;stroke-linecap:round;stroke-linejoin:round;stroke-dasharray:none;stroke-opacity:1"
         d="M 30.999998,170 H 38 v 2 h -7.000002 v -2"
         id="path615"
         inkscape:label="top" /><path
         id="path617"
         style="fill:#1b722f;stroke:none;stroke-width:0.3;stroke-linecap:round;stroke-linejoin:round;stroke-dasharray:none;stroke-opacity:1"
         d="M 36.999634,174.86647 31,178.33085 V 180 h 3.108854 l 2.89078,-1.66915 v -3.46438"
         sodipodi:nodetypes="cccccc"
         inkscape:label="slot" /><path
         style="fill:none;stroke:#0e3c19;stroke-width:0.3;stroke-linecap:round;stroke-linejoin:round;stroke-dasharray:none;stroke-opacity:1"
         d="M 30.999998,174 H 37 v 6 h -6.000002 v -6"
         id="path619"
         inkscape:label="button" /><path
         id="path621"
         style="fill:#0e3c19;stroke:none;stroke-width:0.3;stroke-linecap:round;stroke-linejoin:round;stroke-dasharray:none;stroke-opacity:1"
         d="m 15.499829,21.49998 c -0.749999,0 -1.49965,0.500167 -1.49965,1.500166 v 2.502173 a 2.5,2.5 0 0 0 -0.999939,1.997811 2.5,2.5 0 0 0 2.499589,2.500106 2.5,2.5 0 0 0 2.500106,-2.500106 2.5,2.5 0 0 0 -0.999939,-2.000394 v -2.49959 c 0,-0.999999 -0.750168,-1.500166 -1.500167,-1.500166 z"
         transform="translate(18.999997,160)"
         inkscape:label="cage" /><path
         style="display:inline;fill:none;stroke:#0e3c19;stroke-width:0.3;stroke-linecap:round;stroke-linejoin:round;stroke-dasharray:none;stroke-opacity:1"
         d="m 30.999998,170 h 6.999998 v 24 h -6.999998 v -24"
         id="path623"
         inkscape:label="contour" /></g><g
       id="g593"
       transform="translate(-12.000002,-160)"
       style="display:inline;stroke-width:0.3;stroke-dasharray:none"
       inkscape:label="terminal-2"><path
         style="fill:#6dc381;stroke:none;stroke-width:0.3;stroke-linecap:round;stroke-linejoin:round;stroke-dasharray:none;stroke-opacity:1"
         d="M 31.000002,170 H 38 v 24 h -6.999998 v -24"
         id="path579"
         inkscape:label="fill" /><path
         style="display:inline;fill:#1b722f;stroke:none;stroke-width:0.3;stroke-linecap:round;stroke-linejoin:round;stroke-dasharray:none;stroke-opacity:1"
         d="M 30.999998,191 H 38 v 3 h -7.000002 v -3"
         id="path581"
         inkscape:label="bottom" /><path
         style="display:inline;fill:#1b722f;stroke:none;stroke-width:0.3;stroke-linecap:round;stroke-linejoin:round;stroke-dasharray:none;stroke-opacity:1"
         d="M 30.999998,170 H 38 v 2 h -7.000002 v -2"
         id="path583"
         inkscape:label="top" /><path
         id="path585"
         style="fill:#1b722f;stroke:none;stroke-width:0.3;stroke-linecap:round;stroke-linejoin:round;stroke-dasharray:none;stroke-opacity:1"
         d="M 36.999634,174.86647 31,178.33085 V 180 h 3.108854 l 2.89078,-1.66915 v -3.46438"
         sodipodi:nodetypes="cccccc"
         inkscape:label="slot" /><path
         style="fill:none;stroke:#0e3c19;stroke-width:0.3;stroke-linecap:round;stroke-linejoin:round;stroke-dasharray:none;stroke-opacity:1"
         d="M 30.999998,174 H 37 v 6 h -6.000002 v -6"
         id="path587"
         inkscape:label="button" /><path
         id="path589"
         style="fill:#0e3c19;stroke:none;stroke-width:0.3;stroke-linecap:round;stroke-linejoin:round;stroke-dasharray:none;stroke-opacity:1"
         d="m 15.499829,21.49998 c -0.749999,0 -1.49965,0.500167 -1.49965,1.500166 v 2.502173 a 2.5,2.5 0 0 0 -0.999939,1.997811 2.5,2.5 0 0 0 2.499589,2.500106 2.5,2.5 0 0 0 2.500106,-2.500106 2.5,2.5 0 0 0 -0.999939,-2.000394 v -2.49959 c 0,-0.999999 -0.750168,-1.500166 -1.500167,-1.500166 z"
         transform="translate(18.999997,160)"
         inkscape:label="cage" /><path
         style="display:inline;fill:none;stroke:#0e3c19;stroke-width:0.3;stroke-linecap:round;stroke-linejoin:round;stroke-dasharray:none;stroke-opacity:1"
         d="m 30.999998,170 h 6.999998 v 24 h -6.999998 v -24"
         id="path591"
         inkscape:label="contour" /></g><g
       id="g14134"
       transform="translate(-18.999997,-160)"
       style="display:inline;stroke-width:0.3;stroke-dasharray:none"
       inkscape:label="terminal-1"><path
         style="fill:#6dc381;stroke:none;stroke-width:0.3;stroke-linecap:round;stroke-linejoin:round;stroke-dasharray:none;stroke-opacity:1"
         d="M 31.000002,170 H 38 v 24 h -6.999998 v -24"
         id="path14120"
         inkscape:label="fill" /><path
         style="display:inline;stroke-width:0.3;stroke-dasharray:none;fill:#1b722f;stroke:none;stroke-linecap:round;stroke-linejoin:round;stroke-opacity:1"
         d="M 30.999998,191 H 38 v 3 h -7.000002 v -3"
         id="path14128"
         inkscape:label="bottom" /><path
         style="display:inline;stroke-width:0.3;stroke-dasharray:none;fill:#1b722f;stroke:none;stroke-linecap:round;stroke-linejoin:round;stroke-opacity:1"
         d="M 30.999998,170 H 38 v 2 h -7.000002 v -2"
         id="path14126"
         inkscape:label="top" /><path
         id="path14124"
         style="fill:#1b722f;stroke:none;stroke-width:0.3;stroke-linecap:round;stroke-linejoin:round;stroke-dasharray:none;stroke-opacity:1"
         d="M 36.999634,174.86647 31,178.33085 V 180 h 3.108854 l 2.89078,-1.66915 v -3.46438"
         sodipodi:nodetypes="cccccc"
         inkscape:label="slot" /><path
         style="fill:none;stroke:#0e3c19;stroke-width:0.3;stroke-linecap:round;stroke-linejoin:round;stroke-dasharray:none;stroke-opacity:1"
         d="M 30.999998,174 H 37 v 6 h -6.000002 v -6"
         id="path14132"
         inkscape:label="button" /><path
         id="path2535"
         style="fill:#0e3c19;stroke:none;stroke-width:0.3;stroke-linecap:round;stroke-linejoin:round;stroke-opacity:1;stroke-dasharray:none"
         d="M 15.499829 21.49998 C 14.74983 21.49998 14.000179 22.000147 14.000179 23.000146 L 14.000179 25.502319 A 2.5 2.5 0 0 0 13.00024 27.50013 A 2.5 2.5 0 0 0 15.499829 30.000236 A 2.5 2.5 0 0 0 17.999935 27.50013 A 2.5 2.5 0 0 0 16.999996 25.499736 L 16.999996 23.000146 C 16.999996 22.000147 16.249828 21.49998 15.499829 21.49998 z "
         transform="translate(18.999997,160)"
         inkscape:label="cage" /><path
         style="display:inline;stroke-width:0.3;stroke-dasharray:none;fill:none;stroke:#0e3c19;stroke-linecap:round;stroke-linejoin:round;stroke-opacity:1"
         d="m 30.999998,170 h 6.999998 v 24 h -6.999998 v -24"
         id="path14130"
         inkscape:label="contour" /></g><g
       id="g801"
       inkscape:label="label-8"
       transform="translate(48.999995)"><path
         style="fill:none;stroke:#5d37a2;stroke-width:0.600001;stroke-linecap:round;stroke-linejoin:round;stroke-dasharray:none;stroke-opacity:1"
         d="M 15.5,43 V 27.526248"
         id="path787"
         sodipodi:nodetypes="cc"
         inkscape:label="wire" /><path
         id="path789"
         style="fill:#5d37a2;stroke:none;stroke-width:0.3;stroke-linecap:round;stroke-linejoin:round;stroke-dasharray:none;paint-order:stroke fill markers"
         d="M 15.499742,35.999894 A 2.5,2.5 0 0 0 13.000153,38.5 2.5,2.5 0 0 0 15.499742,41.000106 2.5,2.5 0 0 0 17.999848,38.5 2.5,2.5 0 0 0 15.499742,35.999894 Z"
         inkscape:label="circle" /><rect
         style="fill:#5d37a2;stroke:none;stroke-width:0.3;stroke-linecap:round;stroke-linejoin:round;stroke-dasharray:none;paint-order:stroke fill markers"
         id="rect791"
         width="5"
         height="19"
         x="13"
         y="43"
         ry="2.5"
         inkscape:label="pill" /><text
         xml:space="preserve"
         style="font-style:normal;font-weight:normal;font-size:4.48212px;line-height:1.25;font-family:sans-serif;fill:#ffffff;fill-opacity:1;stroke:none;stroke-width:0.264583"
         x="-56.269459"
         y="17.100117"
         id="text795"
         transform="rotate(-90)"
         inkscape:label="signal"><tspan
           sodipodi:role="line"
           id="tspan793"
           style="font-style:normal;font-variant:normal;font-weight:bold;font-stretch:normal;font-family:'Roboto Mono';-inkscape-font-specification:'Roboto Mono';fill:#ffffff;fill-opacity:1;stroke-width:0.264583"
           x="-56.269459"
           y="17.100117">Tx+</tspan></text><text
         xml:space="preserve"
         style="font-style:normal;font-weight:normal;font-size:4.48212px;line-height:1.25;font-family:sans-serif;fill:#ffffff;fill-opacity:1;stroke:none;stroke-width:0.264583"
         x="14.19235"
         y="40.093254"
         id="text799"
         inkscape:transform-center-x="-1.3222694e-06"
         inkscape:label="pin"><tspan
           sodipodi:role="line"
           id="tspan797"
           style="font-style:normal;font-variant:normal;font-weight:bold;font-stretch:normal;font-family:'Roboto Mono';-inkscape-font-specification:'Roboto Mono Bold';fill:#ffffff;fill-opacity:1;stroke-width:0.264583"
           x="14.19235"
           y="40.093254">8</tspan></text></g><g
       id="g769"
       inkscape:label="label-7"
       transform="translate(41.999995)"><path
         style="fill:none;stroke:#5d37a2;stroke-width:0.600001;stroke-linecap:round;stroke-linejoin:round;stroke-dasharray:none;stroke-opacity:1"
         d="M 15.5,43 V 27.526248"
         id="path755"
         sodipodi:nodetypes="cc"
         inkscape:label="wire" /><path
         id="path757"
         style="fill:#5d37a2;stroke:none;stroke-width:0.3;stroke-linecap:round;stroke-linejoin:round;stroke-dasharray:none;paint-order:stroke fill markers"
         d="M 15.499742,35.999894 A 2.5,2.5 0 0 0 13.000153,38.5 2.5,2.5 0 0 0 15.499742,41.000106 2.5,2.5 0 0 0 17.999848,38.5 2.5,2.5 0 0 0 15.499742,35.999894 Z"
         inkscape:label="circle" /><rect
         style="fill:#5d37a2;stroke:none;stroke-width:0.3;stroke-linecap:round;stroke-linejoin:round;stroke-dasharray:none;paint-order:stroke fill markers"
         id="rect759"
         width="5"
         height="19"
         x="13"
         y="43"
         ry="2.5"
         inkscape:label="pill" /><text
         xml:space="preserve"
         style="font-style:normal;font-weight:normal;font-size:4.48212px;line-height:1.25;font-family:sans-serif;fill:#ffffff;fill-opacity:1;stroke:none;stroke-width:0.264583"
         x="-55.738327"
         y="17.100117"
         id="text763"
         transform="rotate(-90)"
         inkscape:label="signal"><tspan
           sodipodi:role="line"
           id="tspan761"
           style="font-style:normal;font-variant:normal;font-weight:bold;font-stretch:normal;font-family:'Roboto Mono';-inkscape-font-specification:'Roboto Mono';fill:#ffffff;fill-opacity:1;stroke-width:0.264583"
           x="-55.738327"
           y="17.100117">Tx-</tspan></text><text
         xml:space="preserve"
         style="font-style:normal;font-weight:normal;font-size:4.48212px;line-height:1.25;font-family:sans-serif;fill:#ffffff;fill-opacity:1;stroke:none;stroke-width:0.264583"
         x="14.229556"
         y="40.093254"
         id="text767"
         inkscape:transform-center-x="-1.3222694e-06"
         inkscape:label="pin"><tspan
           sodipodi:role="line"
           id="tspan765"
           style="font-style:normal;font-variant:normal;font-weight:bold;font-stretch:normal;font-family:'Roboto Mono';-inkscape-font-specification:'Roboto Mono Bold';fill:#ffffff;fill-opacity:1;stroke-width:0.264583"
           x="14.229556"
           y="40.093254">7</tspan></text></g><g
       id="g737"
       inkscape:label="label-6"
       transform="translate(34.999996)"><path
         style="fill:none;stroke:#5d37a2;stroke-width:0.600001;stroke-linecap:round;stroke-linejoin:round;stroke-dasharray:none;stroke-opacity:1"
         d="M 15.5,43 V 27.526248"
         id="path723"
         sodipodi:nodetypes="cc"
         inkscape:label="wire" /><path
         id="path725"
         style="fill:#5d37a2;stroke:none;stroke-width:0.3;stroke-linecap:round;stroke-linejoin:round;stroke-dasharray:none;paint-order:stroke fill markers"
         d="M 15.499742,35.999894 A 2.5,2.5 0 0 0 13.000153,38.5 2.5,2.5 0 0 0 15.499742,41.000106 2.5,2.5 0 0 0 17.999848,38.5 2.5,2.5 0 0 0 15.499742,35.999894 Z"
         inkscape:label="circle" /><rect
         style="fill:#5d37a2;stroke:none;stroke-width:0.3;stroke-linecap:round;stroke-linejoin:round;stroke-dasharray:none;paint-order:stroke fill markers"
         id="rect727"
         width="5"
         height="19"
         x="13"
         y="43"
         ry="2.5"
         inkscape:label="pill" /><text
         xml:space="preserve"
         style="font-style:normal;font-weight:normal;font-size:4.48212px;line-height:1.25;font-family:sans-serif;fill:#ffffff;fill-opacity:1;stroke:none;stroke-width:0.264583"
         x="-56.639236"
         y="17.100117"
         id="text731"
         transform="rotate(-90)"
         inkscape:label="signal"><tspan
           sodipodi:role="line"
           id="tspan729"
           style="font-style:normal;font-variant:normal;font-weight:bold;font-stretch:normal;font-family:'Roboto Mono';-inkscape-font-specification:'Roboto Mono';fill:#ffffff;fill-opacity:1;stroke-width:0.264583"
           x="-56.639236"
           y="17.100117">Rx+</tspan></text><text
         xml:space="preserve"
         style="font-style:normal;font-weight:normal;font-size:4.48212px;line-height:1.25;font-family:sans-serif;fill:#ffffff;fill-opacity:1;stroke:none;stroke-width:0.264583"
         x="14.183597"
         y="40.093254"
         id="text735"
         inkscape:transform-center-x="-1.3222694e-06"
         inkscape:label="pin"><tspan
           sodipodi:role="line"
           id="tspan733"
           style="font-style:normal;font-variant:normal;font-weight:bold;font-stretch:normal;font-family:'Roboto Mono';-inkscape-font-specification:'Roboto Mono Bold';fill:#ffffff;fill-opacity:1;stroke-width:0.264583"
           x="14.183597"
           y="40.093254">6</tspan></text></g><g
       id="g705"
       inkscape:label="label-5"
       transform="translate(27.999994)"><path
         style="fill:none;stroke:#5d37a2;stroke-width:0.600001;stroke-linecap:round;stroke-linejoin:round;stroke-dasharray:none;stroke-opacity:1"
         d="M 15.5,43 V 27.526248"
         id="path691"
         sodipodi:nodetypes="cc"
         inkscape:label="wire" /><path
         id="path693"
         style="fill:#5d37a2;stroke:none;stroke-width:0.3;stroke-linecap:round;stroke-linejoin:round;stroke-dasharray:none;paint-order:stroke fill markers"
         d="M 15.499742,35.999894 A 2.5,2.5 0 0 0 13.000153,38.5 2.5,2.5 0 0 0 15.499742,41.000106 2.5,2.5 0 0 0 17.999848,38.5 2.5,2.5 0 0 0 15.499742,35.999894 Z"
         inkscape:label="circle" /><rect
         style="fill:#5d37a2;stroke:none;stroke-width:0.3;stroke-linecap:round;stroke-linejoin:round;stroke-dasharray:none;paint-order:stroke fill markers"
         id="rect695"
         width="5"
         height="19"
         x="13"
         y="43"
         ry="2.5"
         inkscape:label="pill" /><text
         xml:space="preserve"
         style="font-style:normal;font-weight:normal;font-size:4.48212px;line-height:1.25;font-family:sans-serif;fill:#ffffff;fill-opacity:1;stroke:none;stroke-width:0.264583"
         x="-56.108105"
         y="17.100117"
         id="text699"
         transform="rotate(-90)"
         inkscape:label="signal"><tspan
           sodipodi:role="line"
           id="tspan697"
           style="font-style:normal;font-variant:normal;font-weight:bold;font-stretch:normal;font-family:'Roboto Mono';-inkscape-font-specification:'Roboto Mono';fill:#ffffff;fill-opacity:1;stroke-width:0.264583"
           x="-56.108105"
           y="17.100117">Rx-</tspan></text><text
         xml:space="preserve"
         style="font-style:normal;font-weight:normal;font-size:4.48212px;line-height:1.25;font-family:sans-serif;fill:#ffffff;fill-opacity:1;stroke:none;stroke-width:0.264583"
         x="14.174843"
         y="40.093254"
         id="text703"
         inkscape:transform-center-x="-1.3222694e-06"
         inkscape:label="pin"><tspan
           sodipodi:role="line"
           id="tspan701"
           style="font-style:normal;font-variant:normal;font-weight:bold;font-stretch:normal;font-family:'Roboto Mono';-inkscape-font-specification:'Roboto Mono Bold';fill:#ffffff;fill-opacity:1;stroke-width:0.264583"
           x="14.174843"
           y="40.093254">5</tspan></text></g><g
       id="g673"
       inkscape:label="label-4"
       transform="translate(21, 0)"><path
         style="fill:none;stroke:#5d37a2;stroke-width:0.600001;stroke-linecap:round;stroke-linejoin:round;stroke-dasharray:none;stroke-opacity:1"
         d="M 15.5,43 V 27.526248"
         id="path659"
         sodipodi:nodetypes="cc"
         inkscape:label="wire" /><path
         id="path661"
         style="fill:#5d37a2;stroke:none;stroke-width:0.3;stroke-linecap:round;stroke-linejoin:round;stroke-dasharray:none;paint-order:stroke fill markers"
         d="M 15.499742,35.999894 A 2.5,2.5 0 0 0 13.000153,38.5 2.5,2.5 0 0 0 15.499742,41.000106 2.5,2.5 0 0 0 17.999848,38.5 2.5,2.5 0 0 0 15.499742,35.999894 Z"
         inkscape:label="circle" /><rect
         style="fill:#5d37a2;stroke:none;stroke-width:0.3;stroke-linecap:round;stroke-linejoin:round;stroke-dasharray:none;paint-order:stroke fill markers"
         id="rect663"
         width="5"
         height="19"
         x="13"
         y="43"
         ry="2.5"
         inkscape:label="pill" /><text
         xml:space="preserve"
         style="font-style:normal;font-weight:normal;font-size:4.48212px;line-height:1.25;font-family:sans-serif;fill:#ffffff;fill-opacity:1;stroke:none;stroke-width:0.264583"
         x="-57.593929"
         y="17.100117"
         id="text667"
         transform="rotate(-90)"
         inkscape:label="signal"><tspan
           sodipodi:role="line"
           id="tspan665"
           style="font-style:normal;font-variant:normal;font-weight:bold;font-stretch:normal;font-family:'Roboto Mono';-inkscape-font-specification:'Roboto Mono';fill:#ffffff;fill-opacity:1;stroke-width:0.264583"
           x="-57.593929"
           y="17.100117">GND</tspan></text><text
         xml:space="preserve"
         style="font-size:4.48212px;line-height:1.25;fill:#ffffff;stroke-width:0.264583;font-style:normal;font-weight:normal;font-family:sans-serif;fill-opacity:1;stroke:none"
         x="14.20767"
         y="40.093254"
         id="text671"
         inkscape:transform-center-x="-1.3222694e-06"
         inkscape:label="pin"
         transform="translate(-0.14622932)"><tspan
           sodipodi:role="line"
           id="tspan669"
           style="font-style:normal;font-variant:normal;font-weight:bold;font-stretch:normal;font-family:'Roboto Mono';-inkscape-font-specification:'Roboto Mono Bold';fill:#ffffff;fill-opacity:1;stroke-width:0.264583"
           x="14.20767"
           y="40.093254">4</tspan></text></g><g
       id="g641"
       inkscape:label="label-3"
       transform="translate(13.999995)"><path
         style="fill:none;stroke:#5d37a2;stroke-width:0.600001;stroke-linecap:round;stroke-linejoin:round;stroke-dasharray:none;stroke-opacity:1"
         d="M 15.5,43 V 27.526248"
         id="path627"
         sodipodi:nodetypes="cc"
         inkscape:label="wire" /><path
         id="path629"
         style="fill:#5d37a2;stroke:none;stroke-width:0.3;stroke-linecap:round;stroke-linejoin:round;stroke-dasharray:none;paint-order:stroke fill markers"
         d="M 15.499742,35.999894 A 2.5,2.5 0 0 0 13.000153,38.5 2.5,2.5 0 0 0 15.499742,41.000106 2.5,2.5 0 0 0 17.999848,38.5 2.5,2.5 0 0 0 15.499742,35.999894 Z"
         inkscape:label="circle" /><rect
         style="fill:#5d37a2;stroke:none;stroke-width:0.3;stroke-linecap:round;stroke-linejoin:round;stroke-dasharray:none;paint-order:stroke fill markers"
         id="rect631"
         width="5"
         height="19"
         x="13"
         y="43"
         ry="2.5"
         inkscape:label="pill" /><text
         xml:space="preserve"
         style="font-style:normal;font-weight:normal;font-size:4.48212px;line-height:1.25;font-family:sans-serif;fill:#ffffff;fill-opacity:1;stroke:none;stroke-width:0.264583"
         x="-57.827"
         y="17.100117"
         id="text635"
         transform="rotate(-90)"
         inkscape:label="signal"><tspan
           sodipodi:role="line"
           id="tspan633"
           style="font-style:normal;font-variant:normal;font-weight:bold;font-stretch:normal;font-family:'Roboto Mono';-inkscape-font-specification:'Roboto Mono';fill:#ffffff;fill-opacity:1;stroke-width:0.264583"
           x="-57.827"
           y="17.100117">+VIN</tspan><tspan
           sodipodi:role="line"
           style="font-style:normal;font-variant:normal;font-weight:bold;font-stretch:normal;font-family:'Roboto Mono';-inkscape-font-specification:'Roboto Mono';fill:#ffffff;fill-opacity:1;stroke-width:0.264583"
           x="-57.827"
           y="22.702766"
           id="tspan1" /></text><text
         xml:space="preserve"
         style="font-style:normal;font-weight:normal;font-size:4.48212px;line-height:1.25;font-family:sans-serif;fill:#ffffff;fill-opacity:1;stroke:none;stroke-width:0.264583"
         x="14.195634"
         y="40.093254"
         id="text639"
         inkscape:transform-center-x="-1.3222694e-06"
         inkscape:label="pin"><tspan
           sodipodi:role="line"
           id="tspan637"
           style="font-style:normal;font-variant:normal;font-weight:bold;font-stretch:normal;font-family:'Roboto Mono';-inkscape-font-specification:'Roboto Mono Bold';fill:#ffffff;fill-opacity:1;stroke-width:0.264583"
           x="14.195634"
           y="40.093254">3</tspan></text></g><g
       id="g609"
       inkscape:label="label-2"
       transform="translate(6.999995)"><path
         style="fill:none;stroke:#5d37a2;stroke-width:0.600001;stroke-linecap:round;stroke-linejoin:round;stroke-dasharray:none;stroke-opacity:1"
         d="M 15.5,43 V 27.526248"
         id="path595"
         sodipodi:nodetypes="cc"
         inkscape:label="wire" /><path
         id="path597"
         style="fill:#5d37a2;stroke:none;stroke-width:0.3;stroke-linecap:round;stroke-linejoin:round;stroke-dasharray:none;paint-order:stroke fill markers"
         d="M 15.499742,35.999894 A 2.5,2.5 0 0 0 13.000153,38.5 2.5,2.5 0 0 0 15.499742,41.000106 2.5,2.5 0 0 0 17.999848,38.5 2.5,2.5 0 0 0 15.499742,35.999894 Z"
         inkscape:label="circle" /><rect
         style="fill:#5d37a2;stroke:none;stroke-width:0.3;stroke-linecap:round;stroke-linejoin:round;stroke-dasharray:none;paint-order:stroke fill markers"
         id="rect599"
         width="5"
         height="19"
         x="13"
         y="43"
         ry="2.5"
         inkscape:label="pill" /><text
         xml:space="preserve"
         style="font-style:normal;font-weight:normal;font-size:4.48212px;line-height:1.25;font-family:sans-serif;fill:#ffffff;fill-opacity:1;stroke:none;stroke-width:0.264583"
         x="-55.334942"
         y="17.100117"
         id="text603"
         transform="rotate(-90)"
         inkscape:label="signal"><tspan
           sodipodi:role="line"
           id="tspan601"
           style="font-style:normal;font-variant:normal;font-weight:bold;font-stretch:normal;font-family:'Roboto Mono';-inkscape-font-specification:'Roboto Mono';fill:#ffffff;fill-opacity:1;stroke-width:0.264583"
           x="-55.334942"
           y="17.100117">+V</tspan></text><text
         xml:space="preserve"
         style="font-style:normal;font-weight:normal;font-size:4.48212px;line-height:1.25;font-family:sans-serif;fill:#ffffff;fill-opacity:1;stroke:none;stroke-width:0.264583"
         x="14.227367"
         y="40.093254"
         id="text607"
         inkscape:transform-center-x="-1.3222694e-06"
         inkscape:label="pin"><tspan
           sodipodi:role="line"
           id="tspan605"
           style="font-style:normal;font-variant:normal;font-weight:bold;font-stretch:normal;font-family:'Roboto Mono';-inkscape-font-specification:'Roboto Mono Bold';fill:#ffffff;fill-opacity:1;stroke-width:0.264583"
           x="14.227367"
           y="40.093254">2</tspan></text></g><g
       id="g467"
       inkscape:label="label-1"><path
         style="fill:none;stroke:#5d37a2;stroke-width:0.600001;stroke-linecap:round;stroke-linejoin:round;stroke-dasharray:none;stroke-opacity:1"
         d="M 15.5,43 V 27.526248"
         id="path20250"
         sodipodi:nodetypes="cc"
         inkscape:label="wire" /><path
         id="path4176"
         style="fill:#5d37a2;stroke:none;stroke-width:0.3;stroke-linecap:round;stroke-linejoin:round;stroke-dasharray:none;paint-order:stroke fill markers"
         d="M 15.499742,35.999894 A 2.5,2.5 0 0 0 13.000153,38.5 2.5,2.5 0 0 0 15.499742,41.000106 2.5,2.5 0 0 0 17.999848,38.5 2.5,2.5 0 0 0 15.499742,35.999894 Z"
         inkscape:label="circle" /><rect
         style="fill:#5d37a2;stroke:none;stroke-width:0.3;stroke-linecap:round;stroke-linejoin:round;stroke-dasharray:none;paint-order:stroke fill markers"
         id="rect6527"
         width="5"
         height="19"
         x="13"
         y="43"
         ry="2.5"
         inkscape:label="pill" /><text
         xml:space="preserve"
         style="font-style:normal;font-weight:normal;font-size:4.48212px;line-height:1.25;font-family:sans-serif;fill:#ffffff;fill-opacity:1;stroke:none;stroke-width:0.264583"
         x="-56.51598"
         y="17.100117"
         id="text6664"
         transform="rotate(-90)"
         inkscape:label="signal"><tspan
           sodipodi:role="line"
           id="tspan6662"
           style="font-style:normal;font-variant:normal;font-weight:bold;font-stretch:normal;font-family:'Roboto Mono';-inkscape-font-specification:'Roboto Mono';fill:#ffffff;fill-opacity:1;stroke-width:0.264583"
           x="-56.51598"
           y="17.100117">INT</tspan></text><text
         xml:space="preserve"
         style="font-style:normal;font-weight:normal;font-size:4.48212px;line-height:1.25;font-family:sans-serif;fill:#ffffff;fill-opacity:1;stroke:none;stroke-width:0.264583"
         x="14.411204"
         y="40.093254"
         id="text6664-9"
         inkscape:transform-center-x="-1.3222694e-06"
         inkscape:label="pin"
         transform="translate(-0.27522723)"><tspan
           sodipodi:role="line"
           id="tspan6662-9"
           style="font-style:normal;font-variant:normal;font-weight:bold;font-stretch:normal;font-family:'Roboto Mono';-inkscape-font-specification:'Roboto Mono Bold';fill:#ffffff;fill-opacity:1;stroke-width:0.264583"
           x="14.411204"
           y="40.093254">1</tspan></text><text
         xml:space="preserve"
         style="font-size:3.175px;text-align:center;writing-mode:lr-tb;direction:ltr;text-anchor:middle;fill:#000000;stroke-width:0.264583"
         x="63.367706"
         y="52.453644"
         id="text2"><tspan
           sodipodi:role="line"
           id="tspan2"
           style="stroke-width:0.264583"></tspan></text></g><g
       id="g12923"
       transform="translate(-10,-160)"
       style="display:inline;stroke-width:0.3;stroke-dasharray:none"
       inkscape:label="side"><path
         style="fill:#6dc381;stroke:none;stroke-width:0.3;stroke-linecap:round;stroke-linejoin:round;stroke-dasharray:none;stroke-opacity:1"
         d="m 20,170 h 2 v 24 h -2 v -24"
         id="path5413"
         sodipodi:nodetypes="ccccc"
         inkscape:label="fill" /><path
         style="fill:#1b722f;stroke:none;stroke-width:0.3;stroke-linecap:round;stroke-linejoin:round;stroke-dasharray:none;stroke-opacity:1"
         d="m 20,191 h 2 v 3 h -2 v -3"
         id="path11684-0"
         sodipodi:nodetypes="ccccc"
         inkscape:label="bottom" /><path
         style="display:inline;stroke-width:0.3;stroke-dasharray:none;fill:#1b722f;stroke:none;stroke-linecap:round;stroke-linejoin:round;stroke-opacity:1"
         d="m 20,172 h 2 v -2 h -2 v 2"
         id="path7657"
         inkscape:label="top" /><path
         style="fill:none;stroke:#0e3c19;stroke-width:0.3;stroke-linecap:round;stroke-linejoin:round;stroke-dasharray:none;stroke-opacity:1"
         d="m 20,170 h 2 v 24 h -2 v -24"
         id="path12058"
         sodipodi:nodetypes="ccccc"
         inkscape:label="contour" /></g></g></svg>
